<svg xmlns="http://www.w3.org/2000/svg" width="13" height="13" viewBox="0 0 13 13"><defs><style>.a{fill:#fff;}</style></defs><g transform="translate(-23 -7.256)"><circle class="a" cx="6.5" cy="6.5" r="6.5" transform="translate(23 7.256)"/><path d="M10.287,9.176a5.014,5.014,0,0,0-1.047-.7c-.314-.151-.429-.148-.651.012-.185.134-.3.258-.517.211a3.087,3.087,0,0,1-1.04-.769,3.065,3.065,0,0,1-.769-1.04c-.045-.214.079-.333.211-.517.16-.222.165-.337.012-.651a4.915,4.915,0,0,0-.7-1.047c-.228-.228-.28-.179-.406-.134a2.308,2.308,0,0,0-.371.2,1.12,1.12,0,0,0-.446.471c-.089.191-.191.547.331,1.476A8.238,8.238,0,0,0,6.341,8.617h0l0,0,0,0h0a8.27,8.27,0,0,0,1.932,1.448c.929.522,1.285.42,1.476.331a1.1,1.1,0,0,0,.471-.446,2.308,2.308,0,0,0,.2-.371C10.466,9.456,10.517,9.4,10.287,9.176Z" transform="translate(22.025 6.269)"/></g></svg>