<svg xmlns="http://www.w3.org/2000/svg" xmlns:xlink="http://www.w3.org/1999/xlink" width="22.7" height="25" viewBox="0 0 22.7 25"><defs><style>.a{fill:#141414;}.b{clip-path:url(#a);}</style><clipPath id="a"><rect class="a" width="22.7" height="25"/></clipPath></defs><g class="b"><path class="a" d="M4.414,0H18.286A1.266,1.266,0,0,1,19.3.5L22.7,5V23.75A1.254,1.254,0,0,1,21.439,25H1.261A1.255,1.255,0,0,1,0,23.75V5L3.405.5A1.264,1.264,0,0,1,4.414,0M20.178,7.5H2.522v15H20.178ZM19.548,5,17.656,2.5H5.045L3.153,5ZM7.567,10v2.5a3.784,3.784,0,0,0,7.567,0V10h2.522v2.5a6.306,6.306,0,0,1-12.611,0V10Z"/></g></svg>