<svg xmlns="http://www.w3.org/2000/svg" xmlns:xlink="http://www.w3.org/1999/xlink" width="43.598" height="43.597" viewBox="0 0 43.598 43.597"><defs><style>.a{fill:#fff;}.b{filter:url(#a);}</style><filter id="a" x="0" y="0" width="43.598" height="43.597" filterUnits="userSpaceOnUse"><feOffset dy="3" input="SourceAlpha"/><feGaussianBlur stdDeviation="3" result="b"/><feFlood flood-opacity="0.161"/><feComposite operator="in" in2="b"/><feComposite in="SourceGraphic"/></filter></defs><g transform="translate(9 6)"><g class="b" transform="matrix(1, 0, 0, 1, -9, -6)"><rect class="a" width="25.598" height="25.598" rx="3" transform="translate(34.6 6) rotate(90)"/></g><g transform="translate(9.196 6.159)"><path d="M16.965,13.76l.374-2.437H15V9.744a1.216,1.216,0,0,1,1.377-1.313h1.06V6.357a12.72,12.72,0,0,0-1.884-.167,2.965,2.965,0,0,0-3.18,3.278v1.855H10.23V13.76H12.4v5.709h2.627V13.76Z" transform="translate(-10.23 -6.19)"/></g></g></svg>