<svg xmlns="http://www.w3.org/2000/svg" xmlns:xlink="http://www.w3.org/1999/xlink" width="52" height="60" viewBox="0 0 52 60"><defs><style>.a{fill:url(#a);}</style><linearGradient id="a" y1="0.136" x2="1" y2="0.864" gradientUnits="objectBoundingBox"><stop offset="0" stop-color="#bed42e"/><stop offset="1" stop-color="#2d68c4"/></linearGradient></defs><g transform="translate(-1144 -820.03)"><path class="a" d="M50.98,18.653l-1.264-6.268-3.519,1.4c-3.087,1.226-6.38,2.375-9.809,3.423A47.026,47.026,0,0,0,29.571,5.1L25.684,0,23.129,2.779A137.853,137.853,0,0,1,9.082,15.94,25.027,25.027,0,0,0,.617,29.689a24.5,24.5,0,0,0,1.9,16.29L9.352,60h7.474A45.974,45.974,0,0,0,34,57.045a28.089,28.089,0,0,0,11.344-8.12c6.084-7.365,8.085-18.115,5.634-30.271m-6.031-.624a85.817,85.817,0,0,1-8.7,13.794A110.529,110.529,0,0,1,23.97,45.263,118.357,118.357,0,0,1,12.235,54.9V43.769a21.087,21.087,0,0,1,4.666-13.3,21.7,21.7,0,0,1,11.726-7.491c1.865-.457,3.7-.938,5.472-1.435l0,.009,1.619-.474.046-.013h0c3.178-.93,6.254-1.948,9.182-3.035M4.074,30.457a21.5,21.5,0,0,1,7.27-11.81A142.045,142.045,0,0,0,25.429,5.492l1.317,1.727A43.707,43.707,0,0,1,32.981,18.2c-1.687.471-3.43.928-5.2,1.362a25.268,25.268,0,0,0-13.653,8.719A24.552,24.552,0,0,0,8.692,43.769v6.8L5.708,44.448a21.042,21.042,0,0,1-1.635-13.99M42.606,46.7a24.59,24.59,0,0,1-9.937,7.092,42.462,42.462,0,0,1-15.843,2.7h-.773a123.641,123.641,0,0,0,10.282-8.6,114.142,114.142,0,0,0,12.7-13.888A89.988,89.988,0,0,0,47.71,20.409c1.92,10.658.122,19.962-5.1,26.287" transform="translate(1144 820.03)"/></g></svg>