<svg xmlns="http://www.w3.org/2000/svg" width="26.085" height="25.839" viewBox="0 0 26.085 25.839"><g transform="translate(-3.187 -73.836)"><path d="M87.959,81.079s0-.006,0-.009a.463.463,0,0,0-.177-.223l0,0-.009-.006a.428.428,0,0,1-.038-.023h0l-1.217-.672-3.022-1.666-3.651-2.014L76.69,74.728c-.5-.278-1-.574-1.51-.832-.255-.13-.429-.023-.638.09l-.777.429-2.86,1.576L67.273,78,63.992,79.8q-.9.5-1.794.988c-.029.014-.055.029-.084.046a.434.434,0,0,0-.214.377v2.463a.442.442,0,0,0,.435.435h2.173V96.942c0,.33-.006.664-.006.994H63.9c-.313,0-.626,0-.942,0h-.038a.869.869,0,0,0,0,1.739H85.992c.313,0,.626,0,.942,0h.041a.869.869,0,0,0,0-1.739H85.38V85.542c0-.475.012-.953.006-1.431h1.142c.327,0,.655.006.982,0h.041a.442.442,0,0,0,.435-.435V81.213A.435.435,0,0,0,87.959,81.079ZM72.914,96.942c0,.33-.006.664-.006.994H68.568V85.542c0-.475.012-.953.006-1.431h4.341Zm3.779-17.465h0a1.753,1.753,0,1,1,0-.058v.058Zm4.625,17.465c0,.33-.006.664-.006.994H76.971V85.542c0-.475.012-.953.006-1.431h4.341Z" transform="translate(-58.713)"/></g></svg>