<svg xmlns="http://www.w3.org/2000/svg" width="27.839" height="25.839" viewBox="0 0 27.839 25.839"><g transform="translate(-2 -4.011)"><g transform="translate(2 4.011)"><path d="M22.132,7H20.82a4.693,4.693,0,0,1,.1.994,4.971,4.971,0,1,1-9.942,0,4.693,4.693,0,0,1,.1-.994H9.764A2.883,2.883,0,0,0,7,9.983v18.89a.994.994,0,0,0,.994.994h4.971v-6.96a1.988,1.988,0,0,1,1.988-1.988h1.988a1.988,1.988,0,0,1,1.988,1.988v6.96H23.9a.994.994,0,0,0,.994-.994V9.983A2.883,2.883,0,0,0,22.132,7Z" transform="translate(-2.029 -4.029)"/><path d="M5.977,14H4.983A2.983,2.983,0,0,0,2,16.983V27.919a1.988,1.988,0,0,0,1.988,1.988H6.245a1.988,1.988,0,0,1-.268-.994Z" transform="translate(-2 -4.069)"/><path d="M26.993,14H26V28.913a1.988,1.988,0,0,1-.268.994h2.257a1.988,1.988,0,0,0,1.988-1.988V16.983A2.983,2.983,0,0,0,26.993,14Z" transform="translate(-2.137 -4.069)"/><path d="M15.977,11.954a3.977,3.977,0,0,0,3.977-3.977,3.639,3.639,0,0,0-.129-.994,3.977,3.977,0,0,0-7.7,0A3.639,3.639,0,0,0,12,7.977,3.977,3.977,0,0,0,15.977,11.954ZM13.988,6.983h.994V5.989a.994.994,0,1,1,1.988,0v.994h.994a.994.994,0,0,1,0,1.988h-.994v.994a.994.994,0,1,1-1.988,0V8.971h-.994a.994.994,0,0,1,0-1.988Z" transform="translate(-2.058 -4.011)"/></g></g></svg>