<svg xmlns="http://www.w3.org/2000/svg" xmlns:xlink="http://www.w3.org/1999/xlink" width="60" height="50.88" viewBox="0 0 60 50.88"><defs><style>.a{fill:url(#a);}.b{fill:rgba(230,226,235,0);stroke:#3172b4;stroke-width:3px;}.c{stroke:none;}.d{fill:none;}</style><linearGradient id="a" x1="0.013" x2="0.987" y2="1" gradientUnits="objectBoundingBox"><stop offset="0" stop-color="#bed42e"/><stop offset="1" stop-color="#2d68c4"/></linearGradient></defs><g transform="translate(-541 -829.15)"><rect class="a" width="3.516" height="3.551" transform="translate(554.75 851.23)"/><path class="a" d="M53.8,24.113a19.347,19.347,0,0,0-9.55-15.1c0-.1.007-.195.007-.293a8.623,8.623,0,0,0-16.97-2.26H24A7.085,7.085,0,0,0,22.14,3.287a6.957,6.957,0,0,0-4.916-2.024H11.992V9.723a19.4,19.4,0,0,0-6.849,8.238L0,19.35V32.175l5.142,1.388a19.358,19.358,0,0,0,7.123,8.42V49H22.852l1.1-3.934H33.43L34.535,49H45.121V41.984a19.4,19.4,0,0,0,8.645-14.221,4.014,4.014,0,0,1,.937.474,4.1,4.1,0,0,1,1.781,3.382H60a7.622,7.622,0,0,0-6.2-7.506m-12.2,15.845v5.492H37.192l-1.1-3.934H21.3l-1.1,3.934H15.781V39.957l-.885-.511a15.787,15.787,0,0,1-6.823-8.011l-.322-.842L3.516,29.449V22.076l4.236-1.144.322-.842a15.818,15.818,0,0,1,6.577-7.866l.857-.517V4.813h1.716a3.555,3.555,0,0,1,3.516,3.466l.042,1.746,1.729-.014h4.577a8.721,8.721,0,0,0,1.59,3.876H26.25v3.551h9.375a8.633,8.633,0,0,0,7.718-4.82,15.831,15.831,0,0,1-.853,26.828ZM40.742,8.719a5.117,5.117,0,1,1-5.117-5.168,5.149,5.149,0,0,1,5.117,5.168" transform="translate(541 831.03)"/><g class="b" transform="translate(588 829.15)"><rect class="c" width="11" height="10.99" rx="5.495"/><rect class="d" x="1.5" y="1.5" width="8" height="7.99" rx="3.995"/></g></g></svg>