<svg xmlns="http://www.w3.org/2000/svg" width="14.84" height="15.546" viewBox="0 0 14.84 15.546"><g transform="translate(0 0)"><g transform="translate(0 0)"><path d="M18.859,6a3.978,3.978,0,0,0-3.98,3.964s0,0,0,.006a5.66,5.66,0,0,0,1.38,3.2c.748.985,1.652,1.894,2.33,2.683a.353.353,0,0,0,.536,0c.678-.789,1.585-1.7,2.335-2.683a5.649,5.649,0,0,0,1.38-3.2s0,0,0-.006A3.978,3.978,0,0,0,18.859,6Zm0,.707a3.261,3.261,0,0,1,3.274,3.252s0,0,0,.006A5.079,5.079,0,0,1,20.9,12.741c-.628.825-1.381,1.617-2.037,2.357-.656-.741-1.41-1.532-2.037-2.357a5.088,5.088,0,0,1-1.237-2.777V9.958A3.261,3.261,0,0,1,18.859,6.707Zm0,2.241a1.021,1.021,0,1,0,1.027,1.021A1.02,1.02,0,0,0,18.859,8.948Zm-6.415.017a.353.353,0,0,0-.1.017L8.248,10.245A.353.353,0,0,0,8,10.582V21.193a.353.353,0,0,0,.458.337L12.444,20.3,16.43,21.53a.353.353,0,0,0,.21,0l4.091-1.264a.353.353,0,0,0,.248-.337V16.158a.353.353,0,1,0-.707,0v3.511l-3.384,1.038V14.822a.353.353,0,1,0-.707,0v5.885L12.8,19.669V10.847a.353.353,0,1,0-.707,0v8.822L8.707,20.707V10.842l3.738-1.154,1.358.42a.353.353,0,1,0,.21-.674l-1.463-.453A.353.353,0,0,0,12.444,8.965Z" transform="translate(-8 -6)"/></g></g></svg>