<svg xmlns="http://www.w3.org/2000/svg" width="14.839" height="14.974" viewBox="0 0 14.839 14.974"><path d="M14.242,12.285A3.642,3.642,0,1,0,10.6,8.642,3.627,3.627,0,0,0,14.242,12.285Zm0-5.936a2.293,2.293,0,1,1-2.293,2.293A2.274,2.274,0,0,1,14.242,6.349Z" transform="translate(-6.823 -5)"/><path d="M13.9,17.4H10.936A5.944,5.944,0,0,0,5,23.336a.637.637,0,0,0,.674.674.637.637,0,0,0,.674-.674,4.591,4.591,0,0,1,4.587-4.587H13.9a4.591,4.591,0,0,1,4.587,4.587.674.674,0,1,0,1.349,0A5.988,5.988,0,0,0,13.9,17.4Z" transform="translate(-5 -9.036)"/></svg>