<svg xmlns="http://www.w3.org/2000/svg" width="14.84" height="12.252" viewBox="0 0 14.84 12.252"><g transform="translate(0 0)"><g transform="translate(0 0)"><g transform="translate(0 0)"><path d="M4.782,17.5a.309.309,0,0,1-.226-.1.9.9,0,0,1-.178-.277L2.065,11.392a.935.935,0,0,1,.513-1.209l9.749-3.93a.925.925,0,0,1,1.206.511l1.543,3.827a.309.309,0,0,1-.287.425H5.4a.309.309,0,0,0-.309.309v5.865a.309.309,0,0,1-.2.287A.3.3,0,0,1,4.782,17.5ZM12.675,6.8a.3.3,0,0,0-.115.023l-9.75,3.93a.31.31,0,0,0-.172.405l1.834,4.545V11.326A.928.928,0,0,1,5.4,10.4h8.931L12.96,7a.31.31,0,0,0-.285-.193Z" transform="translate(-1.999 -6.185)"/></g><g transform="translate(2.474 4.214)"><g transform="translate(0)"><path d="M21.439,27.853H10.928A.928.928,0,0,1,10,26.926V20.742a.928.928,0,0,1,.927-.927H21.439a.928.928,0,0,1,.927.927v6.183A.928.928,0,0,1,21.439,27.853Zm-10.511-7.42a.309.309,0,0,0-.309.309v6.183a.306.306,0,0,0,.309.309H21.439a.309.309,0,0,0,.309-.309V20.742a.309.309,0,0,0-.309-.309Z" transform="translate(-10.001 -19.815)"/></g></g><g transform="translate(9.274 5.451)"><path d="M33.232,26.291a1.237,1.237,0,1,1,1.237-1.237A1.238,1.238,0,0,1,33.232,26.291Zm0-1.855a.618.618,0,1,0,.618.618A.619.619,0,0,0,33.232,24.436Z" transform="translate(-31.996 -23.818)"/></g><g transform="translate(10.974 5.451)"><path d="M38.578,26.291a1.235,1.235,0,0,1-1.03-.554.309.309,0,0,1,0-.342.615.615,0,0,0,0-.681.309.309,0,0,1,0-.342,1.236,1.236,0,1,1,1.031,1.919Zm-.4-.767a.618.618,0,1,0,0-.938,1.234,1.234,0,0,1,0,.938Z" transform="translate(-37.496 -23.818)"/></g><g transform="translate(4.019 8.842)"><path d="M19.638,35.4H15.31a.309.309,0,1,1,0-.618h4.328a.309.309,0,1,1,0,.618Z" transform="translate(-15.001 -34.786)"/></g><g transform="translate(4.019 10.388)"><path d="M23.966,40.4H15.31a.309.309,0,1,1,0-.618h8.656a.309.309,0,1,1,0,.618Z" transform="translate(-15.001 -39.786)"/></g></g></g></svg>