<svg xmlns="http://www.w3.org/2000/svg" width="16.119" height="10.258" viewBox="0 0 16.119 10.258"><g transform="translate(0 0)"><g transform="translate(0 0)"><path d="M18.288,20H5.832A1.834,1.834,0,0,0,4,21.832v6.594a1.834,1.834,0,0,0,1.832,1.832H18.288a1.834,1.834,0,0,0,1.832-1.832V21.832A1.834,1.834,0,0,0,18.288,20Zm1.1,8.426a1.1,1.1,0,0,1-1.1,1.1H7.663v-.366a.366.366,0,1,0-.733,0v.366h-1.1a1.1,1.1,0,0,1-1.1-1.1V21.832a1.1,1.1,0,0,1,1.1-1.1h1.1V21.1a.366.366,0,1,0,.733,0v-.366H18.288a1.1,1.1,0,0,1,1.1,1.1Z" transform="translate(-4 -20)"/><path d="M20.366,32a.366.366,0,0,0-.366.366V33.1a.366.366,0,1,0,.733,0v-.733A.366.366,0,0,0,20.366,32Z" transform="translate(-17.069 -29.802)"/><path d="M20.366,44a.366.366,0,0,0-.366.366V45.1a.366.366,0,1,0,.733,0v-.733A.366.366,0,0,0,20.366,44Z" transform="translate(-17.069 -39.604)"/><path d="M20.366,56a.366.366,0,0,0-.366.366V57.1a.366.366,0,1,0,.733,0v-.733A.366.366,0,0,0,20.366,56Z" transform="translate(-17.069 -49.406)"/><path d="M45.1,36.2A1.1,1.1,0,1,0,44,35.1,1.1,1.1,0,0,0,45.1,36.2Zm0-1.465a.366.366,0,1,1-.366.366A.366.366,0,0,1,45.1,34.733Z" transform="translate(-36.673 -31.436)"/><path d="M48.5,34.107l-4.4,4.4a.366.366,0,1,0,.518.518l4.4-4.4a.366.366,0,1,0-.518-.518Z" transform="translate(-36.673 -31.436)"/><path d="M61.1,50a1.1,1.1,0,1,0,1.1,1.1A1.1,1.1,0,0,0,61.1,50Zm0,1.465a.366.366,0,1,1,.366-.366A.366.366,0,0,1,61.1,51.465Z" transform="translate(-49.742 -44.505)"/></g></g></svg>