<svg xmlns="http://www.w3.org/2000/svg" width="14.84" height="13.904" viewBox="0 0 14.84 13.904"><defs><style>.a{fill-rule:evenodd;}</style></defs><g transform="translate(-897.282 -397.955)"><g transform="translate(897.282 397.955)"><g transform="translate(0 0)"><g transform="translate(0 0)"><g transform="translate(0 0)"><g transform="translate(0 0)"><path class="a" d="M7.267,14.6a.369.369,0,0,0,.506,0c.3-.318.725-.735,1.214-1.237,2.361-2.34,5.953-5.866,5.953-8.406A4.191,4.191,0,0,0,10.741.8C9.493.8,8.289,1.9,7.52,3.089A4.235,4.235,0,0,0,4.3.8,4.191,4.191,0,0,0,.1,4.961c0,2.54,3.575,6.066,5.953,8.406C6.542,13.852,6.98,14.27,7.267,14.6ZM7.233,3.842a.348.348,0,0,0,.573,0c.658-.986,1.754-2.373,2.934-2.373a3.518,3.518,0,0,1,3.524,3.493c0,2.256-3.592,5.816-5.75,7.938-.371.368-.725.7-.995.986-.27-.284-.624-.618-.995-.986C4.366,10.777.775,7.217.775,4.961A3.518,3.518,0,0,1,4.3,1.468C5.479,1.468,6.576,2.856,7.233,3.842Z" transform="translate(-0.1 -0.8)"/></g></g></g></g></g><g transform="translate(902.212 402.416)"><path d="M13.039,12.009h-1.03v1.03h-.5v-1.03h-1.03v-.5h1.03v-1.03h.5v1.03h1.03Z" transform="translate(-9.267 -9.267)"/><path d="M5.866,3.878A1.987,1.987,0,1,1,4.46,4.46a1.979,1.979,0,0,1,1.406-.582m0-.5A2.491,2.491,0,1,0,8.356,5.866,2.49,2.49,0,0,0,5.866,3.375Z" transform="translate(-3.375 -3.375)"/></g></g></svg>