<svg xmlns="http://www.w3.org/2000/svg" width="40.4" height="40.44" viewBox="0 0 40.4 40.44"><defs><style>.a{fill:#2fcdef;}.b{fill:#314358;}.c{fill:#fff;}</style></defs><g transform="translate(-1176.72 -4695.328)"><ellipse class="a" cx="20.2" cy="20.22" rx="20.2" ry="20.22" transform="translate(1176.72 4695.328)"/><g transform="translate(0 -164.611)"><g transform="translate(1188.296 4872)"><path class="b" d="M12.867,12.78a4.406,4.406,0,0,1-1.4.276,1.457,1.457,0,0,1-1.675-1.577V6.5h3.494V4.076H9.8V0H7.253a.133.133,0,0,0-.125.119A4.927,4.927,0,0,1,3.7,4.432V6.5H5.465v5.228c0,1.79,1.436,4.333,5.226,4.273a4.886,4.886,0,0,0,3.013-.937Z"/></g><path class="c" d="M1193.76,4883.727V4878.5H1192v-2.067a4.927,4.927,0,0,0,3.424-4.312.132.132,0,0,1,.125-.119h2.548v4.075h3.482v2.423h-3.494v4.982a1.456,1.456,0,0,0,1.674,1.576,4.383,4.383,0,0,0,1.4-.276l.838,2.282a4.9,4.9,0,0,1-3.014.938h-.131C1195.164,4888,1193.76,4885.5,1193.76,4883.727Z"/></g></g></svg>