<svg xmlns="http://www.w3.org/2000/svg" xmlns:xlink="http://www.w3.org/1999/xlink" width="43.598" height="43.597" viewBox="0 0 43.598 43.597"><defs><style>.a{fill:#fff;}.b{filter:url(#a);}</style><filter id="a" x="0" y="0" width="43.598" height="43.597" filterUnits="userSpaceOnUse"><feOffset dy="3" input="SourceAlpha"/><feGaussianBlur stdDeviation="3" result="b"/><feFlood flood-opacity="0.161"/><feComposite operator="in" in2="b"/><feComposite in="SourceGraphic"/></filter></defs><g transform="translate(9 6)"><g class="b" transform="matrix(1, 0, 0, 1, -9, -6)"><rect class="a" width="25.598" height="25.598" rx="3" transform="translate(34.6 6) rotate(90)"/></g><path d="M107.313,9.416a5.542,5.542,0,0,1-1.409.4c.228,0,.56-.446.692-.613a2.626,2.626,0,0,0,.473-.875V8.26c0-.018,0,0-.07,0a7.581,7.581,0,0,1-1.672.639.123.123,0,0,1-.123,0,1.127,1.127,0,0,0-.14-.149,3.134,3.134,0,0,0-.814-.5,2.749,2.749,0,0,0-1.243-.193,2.95,2.95,0,0,0-1.182.333,3.012,3.012,0,0,0-.954.77,2.915,2.915,0,0,0-.6,2.346c0,.061,0,.07-.052.061a8.921,8.921,0,0,1-5.752-2.924c-.07-.079-.105-.079-.166,0a2.924,2.924,0,0,0,.5,3.44,3.083,3.083,0,0,0,.359.315,2.889,2.889,0,0,1-1.112-.315c-.07-.044-.105,0-.105.061a1.465,1.465,0,0,0,0,.333,2.933,2.933,0,0,0,1.812,2.346,1.48,1.48,0,0,0,.368.114,3.073,3.073,0,0,1-1.086,0c-.079,0-.105,0-.079.1a3.073,3.073,0,0,0,2.285,1.917h.315a3.668,3.668,0,0,1-1.567.875,5.6,5.6,0,0,1-2.372.3h-.184c-.035,0,0,.053,0,.088a3.069,3.069,0,0,0,.49.3,7.879,7.879,0,0,0,1.593.63,8.43,8.43,0,0,0,8.194-1.917,8.606,8.606,0,0,0,2.267-6.277c0-.088.114-.14.175-.184A5.612,5.612,0,0,0,107.27,9.6a.324.324,0,0,0,.079-.219h0S107.375,9.389,107.313,9.416Z" transform="translate(-87.441 -1.003)"/></g></svg>