<svg xmlns="http://www.w3.org/2000/svg" width="34.614" height="14.85" viewBox="0 0 34.614 14.85"><defs><style>.a{fill:#007dc3;}</style></defs><path class="a" d="M44.279,37.893H41.737v-.268A4.33,4.33,0,0,0,37.411,33.3h-17.7a4.33,4.33,0,0,0-4.326,4.326v.268H12.616A1.5,1.5,0,0,0,11.1,39.409V42.62a1.5,1.5,0,0,0,1.516,1.516h2.765a4.293,4.293,0,0,0,4.281,4.014h.892l.134-.223a3.342,3.342,0,0,1,2.72-1.427H33.62a3.342,3.342,0,0,1,2.72,1.427l.134.223h.892a4.293,4.293,0,0,0,4.281-4.014h2.542a1.5,1.5,0,0,0,1.516-1.516V39.409A1.381,1.381,0,0,0,44.279,37.893Zm-3.568,5.976a3.293,3.293,0,0,1-3.3,3.3h-.357a4.183,4.183,0,0,0-3.389-1.65H23.453a4.312,4.312,0,0,0-3.389,1.65h-.357a3.351,3.351,0,0,1-3.3-3.3V37.626a3.293,3.293,0,0,1,3.3-3.3H37.456a3.293,3.293,0,0,1,3.3,3.3v6.243Z" transform="translate(-11.1 -33.3)"/></svg>