<svg xmlns="http://www.w3.org/2000/svg" width="63.891" height="63.889" viewBox="0 0 63.891 63.889"><defs><style>.a{fill:#6b26c8;}</style></defs><path class="a" d="M796.821,159.054a2.046,2.046,0,0,1,2.952.358l1.778,2.4,2.68-1.3a2.046,2.046,0,0,1,2.779,1.053l1.158,2.77,2.914-.612a2.047,2.047,0,0,1,2.443,1.685l.467,2.976,2.982.108a2.047,2.047,0,0,1,1.965,2.217l-.254,3.01,2.877.826a2.046,2.046,0,0,1,1.375,2.619l-.964,2.867,2.6,1.5a2.046,2.046,0,0,1,.707,2.869l-1.618,2.553,2.176,2.087a2.046,2.046,0,0,1,0,2.953l-2.176,2.087,1.618,2.553a2.047,2.047,0,0,1-.707,2.869l-2.6,1.5.964,2.867a2.047,2.047,0,0,1-1.375,2.619l-2.877.826.254,3.01a2.046,2.046,0,0,1-1.965,2.217l-2.982.108-.467,2.976a2.046,2.046,0,0,1-2.443,1.685l-2.914-.612-1.158,2.77a2.046,2.046,0,0,1-2.779,1.053l-2.68-1.3-1.778,2.4a2.047,2.047,0,0,1-2.952.358l-2.295-1.9-2.295,1.9a2.046,2.046,0,0,1-2.952-.358l-1.778-2.4-2.68,1.3a2.046,2.046,0,0,1-2.779-1.053l-1.158-2.77-2.914.612a2.046,2.046,0,0,1-2.443-1.685l-.467-2.976-2.981-.108a2.046,2.046,0,0,1-1.965-2.217l.254-3.01-2.877-.826a2.046,2.046,0,0,1-1.375-2.619l.964-2.867-2.6-1.5a2.047,2.047,0,0,1-.707-2.869l1.618-2.553L763.211,192a2.047,2.047,0,0,1,0-2.953l2.176-2.087-1.618-2.553a2.046,2.046,0,0,1,.707-2.869l2.6-1.5-.964-2.867a2.046,2.046,0,0,1,1.375-2.619l2.877-.826-.254-3.01a2.047,2.047,0,0,1,1.965-2.217l2.981-.108.467-2.976a2.047,2.047,0,0,1,2.443-1.685l2.914.612,1.158-2.77a2.046,2.046,0,0,1,2.779-1.053l2.68,1.3,1.778-2.4a2.046,2.046,0,0,1,2.952-.358l2.295,1.9Z" transform="translate(-762.581 -158.582)"/></svg>