<svg xmlns="http://www.w3.org/2000/svg" width="45.53" height="37.59" viewBox="0 0 45.53 37.59"><g transform="translate(0 0)"><path d="M10.537,40.9a.947.947,0,0,1-.692-.3A2.763,2.763,0,0,1,9.3,39.75L2.2,22.162a2.867,2.867,0,0,1,1.575-3.708L33.687,6.4a2.839,2.839,0,0,1,3.7,1.569l4.733,11.742a.949.949,0,0,1-.88,1.3H12.434a.949.949,0,0,0-.949.949V39.953a.948.948,0,0,1-.6.882A.934.934,0,0,1,10.537,40.9ZM34.754,8.083a.926.926,0,0,0-.352.07L4.49,20.212a.951.951,0,0,0-.527,1.244L9.589,35.4V21.959a2.849,2.849,0,0,1,2.846-2.846h27.4L35.628,8.674a.95.95,0,0,0-.874-.591Z" transform="translate(-1.999 -6.185)"/></g><g transform="translate(7.589 12.928)"><g transform="translate(0)"><path d="M45.1,44.477H12.846A2.849,2.849,0,0,1,10,41.631V22.661a2.849,2.849,0,0,1,2.846-2.846H45.1a2.849,2.849,0,0,1,2.846,2.846V41.631A2.849,2.849,0,0,1,45.1,44.477ZM12.846,21.712a.949.949,0,0,0-.949.949V41.631a.939.939,0,0,0,.949.949H45.1a.949.949,0,0,0,.949-.949V22.661a.949.949,0,0,0-.949-.949Z" transform="translate(-10.001 -19.815)"/></g></g><g transform="translate(28.452 16.725)"><path d="M35.79,31.406a3.794,3.794,0,1,1,3.794-3.794A3.8,3.8,0,0,1,35.79,31.406Zm0-5.691a1.9,1.9,0,1,0,1.9,1.9A1.9,1.9,0,0,0,35.79,25.715Z" transform="translate(-31.996 -23.818)"/></g><g transform="translate(33.669 16.725)"><path d="M40.816,31.406a3.788,3.788,0,0,1-3.161-1.7.947.947,0,0,1,0-1.049,1.888,1.888,0,0,0,0-2.091.948.948,0,0,1,0-1.049,3.793,3.793,0,1,1,3.162,5.888Zm-1.233-2.355a1.9,1.9,0,1,0,0-2.879,3.785,3.785,0,0,1,0,2.879Z" transform="translate(-37.496 -23.818)"/></g><g transform="translate(12.332 27.128)"><path d="M29.228,36.683H15.949a.949.949,0,1,1,0-1.9H29.228a.949.949,0,0,1,0,1.9Z" transform="translate(-15.001 -34.786)"/></g><g transform="translate(12.332 31.871)"><path d="M42.508,41.683H15.949a.949.949,0,1,1,0-1.9H42.508a.949.949,0,1,1,0,1.9Z" transform="translate(-15.001 -39.786)"/></g></svg>