<svg xmlns="http://www.w3.org/2000/svg" width="46.875" height="29.829" viewBox="0 0 46.875 29.829"><path d="M45.548,20H9.327A5.333,5.333,0,0,0,4,25.327V44.5a5.333,5.333,0,0,0,5.327,5.327H45.548A5.333,5.333,0,0,0,50.875,44.5V25.327A5.333,5.333,0,0,0,45.548,20Zm3.2,24.5a3.2,3.2,0,0,1-3.2,3.2H14.653V46.633a1.065,1.065,0,1,0-2.131,0V47.7h-3.2a3.2,3.2,0,0,1-3.2-3.2V25.327a3.2,3.2,0,0,1,3.2-3.2h3.2V23.2a1.065,1.065,0,1,0,2.131,0V22.131H45.548a3.2,3.2,0,0,1,3.2,3.2Z" transform="translate(-4 -20)"/><path d="M21.065,32A1.065,1.065,0,0,0,20,33.065V35.2a1.065,1.065,0,0,0,2.131,0V33.065A1.065,1.065,0,0,0,21.065,32Z" transform="translate(-11.477 -25.608)"/><path d="M21.065,44A1.065,1.065,0,0,0,20,45.065V47.2a1.065,1.065,0,1,0,2.131,0V45.065A1.065,1.065,0,0,0,21.065,44Z" transform="translate(-11.477 -31.216)"/><path d="M21.065,56A1.065,1.065,0,0,0,20,57.065V59.2a1.065,1.065,0,0,0,2.131,0V57.065A1.065,1.065,0,0,0,21.065,56Z" transform="translate(-11.477 -36.824)"/><path d="M47.2,40.392A3.2,3.2,0,1,0,44,37.2,3.2,3.2,0,0,0,47.2,40.392Zm0-4.261A1.065,1.065,0,1,1,46.131,37.2,1.065,1.065,0,0,1,47.2,36.131Z" transform="translate(-22.693 -26.543)"/><path d="M57.1,34.312,44.312,47.1A1.065,1.065,0,1,0,45.819,48.6L58.6,35.819A1.065,1.065,0,1,0,57.1,34.312Z" transform="translate(-22.693 -26.543)"/><path d="M63.2,50a3.2,3.2,0,1,0,3.2,3.2A3.2,3.2,0,0,0,63.2,50Zm0,4.261A1.065,1.065,0,1,1,64.261,53.2,1.065,1.065,0,0,1,63.2,54.261Z" transform="translate(-30.171 -34.02)"/></svg>