<svg xmlns="http://www.w3.org/2000/svg" width="39.672" height="41.704" viewBox="0 0 39.672 41.704"><g transform="translate(0 9.808)"><path d="M58.19,277.576c-.615-.326-1.23-.648-1.844-.974L51.9,274.255q-2.679-1.418-5.362-2.831-2.321-1.23-4.647-2.455c-.749-.393-1.489-.816-2.246-1.188a.182.182,0,0,1-.029-.017c.209.36.414.724.623,1.083V251.653c0-.79.021-1.585,0-2.376v-.033l-1.886,1.083c.615.326,1.23.648,1.844.974q2.221,1.173,4.446,2.35,2.679,1.418,5.362,2.831,2.321,1.23,4.647,2.455c.749.4,1.489.816,2.246,1.188a.184.184,0,0,1,.029.017c-.209-.36-.414-.724-.623-1.083v17.177c0,.79-.017,1.585,0,2.376v.033a1.255,1.255,0,1,0,2.509,0V261.469c0-.79.017-1.585,0-2.376v-.033a1.247,1.247,0,0,0-.623-1.083c-.615-.326-1.23-.648-1.844-.975q-2.221-1.173-4.446-2.35-2.679-1.418-5.362-2.831-2.321-1.23-4.647-2.455c-.749-.4-1.493-.8-2.246-1.188a.182.182,0,0,1-.029-.017,1.266,1.266,0,0,0-1.886,1.083v17.194c0,.79-.017,1.585,0,2.376v.033a1.247,1.247,0,0,0,.623,1.083c.615.326,1.23.648,1.844.974l4.446,2.346q2.679,1.418,5.362,2.831,2.321,1.23,4.647,2.455c.749.4,1.493.8,2.246,1.188a.177.177,0,0,1,.029.017,1.254,1.254,0,0,0,1.263-2.167Z" transform="translate(-37.722 -248.007)"/></g><g transform="translate(18.574 9.825)"><path d="M501.027,268.151c-.615.326-1.23.648-1.844.975l-4.446,2.346q-2.679,1.418-5.362,2.831-2.321,1.23-4.647,2.455c-.749.393-1.51.774-2.246,1.188l-.029.017,1.886,1.083V261.869c0-.79.021-1.585,0-2.376v-.033c-.209.36-.414.724-.623,1.083.615-.326,1.23-.648,1.844-.974q2.221-1.173,4.446-2.35,2.679-1.418,5.362-2.831,2.321-1.23,4.647-2.455c.749-.4,1.51-.774,2.246-1.188l.029-.017-1.886-1.083v17.194c0,.79-.017,1.585,0,2.376v.033a1.255,1.255,0,1,0,2.509,0V252.053c0-.79.017-1.585,0-2.376v-.033a1.267,1.267,0,0,0-1.886-1.083c-.615.326-1.23.648-1.844.974q-2.221,1.173-4.446,2.35-2.679,1.418-5.362,2.831-2.321,1.23-4.647,2.455c-.749.4-1.51.774-2.246,1.188l-.029.017a1.256,1.256,0,0,0-.623,1.083v17.177c0,.79-.017,1.585,0,2.376v.033a1.267,1.267,0,0,0,1.886,1.083c.615-.326,1.23-.648,1.844-.974l4.446-2.346q2.679-1.418,5.362-2.831,2.321-1.23,4.647-2.455c.749-.393,1.51-.774,2.246-1.188l.029-.017a1.254,1.254,0,1,0-1.263-2.167Z" transform="translate(-481.822 -248.407)"/></g><g transform="translate(0.015)"><path d="M75.839,23.455c-.615.326-1.23.648-1.844.974q-2.221,1.173-4.446,2.35Q66.87,28.2,64.187,29.611q-2.321,1.23-4.647,2.455c-.749.4-1.51.774-2.246,1.188l-.029.017h1.267c-.615-.326-1.23-.648-1.844-.974q-2.221-1.173-4.446-2.35-2.679-1.418-5.362-2.831-2.321-1.23-4.647-2.455c-.749-.4-1.489-.811-2.246-1.188a.182.182,0,0,1-.029-.017v2.166c.615-.326,1.23-.648,1.844-.974L46.248,22.3q2.679-1.418,5.362-2.831,2.321-1.23,4.647-2.455c.749-.4,1.51-.774,2.246-1.188l.029-.017H57.265c.615.326,1.23.648,1.844.974l4.446,2.346q2.679,1.418,5.362,2.831,2.321,1.23,4.647,2.455c.749.4,1.493.8,2.246,1.188a.182.182,0,0,1,.029.017A1.254,1.254,0,0,0,77.1,23.455l-1.865-.987q-2.227-1.179-4.458-2.355-2.691-1.418-5.379-2.84-2.315-1.223-4.634-2.447c-.74-.389-1.468-.8-2.217-1.171a1.377,1.377,0,0,0-1.317,0c-.084.042-.163.088-.243.13-.385.2-.77.406-1.15.611q-2.1,1.1-4.187,2.212l-5.37,2.836q-2.415,1.274-4.831,2.551c-.882.464-1.761.928-2.643,1.4a1.126,1.126,0,0,0-.121.067,1.265,1.265,0,0,0,0,2.166l1.865.987q2.227,1.179,4.458,2.355l5.379,2.844q2.315,1.223,4.634,2.447c.74.389,1.468.8,2.217,1.171a1.377,1.377,0,0,0,1.317,0c.084-.042.163-.088.243-.13.385-.2.77-.406,1.15-.611q2.1-1.1,4.187-2.212l5.37-2.836q2.415-1.28,4.831-2.555c.882-.464,1.761-.933,2.643-1.4a1.126,1.126,0,0,0,.121-.067,1.264,1.264,0,0,0,.452-1.715A1.284,1.284,0,0,0,75.839,23.455Z" transform="translate(-38.075 -13.487)"/></g><g transform="translate(9.298 4.911)"><path d="M261.917,143.041c.615-.326,1.23-.648,1.844-.974q2.221-1.173,4.446-2.351,2.679-1.418,5.362-2.831,2.321-1.23,4.647-2.455c.749-.4,1.51-.774,2.246-1.188l.029-.017a1.264,1.264,0,0,0,.452-1.715,1.285,1.285,0,0,0-1.715-.452c-.615.326-1.23.648-1.844.975q-2.221,1.173-4.446,2.35-2.679,1.418-5.362,2.831-2.321,1.23-4.647,2.455c-.749.4-1.51.774-2.246,1.188l-.029.017a1.264,1.264,0,0,0-.452,1.715,1.283,1.283,0,0,0,1.715.452Z" transform="translate(-260.032 -130.899)"/></g></svg>