<svg xmlns="http://www.w3.org/2000/svg" width="40.12" height="37.59" viewBox="0 0 40.12 37.59"><defs><style>.a{fill-rule:evenodd;}</style></defs><g transform="translate(-897.282 -397.955)"><g transform="translate(897.283 397.955)"><g transform="translate(0 0)"><g transform="translate(0 0)"><g transform="translate(0 0)"><path class="a" d="M19.476,38.119a1,1,0,0,0,1.368,0c.821-.858,1.96-1.988,3.283-3.343C30.509,28.451,40.22,18.917,40.22,12.05A11.332,11.332,0,0,0,28.868.8c-3.374,0-6.629,2.967-8.708,6.19C17.907,3.485,14.826.8,11.452.8A11.332,11.332,0,0,0,.1,12.05c0,6.867,9.665,16.4,16.094,22.726C17.516,36.086,18.7,37.216,19.476,38.119Zm-.091-29.1a.942.942,0,0,0,1.55,0c1.778-2.666,4.741-6.416,7.933-6.416A9.511,9.511,0,0,1,38.4,12.05c0,6.1-9.711,15.723-15.547,21.461-1,.994-1.96,1.9-2.69,2.666-.729-.768-1.687-1.672-2.69-2.666C11.635,27.773,1.924,18.149,1.924,12.05a9.511,9.511,0,0,1,9.529-9.443C14.644,2.607,17.607,6.357,19.385,9.023Z" transform="translate(-0.1 -0.8)"/></g></g></g></g><g transform="translate(910.609 410.016)"><path d="M17.4,14.62H14.62V17.4h-1.36V14.62H10.477v-1.36h2.784V10.477h1.36v2.784H17.4Z" transform="translate(-7.207 -7.207)"/><path d="M10.108,4.735a5.372,5.372,0,1,1-3.8,1.573,5.352,5.352,0,0,1,3.8-1.573m0-1.36a6.733,6.733,0,1,0,6.733,6.733,6.732,6.732,0,0,0-6.733-6.733Z" transform="translate(-3.375 -3.375)"/></g></g></svg>