<svg xmlns="http://www.w3.org/2000/svg" width="23" height="24" viewBox="0 0 23 24"><defs><style>.a,.c{fill:none;}.a{stroke:#000;stroke-width:0.5px;}.b{stroke:none;}</style></defs><g transform="translate(-0.225)"><g transform="translate(7.492 7.313)"><g transform="translate(0 0)"><path d="M10.9,11.632,7.151,7.879a.515.515,0,0,1,.728-.728L11.632,10.9l3.754-3.754a.515.515,0,0,1,.728.728L12.36,11.632l3.754,3.754a.515.515,0,0,1-.728.728L11.632,12.36,7.879,16.114a.515.515,0,0,1-.728-.728Z" transform="translate(-7 -7)"/></g></g><g class="a" transform="translate(0.225)"><ellipse class="b" cx="11.5" cy="12" rx="11.5" ry="12"/><ellipse class="c" cx="11.5" cy="12" rx="11.25" ry="11.75"/></g></g></svg>