<svg xmlns="http://www.w3.org/2000/svg" viewBox="0 0 14 12" width="14" height="12">
	<style>
		tspan { white-space:pre }
		.shp0 { fill: none;stroke: #888888;stroke-linecap:round;stroke-linejoin:round } 
	</style>
	<g id="Layer">
		<path id="Layer" class="shp0" d="M12.6 9.68C12.6 9.82 12.57 9.96 12.52 10.08C12.47 10.21 12.39 10.32 12.29 10.42C12.2 10.52 12.08 10.59 11.96 10.65C11.83 10.7 11.69 10.73 11.56 10.73L2.17 10.73C2.03 10.73 1.89 10.7 1.77 10.65C1.64 10.59 1.53 10.52 1.43 10.42C1.33 10.32 1.26 10.21 1.2 10.08C1.15 9.96 1.12 9.82 1.12 9.68L1.12 3.94C1.12 3.81 1.15 3.67 1.2 3.55C1.26 3.42 1.33 3.3 1.43 3.21C1.53 3.11 1.64 3.03 1.77 2.98C1.89 2.93 2.03 2.9 2.17 2.9L4.25 2.9L5.3 1.34L8.42 1.34L9.47 2.9L11.56 2.9C11.69 2.9 11.83 2.93 11.96 2.98C12.08 3.03 12.2 3.11 12.29 3.21C12.39 3.3 12.47 3.42 12.52 3.55C12.57 3.67 12.6 3.81 12.6 3.94L12.6 9.68Z" />
		<path id="Layer" class="shp0" d="M8.95 6.55C8.95 7.4 8.44 8.16 7.66 8.48C6.88 8.8 5.98 8.62 5.39 8.03C4.79 7.43 4.61 6.53 4.93 5.76C5.26 4.98 6.02 4.47 6.86 4.47C7.14 4.47 7.41 4.52 7.66 4.63C7.91 4.73 8.14 4.88 8.34 5.08C8.53 5.27 8.68 5.5 8.79 5.75C8.89 6.01 8.95 6.28 8.95 6.55L8.95 6.55Z" />
	</g>
</svg>