<svg xmlns="http://www.w3.org/2000/svg" viewBox="0 0 12 12" width="12" height="12">
	<style>
		tspan { white-space:pre }
		.shp0 { fill: none;stroke: #888888;stroke-linecap:round;stroke-linejoin:round } 
	</style>
	<g id="Layer">
		<path id="Layer" class="shp0" d="M2 1.34L9.48 1.34C9.62 1.34 9.76 1.37 9.88 1.42C10.01 1.47 10.13 1.55 10.23 1.65C10.33 1.75 10.41 1.87 10.46 2C10.52 2.13 10.54 2.27 10.54 2.41L10.54 9.88C10.54 10.02 10.52 10.16 10.46 10.29C10.41 10.42 10.33 10.54 10.23 10.64C10.13 10.73 10.01 10.81 9.88 10.87C9.76 10.92 9.62 10.95 9.48 10.95L2 10.95C1.86 10.95 1.72 10.92 1.59 10.87C1.46 10.81 1.35 10.73 1.25 10.63C1.15 10.54 1.07 10.42 1.01 10.29C0.96 10.16 0.93 10.02 0.93 9.88L0.93 2.41C0.93 2.27 0.96 2.13 1.02 2C1.07 1.87 1.15 1.75 1.25 1.65C1.35 1.55 1.46 1.47 1.59 1.42C1.72 1.37 1.86 1.34 2 1.34Z" />
		<path id="Layer" class="shp0" d="M4.67 4.27C4.67 4.6 4.47 4.89 4.18 5.01C3.88 5.14 3.53 5.07 3.3 4.84C3.07 4.61 3.01 4.27 3.13 3.97C3.25 3.67 3.55 3.47 3.87 3.47C3.97 3.47 4.08 3.49 4.18 3.53C4.27 3.57 4.36 3.63 4.43 3.71C4.51 3.78 4.57 3.87 4.61 3.97C4.65 4.06 4.67 4.17 4.67 4.27Z" />
		<path id="Layer" class="shp0" d="M10.54 7.74L7.87 5.07L2 10.95" />
	</g>
</svg>