<svg xmlns="http://www.w3.org/2000/svg" width="40.445" height="35.291" viewBox="0 0 40.445 35.291"><g transform="translate(-1269.562 -209.339)"><g transform="translate(1260.772 208.338)"><path d="M38.337,6.647,28.622,1.037a.266.266,0,0,0-.266,0L18.772,6.568,9.19,1.037a.266.266,0,0,0-.4.23V30.415a.267.267,0,0,0,.133.23l9.723,5.611a.266.266,0,0,0,.266,0l9.575-5.531,9.583,5.531a.266.266,0,0,0,.4-.23V6.878a.266.266,0,0,0-.133-.23ZM18.506,35.572,9.323,30.263V1.721l9.183,5.3Zm9.723-5.3-9.19,5.3V7.029l9.183-5.308Zm9.709,5.3-9.183-5.308V1.721l9.183,5.3Z" transform="translate(0)"/><path d="M20.2,13.806,13.76,10.09v6.435L20.2,20.242Z" transform="translate(-3.18 -5.816)"/><path d="M20.184,40.785,14.61,37.566a.27.27,0,0,0-.27.468l5.575,3.219a.27.27,0,1,0,.27-.468Z" transform="translate(-3.465 -23.374)"/><path d="M20.184,48.715,14.61,45.5a.27.27,0,1,0-.27.468l5.575,3.219a.27.27,0,1,0,.27-.468Z" transform="translate(-3.465 -28.448)"/><path d="M20.184,56.635,14.61,53.416a.27.27,0,0,0-.27.468L19.914,57.1a.27.27,0,1,0,.27-.468Z" transform="translate(-3.465 -33.516)"/><path d="M20.184,64.565,14.61,61.346a.27.27,0,1,0-.27.468l5.575,3.219a.27.27,0,1,0,.27-.468Z" transform="translate(-3.465 -38.591)"/><path d="M20.184,80.421,14.61,77.206a.27.27,0,1,0-.27.468l5.575,3.216a.27.27,0,1,0,.27-.468Z" transform="translate(-3.465 -48.739)"/><path d="M20.184,72.5,14.61,69.276a.27.27,0,1,0-.27.468l5.575,3.219a.27.27,0,1,0,.27-.468Z" transform="translate(-3.465 -43.665)"/><path d="M42.49,41.319a.266.266,0,0,0,.133-.036L48.2,38.064a.27.27,0,0,0-.27-.468L42.36,40.8a.27.27,0,0,0,.13.515Z" transform="translate(-21.381 -23.393)"/><path d="M42.529,49.209a.266.266,0,0,0,.133-.036l5.575-3.219a.27.27,0,0,0-.27-.468L42.4,48.709a.27.27,0,0,0,.137.5Z" transform="translate(-21.42 -28.442)"/><path d="M42.529,57.139a.266.266,0,0,0,.133-.036l5.575-3.219a.27.27,0,0,0-.27-.468L42.4,56.635a.27.27,0,0,0,.137.5Z" transform="translate(-21.42 -33.516)"/><path d="M42.529,65.069a.266.266,0,0,0,.133-.036l5.575-3.219a.27.27,0,0,0-.27-.468L42.4,64.565a.27.27,0,0,0,.137.5Z" transform="translate(-21.42 -38.591)"/><path d="M42.529,80.919a.266.266,0,0,0,.133-.036l5.575-3.219a.27.27,0,1,0-.27-.468L42.4,80.415a.27.27,0,0,0,.13.5Z" transform="translate(-21.419 -48.733)"/><path d="M42.529,73a.266.266,0,0,0,.133-.036l5.575-3.219a.27.27,0,0,0-.27-.468L42.4,72.5a.27.27,0,0,0,.137.5Z" transform="translate(-21.42 -43.665)"/><path d="M42.529,17a.266.266,0,0,0,.133-.036l5.575-3.219a.27.27,0,0,0-.27-.468L42.4,16.5a.27.27,0,0,0,.137.5Z" transform="translate(-21.42 -7.831)"/><path d="M42.529,24.929a.266.266,0,0,0,.133-.036l5.575-3.219a.27.27,0,0,0-.27-.468L42.4,24.425a.27.27,0,0,0,.137.5Z" transform="translate(-21.42 -12.906)"/><path d="M42.529,32.859a.266.266,0,0,0,.133-.036L48.244,29.6a.27.27,0,1,0-.27-.468L42.4,32.355a.27.27,0,0,0,.137.5Z" transform="translate(-21.42 -17.98)"/><path d="M75.1,64.565,69.53,61.346a.27.27,0,1,0-.27.468l5.582,3.219a.27.27,0,1,0,.27-.468Z" transform="translate(-38.607 -38.591)"/><path d="M75.1,80.421,69.53,77.206a.27.27,0,1,0-.27.468l5.582,3.216a.27.27,0,0,0,.27-.468Z" transform="translate(-38.607 -48.739)"/><path d="M75.1,72.5,69.53,69.276a.27.27,0,1,0-.27.468l5.582,3.219a.27.27,0,1,0,.27-.468Z" transform="translate(-38.607 -43.665)"/><path d="M74.415,13.9l-6.6-3.81V25.01l6.6,3.814Z" transform="translate(-37.766 -5.816)"/></g><g transform="translate(-77.785 217.178)"><g transform="translate(1377.028 13.041)"><path d="M21.241,15.512a.676.676,0,0,1-.676-.676V11H14.95a.671.671,0,0,0-.671.676V24.712a.671.671,0,0,0,.671.7h9.422a.671.671,0,0,0,.671-.676V15.512Zm1.469,5.26L20,23.454a.488.488,0,0,1-.676,0l-2.7-2.683A.449.449,0,0,1,16.94,20h1.829V17.784a.449.449,0,0,1,.449-.449h.9a.449.449,0,0,1,.449.449V20h1.829a.449.449,0,0,1,.316.77Z" transform="translate(-14.279 -11)"/><path d="M30.62,13.975,27.848,11.2a.693.693,0,0,0-.477-.194H27.2V14.6h3.591V14.43A.671.671,0,0,0,30.62,13.975Z" transform="translate(-20.039 -11.004)"/></g></g></g></svg>