<svg xmlns="http://www.w3.org/2000/svg" xmlns:xlink="http://www.w3.org/1999/xlink" width="40" height="35" viewBox="0 0 40 35"><defs><style>.a{fill:#586167;}.b{clip-path:url(#a);}</style><clipPath id="a"><rect class="a" width="40" height="35"/></clipPath></defs><g class="b"><path class="a" d="M38.75,0H1.25A1.25,1.25,0,0,0,0,1.25v27.5A1.25,1.25,0,0,0,1.25,30H15V27.5H2.5V3.85L19.219,17.225a1.249,1.249,0,0,0,1.562,0L37.5,3.85V12.5H40V1.25A1.25,1.25,0,0,0,38.75,0M20,14.649,4.814,2.5H35.187Z"/><path class="a" d="M39.633,19.116l-3.75-3.75a1.249,1.249,0,0,0-1.767,0l-12.5,12.5a1.253,1.253,0,0,0-.329.58l-1.25,5A1.25,1.25,0,0,0,21.25,35a1.266,1.266,0,0,0,.3-.037l5-1.25a1.248,1.248,0,0,0,.58-.329l12.5-12.5a1.249,1.249,0,0,0,0-1.767M25.611,31.371l-2.642.66.66-2.642L35,18.017,36.982,20Z"/></g></svg>