<svg xmlns="http://www.w3.org/2000/svg" xmlns:xlink="http://www.w3.org/1999/xlink" width="40" height="40" viewBox="0 0 40 40"><defs><style>.a{fill:#586167;}.b{clip-path:url(#a);}</style><clipPath id="a"><rect class="a" width="40" height="40"/></clipPath></defs><g class="b"><path class="a" d="M29.178,23.845l-.015.125c-3.665-1.827-4.048-2.07-4.522-1.36-.328.492-1.285,1.607-1.573,1.937s-.582.35-1.077.125A13.525,13.525,0,0,1,17.987,22.2a15.122,15.122,0,0,1-2.767-3.45c-.488-.843.533-.963,1.463-2.723a.916.916,0,0,0-.042-.873c-.125-.25-1.12-2.7-1.537-3.677-.4-.973-.812-.85-1.12-.85a2.48,2.48,0,0,0-2.28.573c-2.69,2.957-2.012,6.007.29,9.25,4.523,5.92,6.933,7.01,11.34,8.523a6.9,6.9,0,0,0,3.133.2c.957-.152,2.945-1.2,3.36-2.377a4.125,4.125,0,0,0,.3-2.375c-.123-.225-.45-.35-.95-.575"/><path class="a" d="M34.2,5.749C21.385-6.639.177,2.346.168,19.822A19.727,19.727,0,0,0,2.827,29.73L0,40l10.558-2.753C23.733,44.363,39.993,34.913,40,19.832A19.656,19.656,0,0,0,34.175,5.814Zm2.47,14.028A16.594,16.594,0,0,1,11.65,33.95l-.6-.357L4.8,35.218l1.675-6.075-.4-.625A16.53,16.53,0,0,1,31.822,8.127a16.313,16.313,0,0,1,4.848,11.65"/></g></svg>