<svg xmlns="http://www.w3.org/2000/svg" xmlns:xlink="http://www.w3.org/1999/xlink" width="72" height="71" viewBox="0 0 72 71"><defs><style>.a{fill:url(#a);}.b{fill:#fff;}</style><linearGradient id="a" x1="0.5" x2="0.5" y2="1" gradientUnits="objectBoundingBox"><stop offset="0" stop-color="#cddf38"/><stop offset="1" stop-color="#2d68c4"/></linearGradient></defs><g transform="translate(-684.001 -1865)"><g transform="translate(683.895 1864.513)"><ellipse class="a" cx="36" cy="35.5" rx="36" ry="35.5" transform="translate(0.106 0.487)"/></g><g transform="translate(704 1881.005)"><path class="b" d="M42.8,10.471c-10.455-1.087-13.507-7.109-13.633-7.4a1.151,1.151,0,0,0-2.091,0c-.042.084-3.053,6.315-13.633,7.4A1.138,1.138,0,0,0,12.4,11.6V22.013c0,12.044,14.595,19.7,15.18,19.989a1.241,1.241,0,0,0,1.087,0c.627-.335,15.18-7.945,15.18-19.989V11.642A1.21,1.21,0,0,0,42.8,10.471Zm-10.5,6.064L33.644,15.2a1.124,1.124,0,0,1,1.589,1.589l-1.338,1.338a1.111,1.111,0,0,1-1.589,0A1.087,1.087,0,0,1,32.306,16.535Zm-5.311-3.178a1.129,1.129,0,1,1,2.258,0v1.882a1.129,1.129,0,0,1-2.258,0Zm-5.98,1.84a1.087,1.087,0,0,1,1.589,0l1.338,1.338a1.087,1.087,0,0,1,0,1.589,1.111,1.111,0,0,1-1.589,0l-1.338-1.338A1.087,1.087,0,0,1,21.015,15.2Zm-2.969,7.109a1.124,1.124,0,0,1,1.129-1.129h1.882a1.129,1.129,0,0,1,0,2.258H19.175A1.124,1.124,0,0,1,18.045,22.306Zm5.9,5.771L22.6,29.415a1.142,1.142,0,0,1-.795.335.989.989,0,0,1-.795-.335,1.087,1.087,0,0,1,0-1.589l1.338-1.338a1.124,1.124,0,1,1,1.589,1.589Zm5.311,3.178a1.129,1.129,0,1,1-2.258,0V29.373a1.129,1.129,0,1,1,2.258,0Zm-1.129-4.767a4.182,4.182,0,1,1,4.182-4.182A4.194,4.194,0,0,1,28.124,26.487Zm7.109,2.927a1.111,1.111,0,0,1-1.589,0l-1.338-1.338a1.124,1.124,0,1,1,1.589-1.589l1.338,1.338A1.087,1.087,0,0,1,35.233,29.415Zm1.84-5.98H35.191a1.129,1.129,0,1,1,0-2.258h1.882a1.129,1.129,0,0,1,0,2.258Z" transform="translate(-12.4 -2.4)"/></g></g></svg>