<svg xmlns="http://www.w3.org/2000/svg" xmlns:xlink="http://www.w3.org/1999/xlink" width="72" height="72" viewBox="0 0 72 72"><defs><style>.a{fill:url(#a);}.b,.d{fill:none;}.c{fill:#fff;stroke:#fff;}.d{stroke:red;stroke-width:2px;}.e,.f{stroke:none;}.f{fill:red;}</style><linearGradient id="a" x1="0.5" x2="0.5" y2="1" gradientUnits="objectBoundingBox"><stop offset="0" stop-color="#cddf38"/><stop offset="1" stop-color="#2d68c4"/></linearGradient></defs><g transform="translate(-686.501 -1481)"><g transform="translate(2.5 -59)"><g transform="translate(683.895 1539.941)"><path class="a" d="M36,0A36,36,0,1,1,0,36,36,36,0,0,1,36,0Z" transform="translate(0.106 0.059)"/><g class="b" transform="translate(0.106 0.059)"><path class="e" d="M36,0A36,36,0,1,1,0,36,36,36,0,0,1,36,0Z"/><path class="f" d="M 36 2 C 31.40914535522461 2 26.95668792724609 2.898674011230469 22.76627731323242 4.671066284179688 C 18.71782302856445 6.3834228515625 15.08152389526367 8.835220336914062 11.95836639404297 11.95836639404297 C 8.835220336914062 15.08152389526367 6.3834228515625 18.71782302856445 4.671066284179688 22.76627731323242 C 2.898674011230469 26.95668792724609 2 31.40914535522461 2 36 C 2 40.59085464477539 2.898674011230469 45.04331207275391 4.671066284179688 49.23372268676758 C 6.3834228515625 53.28217697143555 8.835220336914062 56.91847991943359 11.95836639404297 60.04163360595703 C 15.08152389526367 63.16477966308594 18.71782302856445 65.6165771484375 22.76627731323242 67.32893371582031 C 26.95668792724609 69.101318359375 31.40914535522461 70 36 70 C 40.59085464477539 70 45.04331207275391 69.101318359375 49.23372268676758 67.32893371582031 C 53.28217697143555 65.6165771484375 56.91847991943359 63.16477966308594 60.04163360595703 60.04163360595703 C 63.16477966308594 56.91847991943359 65.6165771484375 53.28217697143555 67.32893371582031 49.23372268676758 C 69.101318359375 45.04331207275391 70 40.59085464477539 70 36 C 70 31.40914535522461 69.101318359375 26.95668792724609 67.32893371582031 22.76627731323242 C 65.6165771484375 18.71782302856445 63.16477966308594 15.08152389526367 60.04163360595703 11.95836639404297 C 56.91847991943359 8.835220336914062 53.28217697143555 6.3834228515625 49.23372268676758 4.671066284179688 C 45.04331207275391 2.898674011230469 40.59085464477539 2 36 2 M 36 0 C 55.88224411010742 0 72 16.11775588989258 72 36 C 72 55.88224411010742 55.88224411010742 72 36 72 C 16.11775588989258 72 0 55.88224411010742 0 36 C 0 16.11775588989258 16.11775588989258 0 36 0 Z"/></g><g transform="translate(21.01 15.158)"><path class="c" d="M24.129,33.09l1.688,3.255.75-.4-1.6-3.037-.841-7.144-6.253-2.6c-.047-.215-.095-.436-.142-.658l4.109-4.443a68.466,68.466,0,0,0,7.8-2.813l-.329-.782a65.983,65.983,0,0,1-7.764,2.787l-.141.025L17.513,21.5c-.169-.814-.334-1.64-.487-2.419L21.2,13.638l.019-.1c.656-3.5,4.082-5.311,4.116-5.329l-.389-.753a9.247,9.247,0,0,0-4.54,5.825L16.81,17.965c-.141-.729-.264-1.379-.36-1.895a3.5,3.5,0,0,1-1.629.7,3.5,3.5,0,0,1-1.629-.7c-.1.516-.22,1.166-.36,1.895L9.238,13.281A9.247,9.247,0,0,0,4.7,7.457l-.389.754c.035.018,3.458,1.821,4.116,5.328l.019.1,4.171,5.439c-.154.78-.319,1.6-.487,2.419L8.235,17.288l-.142-.024A65.924,65.924,0,0,1,.329,14.477L0,15.259a68.3,68.3,0,0,0,7.8,2.813l4.109,4.443c-.047.222-.095.443-.142.658l-6.253,2.6-.841,7.144-1.6,3.037.75.4,1.641-3.107L6.3,26.362l5.241-2.176c-.218.947-.422,1.757-.592,2.289-.821,2.579-2.512,7.457-.731,9.568.031.036.06.079.091.117a7.582,7.582,0,0,0,2.744,4.825c.54.877,1.1,1.49,1.766,1.49s1.226-.613,1.766-1.49A7.584,7.584,0,0,0,19.33,36.16c.031-.038.059-.08.091-.117,1.78-2.11.089-6.988-.731-9.568-.17-.533-.374-1.343-.592-2.289l5.241,2.176Z" transform="translate(0 -1.132)"/><path class="c" d="M20,9.281a7.474,7.474,0,0,0-.416-2.52C20.833,2.522,25.343.813,25.388.8L25.1,0a11.182,11.182,0,0,0-6.033,5.681c-.046-.073-.092-.144-.142-.214-.138-1.187-.548-3.4-1.712-3.931l-.351.772c.456.207.8,1.117,1.025,2.113a3.844,3.844,0,0,0-4.279,0c.22-1,.569-1.906,1.025-2.114l-.351-.772c-1.164.528-1.573,2.744-1.712,3.931-.049.07-.1.141-.142.214A11.177,11.177,0,0,0,6.395,0L6.1.8c.045.017,4.556,1.726,5.805,5.965a7.5,7.5,0,0,0-.416,2.52c0,3.043,3.471,5.51,4.254,5.51S20,12.324,20,9.281Z" transform="translate(-0.927)"/></g></g></g><line class="d" x2="49" y2="49.5" transform="translate(697 1493)"/></g></svg>