<svg xmlns="http://www.w3.org/2000/svg" xmlns:xlink="http://www.w3.org/1999/xlink" width="72" height="72" viewBox="0 0 72 72"><defs><style>.a{fill:url(#a);}.b{fill:#fff;}</style><linearGradient id="a" x1="0.5" x2="0.5" y2="1" gradientUnits="objectBoundingBox"><stop offset="0" stop-color="#cddf38"/><stop offset="1" stop-color="#2d68c4"/></linearGradient></defs><g transform="translate(-684.001 -3231)"><g transform="translate(683.895 3231.3)"><circle class="a" cx="36" cy="36" r="36" transform="translate(0.106 -0.3)"/></g><g transform="translate(704.604 3247.073)"><g transform="translate(16.163)"><rect class="b" width="2.769" height="4.41" transform="translate(9.202 27.298)"/><rect class="b" width="2.759" height="4.41" transform="translate(5.918 27.298)"/><rect class="b" width="2.759" height="4.41" transform="translate(2.63 27.298)"/><path class="b" d="M45.649,15.106l-.942.122-1.127.467-.757.584,2.827,2.81Z" transform="translate(-38.613 -12.44)"/><path class="b" d="M40.218,18.888l-.58.754-.467,1.127-.122.931h3.994Z" transform="translate(-36.38 -14.679)"/><rect class="b" width="2.759" height="4.412" transform="translate(5.918 7.546)"/><path class="b" d="M51.969,21.7H55.96l-.124-.931-.465-1.127-.58-.754Z" transform="translate(-44.028 -14.679)"/><path class="b" d="M53.115,15.693l-1.121-.465-.947-.123v3.983l2.826-2.81Z" transform="translate(-43.482 -12.44)"/><rect class="b" width="2.769" height="4.408" transform="translate(9.202 22.361)"/><rect class="b" width="2.769" height="4.412" transform="translate(9.202 12.483)"/><rect class="b" width="2.769" height="4.412" transform="translate(9.202 17.42)"/><rect class="b" width="2.759" height="4.412" transform="translate(2.63 7.546)"/><rect class="b" width="2.769" height="4.412" transform="translate(9.202 7.546)"/><path class="b" d="M47.109,8.574h-14.6V42.91h14.6Zm-2.1,32.135c0,.009-.008.016-.01.025a.1.1,0,0,1-.019.047h0a.1.1,0,0,1-.072.03H34.712a.1.1,0,0,1-.072-.029h0c-.007-.007-.007-.019-.012-.028a.092.092,0,0,1-.018-.043h0V28.778l-.028.091s0,0,0,0,0,0,0,0l-.07.168s0,0,0,.005,0,0,0,0l-.086.157,0,0s0,0,0,0l-.132.211s-.006,0-.008.008,0,0,0,.007l-.017.019h0l-.019.021s-.006,0-.008,0,0,.006,0,.008l-.022.018s-.01,0-.014,0,0,.007-.009.009a.118.118,0,0,1-.026,0c-.007,0-.009.009-.015.01l-.026.006-.02.006a.1.1,0,0,1-.028,0h-.077V30.7c.008,0,.013.007.021.009s.019,0,.027,0l.242.144c.007,0,.009.013.014.02s.015.007.02.015l.146.237c0,.007,0,.014,0,.021s.01.014.011.023l.025.277c0,.009-.006.015-.007.023s0,.016,0,.024l-.105.262a.1.1,0,0,1-.022.027s0,.009-.007.013l-.214.182c-.008.007-.018.006-.025.009S34.1,32,34.095,32l-.269.065a.1.1,0,0,1-.048,0L33.506,32c-.007,0-.01-.009-.017-.012s-.018,0-.025-.009l-.214-.182s0-.009-.007-.012a.082.082,0,0,1-.022-.028l-.1-.262c0-.008,0-.016,0-.024s-.008-.014-.007-.022l.023-.277c0-.009.008-.013.01-.022s0-.016,0-.024l.147-.237c0-.008.013-.009.02-.014s.007-.015.014-.02l.242-.144c.008-.005.018,0,.027,0s.013-.008.021-.009V29.558h-.076a.108.108,0,0,1-.028,0l-.025-.007-.022,0,0,0a.088.088,0,0,1-.014,0c-.006,0-.007-.009-.012-.011a.1.1,0,0,1-.033-.011l-.023-.018s0,0,0-.006,0,0-.007,0l-.021-.021,0,0,0,0-.018-.019s0-.01,0-.015-.012-.011-.015-.02l-.006-.017-.1-.176h0l-.089-.157s0,0,0-.005,0,0,0-.006l-.071-.168s0,0,0-.006,0,0,0-.006l-.05-.174s0,0,0-.006l0-.005-.03-.178s0,0,0,0,0,0,0,0l-.013-.18s0,0,0-.006,0,0,0-.007l.009-.182s0,0,0,0,0,0,0-.005l.026-.18s0,0,0-.007,0,0,0-.007l.052-.174s0,0,0,0,0,0,0,0l.065-.168s0,0,.006-.006,0,0,0-.007l.088-.157,0,0s0,0,0,0l.1-.151.006,0s0,0,0-.007l.053-.06s.007,0,.009,0,0-.007,0-.009l.065-.05.006,0s0,0,0,0l.073-.044h.007s0,0,.006-.006l.073-.031s.007,0,.011,0,0,0,.008-.006l.08-.017h.007s0,0,.007,0l.084-.006h.023l.073.006.007,0h.007l.08.017s0,0,.007,0,.007,0,.009,0l.077.031s0,0,.007.007.007,0,.009,0l.071.044s0,0,0,.005l.007,0,.063.05s0,0,0,.007,0,0,.007,0l.058.06s0,.006,0,.009.006,0,.007,0l.1.151s0,0,0,.006,0,0,0,0l.084.157s0,0,0,0,0,0,0,0l.07.168s0,0,0,.007,0,0,0,.006l.018.064V15.862s0,0,0,0,0,0,0,0,0,0,0,0,0,0,0,0l.174-1.308c0-.005.006-.008.007-.012s0-.009,0-.013l.508-1.232s.008-.006.01-.01,0-.009,0-.013l.809-1.054s.009,0,.012-.007,0-.009.007-.011l1.054-.811s.009,0,.013,0,0-.008.009-.01l1.231-.509s.009,0,.013,0,.007-.006.012-.007l1.321-.174s.009,0,.013,0,.008,0,.013,0l1.32.174s.007.006.012.007.009,0,.014,0l1.228.509s.006.007.009.01.009,0,.013,0l1.054.811s0,.009.007.012.009,0,.012.007L44.3,13.26s0,.009,0,.013.008.005.009.009l.513,1.232s0,.009,0,.014.007.007.007.012l.172,1.308s0,0,0,0,0,0,0,0,0,0,0,0,0,0,0,0V40.709Z" transform="translate(-32.508 -8.574)"/><path class="b" d="M35.433,55.237l-.04-.142-.057-.145-.073-.131-.084-.125-.029-.032-.03-.025-.039-.021-.039-.017L35,54.591l-.047,0h-.017l-.015,0-.046.009-.04.017-.038.02-.029.024-.032.035-.087.125-.071.133-.057.14-.041.144-.025.152,0,.147.009.155.025.15.044.146.054.127s0-.007.006-.01,0-.014,0-.02l.06-.1c0-.007.012-.008.018-.013s0-.013.01-.017l.1-.071c.007,0,.014,0,.022-.005s.01-.011.018-.012l.115-.023c.007,0,.013,0,.019,0s.013-.005.02,0l.116.023c.009,0,.012.009.02.013s.015,0,.022.006l.094.071c.006,0,.006.012.01.017s.013.006.016.013l.059.1c0,.006,0,.012,0,.019s.009.01.01.018l0,.012,0-.009.058-.136.044-.146.025-.15.009-.154-.007-.148Z" transform="translate(-33.658 -35.81)"/><rect class="b" width="2.759" height="4.408" transform="translate(5.918 22.361)"/><rect class="b" width="2.759" height="4.412" transform="translate(5.918 17.42)"/><rect class="b" width="2.759" height="4.412" transform="translate(5.918 12.483)"/><path class="b" d="M48.183,19.362c-.01.005-.017.015-.029.017h-4.37a.1.1,0,0,1-.073-.03c-.01-.011-.01-.025-.016-.038s-.013-.021-.013-.034a.1.1,0,0,1,.029-.072l3.08-3.069.007,0s0,0,0-.006.022-.006.033-.009.019-.012.029-.012l-.055-.071-.073-.056c0,.012-.007.022-.01.033s0,.022-.009.032,0,0-.007,0,0,.005,0,.007L43.625,19.12a.1.1,0,0,1-.072.029.1.1,0,0,1-.073-.03.092.092,0,0,1-.019-.047c0-.009-.01-.016-.01-.025V14.7s0,0,0-.007,0,0,0-.007.011-.018.016-.028,0-.021.012-.028l-.088-.011-.091.012a.092.092,0,0,1,.011.028c.006.01.015.016.017.028s0,0,0,.007,0,0,0,.007v4.344c0,.009-.008.016-.01.025a.1.1,0,0,1-.019.047h0a.1.1,0,0,1-.144,0l-3.084-3.065s0-.005,0-.007,0,0-.007,0,0-.021-.008-.032-.013-.02-.012-.032l-.069.053-.056.073c.01,0,.018.009.028.012s.024,0,.034.009,0,0,0,.006,0,0,.007,0l3.081,3.069a.1.1,0,0,1,.03.072.1.1,0,0,1-.019.046c0,.009,0,.019-.011.026a.1.1,0,0,1-.072.03H38.63c-.012,0-.018-.011-.029-.017s-.02,0-.027-.011l-.014.11v.061a.1.1,0,0,1,.059-.025h2.963a.1.1,0,0,1,.1.1v4.616a.1.1,0,0,1-.1.1H38.619a.1.1,0,0,1-.059-.025v.166a.1.1,0,0,1,.059-.024h2.963a.1.1,0,0,1,.1.1v4.616a.1.1,0,0,1-.1.1H38.619a.1.1,0,0,1-.059-.024V29.4a.1.1,0,0,1,.059-.025h2.963a.1.1,0,0,1,.1.1v4.616a.1.1,0,0,1-.1.1H38.619a.1.1,0,0,1-.059-.025v.171a.1.1,0,0,1,.059-.025h2.963a.1.1,0,0,1,.1.1v4.612a.1.1,0,0,1-.1.1H38.619a.1.1,0,0,1-.059-.024v.17a.1.1,0,0,1,.059-.024h2.963a.1.1,0,0,1,.1.1v4.614a.1.1,0,0,1-.024.059h.17a.1.1,0,0,1-.025-.059V39.351a.1.1,0,0,1,.1-.1H44.87a.1.1,0,0,1,.1.1v4.614a.1.1,0,0,1-.025.059h.166a.1.1,0,0,1-.025-.059V39.351a.1.1,0,0,1,.1-.1h2.973a.1.1,0,0,1,.062.026V39.1a.1.1,0,0,1-.062.026H45.191a.1.1,0,0,1-.1-.1V34.414a.1.1,0,0,1,.1-.1h2.973a.1.1,0,0,1,.062.026v-.173a.1.1,0,0,1-.062.026H45.191a.1.1,0,0,1-.1-.1V29.473a.1.1,0,0,1,.1-.1h2.973a.1.1,0,0,1,.062.026v-.169a.1.1,0,0,1-.062.026H45.191a.1.1,0,0,1-.1-.1V24.536a.1.1,0,0,1,.1-.1h2.973a.1.1,0,0,1,.062.026V24.29a.1.1,0,0,1-.062.026H45.191a.1.1,0,0,1-.1-.1V19.6a.1.1,0,0,1,.1-.1h2.973a.1.1,0,0,1,.062.026v-.062l-.015-.111C48.2,19.357,48.191,19.357,48.183,19.362ZM44.971,39.026a.1.1,0,0,1-.1.1H41.906a.1.1,0,0,1-.1-.1V34.414a.1.1,0,0,1,.1-.1H44.87a.1.1,0,0,1,.1.1v4.612Zm0-4.937a.1.1,0,0,1-.1.1H41.906a.1.1,0,0,1-.1-.1V29.473a.1.1,0,0,1,.1-.1H44.87a.1.1,0,0,1,.1.1v4.615Zm0-4.937a.1.1,0,0,1-.1.1H41.906a.1.1,0,0,1-.1-.1V24.536a.1.1,0,0,1,.1-.1H44.87a.1.1,0,0,1,.1.1v4.616Zm0-4.937a.1.1,0,0,1-.1.1H41.906a.1.1,0,0,1-.1-.1V19.6a.1.1,0,0,1,.1-.1H44.87a.1.1,0,0,1,.1.1v4.616Z" transform="translate(-36.09 -12.155)"/><rect class="b" width="2.759" height="4.412" transform="translate(2.63 17.42)"/><rect class="b" width="2.759" height="4.408" transform="translate(2.63 22.361)"/><rect class="b" width="2.759" height="4.412" transform="translate(2.63 12.483)"/></g><g transform="translate(0 6.708)"><path class="b" d="M36.586,48.417a.086.086,0,0,1,.01.038c0,.009.011.014.011.025V48.5c0,.015-.01.026-.016.04h.217a.076.076,0,0,1,.077-.076V46.1l0,0a.1.1,0,0,1-.053.015h-.154s-.007,0-.012,0a.1.1,0,0,1-.023,0h-.151a.093.093,0,0,1-.045-.019v2.3A.1.1,0,0,1,36.586,48.417Z" transform="translate(-34.998 -30.683)"/><path class="b" d="M34.877,43.951H47.572V10.3H34.877Zm.387-20.421c0-.011.008-.018.012-.028s0-.011,0-.016.007,0,.009-.009a.084.084,0,0,1,.033-.029.088.088,0,0,1,.03-.013c.007,0,.01-.007.017-.007h.745c.007,0,.011.006.018.008a.1.1,0,0,1,.023.01.094.094,0,0,1,.039.032s.007,0,.009.008,0,.011,0,.018.011.016.011.027v.728l.06-.014,0-3.583h0l0-1.612,0-5.627c0-.011.009-.019.012-.029s0-.022.008-.031,0,0,.007,0a.1.1,0,0,1,.033-.02.089.089,0,0,1,.034-.014s0,0,.008,0h.021l3.229,0h2.371l4.054,0a.1.1,0,0,1,.078.045h0s0,0,0,.007a.1.1,0,0,1,.021.05s0,0,0,0,0,0,0,0l-.008,5.616s0,0,0,.006,0,0,0,.006v1.626l-.006,4.811h0s0,.006,0,.009h0s0,.006,0,.009v1.641h0l0,4.776v.034l0,1.613v.036l0,5.56v.044a.1.1,0,0,1-.1.1l-3.984,0h-1.66l-4.03,0a.1.1,0,0,1-.071-.028h0c-.009-.009-.009-.024-.015-.036a.116.116,0,0,1-.014-.035h0l0-5.646h0l0-1.613,0-4.837,0-1.614v-.746l-.025.007-.034.013V27.5a.1.1,0,0,1-.1.1h-.745a.1.1,0,0,1-.1-.1V23.53Z" transform="translate(-34.07 -9.493)"/><path class="b" d="M66.486,42.995h.6V8.681l-.6.6Z" transform="translate(-52.781 -8.537)"/><path class="b" d="M33.256,8.327l.6.6H46.672l.6-.6Z" transform="translate(-33.111 -8.327)"/><path class="b" d="M36.805,43.8l.08-.038v-.592a.1.1,0,0,1-.054-.022.1.1,0,0,1-.022-.054h-.289a.1.1,0,0,1-.077.077v.648a.093.093,0,0,1,.045-.019h.318Z" transform="translate(-34.997 -28.909)"/><path class="b" d="M61,36.457l-.47.471,0,3.143.446.445a.1.1,0,0,1,.04.017l.115.116,0-4.316-.12.12S61,36.455,61,36.457Z" transform="translate(-49.253 -24.905)"/><path class="b" d="M53.6,36.557l2.353,0,.479-.479s.007,0,.01,0l.116-.116-3.525,0,.127.125a.1.1,0,0,1,.028.067Z" transform="translate(-44.815 -24.681)"/><path class="b" d="M56.484,62.148a.1.1,0,0,1-.062-.026l-.472-.475H53.607l-.4.4a.105.105,0,0,1-.03.072l-.127.128h3.538Z" transform="translate(-44.826 -39.889)"/><path class="b" d="M60.5,19.184l0,3.929.437.44a.1.1,0,0,1,.051.021l.115.113,0-5.09-.118.119c-.009.009-.022.009-.033.013Z" transform="translate(-49.234 -14.406)"/><path class="b" d="M56.458,46.335a.1.1,0,0,1-.038-.016l-.473-.473H53.6l-.415.415a.1.1,0,0,1-.024.059l-.127.127h3.535Z" transform="translate(-44.816 -30.536)"/><path class="b" d="M52.755,36.388l-.089-.087,0,4.351.087-.087a.1.1,0,0,1,.024-.058l.456-.456V36.905l-.456-.454A.1.1,0,0,1,52.755,36.388Z" transform="translate(-44.6 -24.886)"/><path class="b" d="M39.435,68.53l-.456-.452a.1.1,0,0,1-.029-.069l-.078-.078,0,5.149.074-.074a.1.1,0,0,1,.029-.075l.452-.448Z" transform="translate(-36.435 -43.608)"/><path class="b" d="M53.613,68.177h2.339l.475-.473a.1.1,0,0,1,.069-.028l.1-.1H53.058l.126.126a.1.1,0,0,1,.029.073Z" transform="translate(-44.832 -43.4)"/><path class="b" d="M56.5,79.937a.1.1,0,0,1-.073-.03l-.475-.475H53.617l-.4.4a.1.1,0,0,1-.026.08l-.128.127,3.534,0-.1-.1Z" transform="translate(-44.837 -50.416)"/><path class="b" d="M60.961,52.318l-.446.444,0,3.141.429.432a.1.1,0,0,1,.061.025l.111.111,0-4.286L61,52.3A.093.093,0,0,1,60.961,52.318Z" transform="translate(-49.245 -34.289)"/><path class="b" d="M53.26,68.529l-.452-.452A.1.1,0,0,1,52.778,68l-.073-.074,0,5.153.077-.076a.1.1,0,0,1,.026-.08l.451-.448V68.529Z" transform="translate(-44.623 -43.608)"/><path class="b" d="M60.924,68.16l-.426.424,0,3.95.423.423a.1.1,0,0,1,.075.028l.105.105,0-5.068-.109.109A.1.1,0,0,1,60.924,68.16Z" transform="translate(-49.234 -43.662)"/><path class="b" d="M42.671,79.937a.1.1,0,0,1-.073-.03l-.475-.475-2.333,0-.4.4a.1.1,0,0,1-.029.075l-.125.124,3.54,0-.1-.1Z" transform="translate(-36.65 -50.416)"/><path class="b" d="M47.1,68.168h0l-.426.424,0,3.949.421.421a.1.1,0,0,1,.077.027l.1.1.007-5.059-.107.106A.1.1,0,0,1,47.1,68.168Z" transform="translate(-41.049 -43.669)"/><path class="b" d="M32.9,42.993h.6V9.279l-.6-.6Z" transform="translate(-32.9 -8.535)"/><path class="b" d="M39.788,68.177H42.12L42.6,67.7a.1.1,0,0,1,.073-.029l.1-.1H39.225l.126.126a.1.1,0,0,1,.029.068Z" transform="translate(-36.644 -43.4)"/><path class="b" d="M53.6,52.371h2.345l.477-.475a.1.1,0,0,1,.042-.018l.109-.109H53.042l.127.126a.1.1,0,0,1,.03.072Z" transform="translate(-44.823 -34.042)"/><path class="b" d="M52.763,52.2l-.077-.077,0,4.345.077-.078a.1.1,0,0,1,.029-.072l.452-.452v-3.14l-.456-.454A.107.107,0,0,1,52.763,52.2Z" transform="translate(-44.612 -34.251)"/><path class="b" d="M39.319,36.082s0,.009.006.014l.46.46,2.332,0,.473-.475a.1.1,0,0,1,.065-.027l.1-.1-3.556,0Z" transform="translate(-36.627 -24.682)"/><path class="b" d="M38.952,52.218l-.094-.094,0,4.346.085-.084a.1.1,0,0,1,.025-.062l.46-.458,0-3.14-.462-.462A.089.089,0,0,1,38.952,52.218Z" transform="translate(-36.427 -34.252)"/><path class="b" d="M39.337,51.9a.1.1,0,0,1,.019.045l.43.43h2.333l.475-.475a.1.1,0,0,1,.07-.029l.1-.1H39.211Z" transform="translate(-36.636 -34.043)"/><path class="b" d="M46.7,36.96l0,3.146.435.432a.106.106,0,0,1,.059.024l.109.11,0-4.279-.112.113a.1.1,0,0,1-.065.027Z" transform="translate(-41.066 -24.94)"/><path class="b" d="M42.746,25.251a.1.1,0,0,1,.04.016h0a.1.1,0,0,1,.029.072v.032l0,4.774h0v.032a.1.1,0,0,1-.1.1H38.783l0,1.41h3.927a.1.1,0,0,1,.1.1v.036l0,4.757v.044a.1.1,0,0,1-.1.1H38.776l0,1.409H42.7a.1.1,0,0,1,.1.1v.044h0l-.007,5.5h1.41V38.244c0-.009.008-.016.01-.025a.1.1,0,0,1,.019-.047h0c.007-.007.017-.007.025-.011a.1.1,0,0,1,.046-.02h3.932l0-1.409H44.311a.1.1,0,0,1-.069-.027l0,0a.12.12,0,0,1-.016-.034.127.127,0,0,1-.015-.036s0,0,0,0V31.794a.1.1,0,0,1,.1-.1h3.938v-1.41H44.311a.1.1,0,0,1-.072-.03.1.1,0,0,1-.03-.072V25.34s0,0,0,0a.476.476,0,0,1,.032-.071s0,0,0,0a.1.1,0,0,1,.038-.013c.01,0,.018-.012.029-.012h.031l3.913.006V23.826H44.311a.1.1,0,0,1-.067-.025s0,0,0,0-.011-.022-.017-.033a.108.108,0,0,1-.015-.036s0,0,0,0V18.195l-.681,0h-.7l0,5.5v.031a.1.1,0,0,1-.1.1H38.789l0,1.408,3.928,0C42.727,25.238,42.735,25.248,42.746,25.251Z" transform="translate(-36.376 -14.168)"/><path class="b" d="M38.967,23.6a.1.1,0,0,1,.022-.052l.462-.462,0-3.928-.466-.468c-.009-.009-.009-.022-.013-.033l-.1-.1,0,5.136Z" transform="translate(-36.435 -14.382)"/><path class="b" d="M47.286,52.222l-.1.107a.1.1,0,0,1-.073.03l-.425.425,0,3.14.422.422a.1.1,0,0,1,.073.029l.107.107Z" transform="translate(-41.057 -34.31)"/><path class="b" d="M42.667,62.153a.1.1,0,0,1-.072-.03l-.475-.475H39.788l-.415.413a.1.1,0,0,1-.026.062l-.128.127h3.547l-.1-.1Z" transform="translate(-36.64 -39.889)"/><path class="b" d="M56.4,30.491l-.471-.475H53.592l-.422.422a.1.1,0,0,1-.022.053l-.129.128h3.539l-.108-.107A.094.094,0,0,1,56.4,30.491Z" transform="translate(-44.808 -21.165)"/><path class="b" d="M37.062,45.074h-.226c0,.006.007.009.007.015v.1c0,.006-.006.009-.007.015h.2l.077-.048h.007l0,0,.053-.024.018-.011s.006,0,.008,0,0,0,.006-.005.007,0,.009,0,0-.006.009-.007h.007l0,0,.1-.04h.006l0,0,.111-.031s0,0,.007,0,0,0,0,0l.05-.008h0l0,0,0,0,0,0h0l.04-.008s0,0,.007,0,0,0,.007,0l.113-.006h.01l.115.006s0,0,.007,0h.007s.007,0,.01.006.007,0,.01,0l.088.013.007,0s0,0,.007,0l.109.031,0,0h0l.077.029a.1.1,0,0,1,.049-.07l-.092-.039-.1-.033-.1-.024-.074-.009-.025,0-.1-.007-.1.007-.038.006h-.014s0,0-.006,0l0,0-.039,0-.105.025-.1.032h0s0,0,0,0l-.013,0h-.007l0,0h-.007s0,0,0,0l-.054.025h0l-.1.049A.1.1,0,0,1,37.062,45.074Z" transform="translate(-35.23 -29.975)"/><path class="b" d="M38.954,36.431l-.114-.113,0,3.3.044,0s0,0,.007,0,0,0,.007,0l.111.008h0l.026,0h0l.084.009.006,0h.007l.111.027,0,0h0l.108.035s0,0,0,0h0l.052.022,0-2.814-.469-.469S38.957,36.435,38.954,36.431Z" transform="translate(-36.416 -24.896)"/><path class="b" d="M39.337,46.319l-.126.127h3.546l-.1-.1a.1.1,0,0,1-.057-.024l-.477-.473H39.862v.018c0,.006,0,.009-.006.014a.075.075,0,0,1-.008.026s0,.009,0,.014-.007.007-.011.01a.067.067,0,0,1-.011.011.132.132,0,0,1-.016.014.1.1,0,0,1-.048.012.1.1,0,0,1-.053-.016h0l-.015-.009-.335.336A.1.1,0,0,1,39.337,46.319Z" transform="translate(-36.636 -30.536)"/><path class="b" d="M39.106,45.656l-.083-.012h0l-.015,0-.1,0-.051,0,0,.539.1-.1a.1.1,0,0,1,.018-.043l.324-.323-.089-.033Z" transform="translate(-36.422 -30.411)"/><path class="b" d="M52.748,23.6a.1.1,0,0,1,.022-.052l.462-.462,0-3.928-.466-.468c-.009-.009-.009-.022-.013-.033l-.1-.1,0,5.136Z" transform="translate(-44.592 -14.382)"/><path class="b" d="M53.146,18.363l.443.444h2.333l.475-.477c.009-.009.022-.009.033-.013l.112-.113H53.006l.126.127C53.141,18.339,53.141,18.352,53.146,18.363Z" transform="translate(-44.801 -14.174)"/><path class="b" d="M46.717,19.184l0,3.929.437.44a.1.1,0,0,1,.051.021l.115.113,0-5.09-.118.119c-.009.009-.022.009-.033.013Z" transform="translate(-41.076 -14.406)"/><path class="b" d="M42.615,30.491l-.471-.475H39.811l-.422.422a.1.1,0,0,1-.022.053l-.129.128h3.539l-.108-.107A.094.094,0,0,1,42.615,30.491Z" transform="translate(-36.651 -21.165)"/><path class="b" d="M39.364,18.363l.443.444H42.14l.475-.477c.009-.009.022-.009.033-.013l.112-.113H39.224l.126.127C39.36,18.339,39.359,18.352,39.364,18.363Z" transform="translate(-36.643 -14.174)"/></g></g></g></svg>