<svg xmlns="http://www.w3.org/2000/svg" width="71.659" height="71.659" viewBox="0 0 71.659 71.659"><defs><style>.a,.b{fill:#fff;}.a{stroke:#bfd700;}.b{stroke:#0b73b9;}.c{stroke:none;}.d{fill:none;}</style></defs><g transform="translate(-683.895 -2872.479)"><g transform="translate(683.895 2872.479)"><g class="a"><circle class="c" cx="35.829" cy="35.829" r="35.829"/><circle class="d" cx="35.829" cy="35.829" r="35.329"/></g><g class="b" transform="translate(2.108 2.108)"><circle class="c" cx="33.722" cy="33.722" r="33.722"/><circle class="d" cx="33.722" cy="33.722" r="33.222"/></g></g><g transform="translate(708.922 2888.56)"><g transform="translate(0 0)"><path d="M23.984,37.053h-.335A5.45,5.45,0,0,0,19.5,38.9a6.974,6.974,0,0,1-10.577,0,5.45,5.45,0,0,0-4.144-1.842H4.448V6.354h.4A5.96,5.96,0,0,0,9.136,4.372a6.953,6.953,0,0,1,10.159,0,5.96,5.96,0,0,0,4.284,1.982h.4V10.54h.7V6.354a.691.691,0,0,0-.7-.7h-.4A5.3,5.3,0,0,1,19.8,3.9a7.63,7.63,0,0,0-11.163,0A5.3,5.3,0,0,1,4.852,5.656h-.4a.691.691,0,0,0-.7.7v30.7a.691.691,0,0,0,.7.7h.335a4.74,4.74,0,0,1,3.614,1.6,7.685,7.685,0,0,0,11.638,0,4.74,4.74,0,0,1,3.614-1.6h.335a.691.691,0,0,0,.7-.7V16.122h-.7Z" transform="translate(-3.75 -1.47)"/><path d="M22.891,10.145v-3.5A6.642,6.642,0,0,1,18.4,4.452a6.277,6.277,0,0,0-9.154,0A6.642,6.642,0,0,1,4.75,6.642V35.974a6.09,6.09,0,0,1,4.312,2.065,6.263,6.263,0,0,0,9.517,0,6.09,6.09,0,0,1,4.312-2.065V15.727H18.7v.223a1.87,1.87,0,0,1-1.87,1.87H10.806a1.87,1.87,0,0,1-1.87-1.87V9.922a1.87,1.87,0,0,1,1.87-1.87h6.028a1.87,1.87,0,0,1,1.87,1.87v.223ZM13.82,24.922a2.329,2.329,0,0,1,2.316,2.316,2.3,2.3,0,0,1-1.158,2.009v2.637a1.158,1.158,0,0,1-2.316,0V29.248A2.3,2.3,0,0,1,11.5,27.239,2.329,2.329,0,0,1,13.82,24.922Zm0,13.131a.7.7,0,1,1,.7-.7A.691.691,0,0,1,13.82,38.053Zm0-32.095a.7.7,0,1,1,.7-.7A.691.691,0,0,1,13.82,5.959Z" transform="translate(-3.355 -1.075)"/><path d="M16.623,8.365V8.142A1.179,1.179,0,0,0,15.45,6.97H9.422A1.179,1.179,0,0,0,8.25,8.142V14.17a1.179,1.179,0,0,0,1.172,1.172H15.45a1.179,1.179,0,0,0,1.172-1.172v-.223h-.7v.223a.489.489,0,0,1-.474.474H9.422a.489.489,0,0,1-.474-.474V8.142a.479.479,0,0,1,.474-.474H15.45a.479.479,0,0,1,.474.474v.223Z" transform="translate(-1.971 0.705)"/><path d="M22.111,8.47H10.25v4.186H35.368V8.47Z" transform="translate(-1.18 1.298)"/><path d="M10.9,22.088a.675.675,0,0,1,.349.6v2.637a.46.46,0,1,0,.921,0V22.688a.675.675,0,0,1,.349-.6,1.619,1.619,0,1,0-1.619,0Z" transform="translate(-1.243 5.486)"/></g></g></g></svg>