<svg xmlns="http://www.w3.org/2000/svg" width="71.659" height="71.659" viewBox="0 0 71.659 71.659"><defs><style>.a,.b{fill:#fff;}.a{stroke:#bfd700;}.b{stroke:#0b73b9;}.c{stroke:none;}.d{fill:none;}</style></defs><g transform="translate(-683.894 -3933.663)"><g transform="translate(683.894 3933.663)"><g class="a" transform="translate(0)"><circle class="c" cx="35.829" cy="35.829" r="35.829"/><circle class="d" cx="35.829" cy="35.829" r="35.329"/></g><g class="b" transform="translate(2.108 2.108)"><circle class="c" cx="33.722" cy="33.722" r="33.722"/><circle class="d" cx="33.722" cy="33.722" r="33.222"/></g></g><g transform="translate(703.711 3953.231)"><g transform="translate(0 0)"><path d="M35.739,29.73a.9.9,0,0,0-1.278,0l-1.278,1.278-1.749-1.749,5.323-5.323a6.279,6.279,0,0,0,8.195-7.553.9.9,0,0,0-1.513-.407l-2.912,2.912-2.556-2.556,2.912-2.912a.9.9,0,0,0-.407-1.513A6.279,6.279,0,0,0,32.922,20.1L27.6,25.425l-7.2-7.2.639-.639a.9.9,0,0,0-.114-1.374l-4.473-3.2a.9.9,0,0,0-1.164.1l-1.278,1.278a.9.9,0,0,0-.1,1.164l3.2,4.473a.9.9,0,0,0,1.374.114l.639-.639L31.9,32.286l-1.278,1.278a.9.9,0,0,0,0,1.278l8.307,8.307a3.615,3.615,0,1,0,5.112-5.112Z" transform="translate(-13.149 -11.686)"/><path d="M13.217,58.874a2.711,2.711,0,1,0,3.834,3.834L28.13,51.629,24.3,47.795Z" transform="translate(-12.423 -31.479)"/></g></g></g></svg>