<svg xmlns="http://www.w3.org/2000/svg" width="71.659" height="71.659" viewBox="0 0 71.659 71.659"><defs><style>.a,.b{fill:#fff;}.a{stroke:#bfd700;}.b{stroke:#0b73b9;}.c{stroke:none;}.d{fill:none;}</style></defs><g transform="translate(-683.895 -3590.122)"><g transform="translate(683.895 3590.122)"><g class="a"><circle class="c" cx="35.829" cy="35.829" r="35.829"/><circle class="d" cx="35.829" cy="35.829" r="35.329"/></g><g class="b" transform="translate(2.108 2.108)"><circle class="c" cx="33.722" cy="33.722" r="33.722"/><circle class="d" cx="33.722" cy="33.722" r="33.222"/></g></g><g transform="translate(702.943 3609.698)"><rect width="8.43" height="4.215" transform="translate(12.646 18.806)"/><rect width="8.43" height="4.215" transform="translate(12.646 26.183)"/><path d="M30.949,10H22V20.068h8.949Zm-7.667,2.4L24.4,11.283a.559.559,0,0,1,.791.791l-1.119,1.119a.559.559,0,1,1-.791-.791Zm4.706-.328-3.915,3.915a.559.559,0,0,1-.791-.791L27.2,11.283a.559.559,0,0,1,.791.791Z" transform="translate(-9.695 -4.407)"/><path d="M3.915,58H.559a.559.559,0,0,0,0,1.119H3.915a.559.559,0,0,0,0-1.119Z" transform="translate(0 -25.559)"/><path d="M38.288,32.441H32.136V.559A.559.559,0,0,0,31.576,0H12.559A.559.559,0,0,0,12,.559V33a.559.559,0,0,0,.559.559H38.288a.559.559,0,1,0,0-1.119Zm-9.508,0V3.356H15.356V32.441H14.237V2.8a.559.559,0,0,1,.559-.559H29.339A.559.559,0,0,1,29.9,2.8V32.441ZM17.034,17.9H27.1a.559.559,0,0,1,.559.559v5.034a.559.559,0,0,1-.559.559H17.034a.559.559,0,0,1-.559-.559V18.458A.559.559,0,0,1,17.034,17.9Zm-.559-1.678V5.034a.559.559,0,0,1,.559-.559H27.1a.559.559,0,0,1,.559.559V16.22a.559.559,0,0,1-.559.559H17.034A.559.559,0,0,1,16.475,16.22Zm.559,8.949H27.1a.559.559,0,0,1,.559.559v5.034a.559.559,0,0,1-.559.559H17.034a.559.559,0,0,1-.559-.559V25.729A.559.559,0,0,1,17.034,25.169Z" transform="translate(-5.288)"/></g></g></svg>