<svg xmlns="http://www.w3.org/2000/svg" width="72" height="71" viewBox="0 0 72 71"><defs><style>.a,.b{fill:#fff;}.a{stroke:#bfd700;}.b{stroke:#0b73b9;}.c{stroke:none;}.d{fill:none;}</style></defs><g transform="translate(-684.001 -2514)"><g transform="translate(683.895 2513.658)"><g class="a" transform="translate(0.106 0.342)"><ellipse class="c" cx="36" cy="35.5" rx="36" ry="35.5"/><ellipse class="d" cx="36" cy="35.5" rx="35.5" ry="35"/></g><g class="b" transform="translate(2.106 2.342)"><circle class="c" cx="33.5" cy="33.5" r="33.5"/><circle class="d" cx="33.5" cy="33.5" r="33"/></g></g><g transform="translate(697.777 2528.069)"><path d="M89.27,45.327l.8-1.32A.686.686,0,1,0,88.9,43.3l-.8,1.32a.686.686,0,0,0,1.173.711Z" transform="translate(-57.824 -28.233)"/><path d="M91.983,60.181a.686.686,0,0,0,.887-1.047L91.64,58.09a.686.686,0,0,0-.887,1.047Z" transform="translate(-59.475 -38.064)"/><path d="M96.373,50.946a.685.685,0,0,0-.8-.555l-2.6.463a.686.686,0,0,0,.119,1.361.676.676,0,0,0,.121-.011l2.6-.463a.686.686,0,0,0,.555-.8Z" transform="translate(-60.723 -33.105)"/><path d="M16.641,19.6q-.121.128-.241.259a.686.686,0,1,0,1.012.926q.112-.123.226-.243a.686.686,0,0,0-1-.942Z" transform="translate(-10.659 -12.739)"/><path d="M6.54,35.689a.686.686,0,0,0,.916-.319c.048-.1.1-.2.147-.3a.686.686,0,0,0-1.225-.617q-.079.158-.157.318A.686.686,0,0,0,6.54,35.689Z" transform="translate(-4.043 -22.392)"/><path d="M23.274,13.457q-.139.11-.275.222a.686.686,0,0,0,.869,1.062q.128-.105.259-.208a.686.686,0,1,0-.852-1.075Z" transform="translate(-14.947 -8.745)"/><path d="M1.207,70.749A.686.686,0,0,0,1.8,69.98q-.021-.164-.04-.329A.686.686,0,0,0,.4,69.8q.02.177.043.352a.686.686,0,0,0,.679.6.672.672,0,0,0,.089-.006Z" transform="translate(-0.257 -45.367)"/><path d="M30.731,8.344q-.153.088-.3.179A.686.686,0,0,0,31.133,9.7q.142-.085.285-.168a.686.686,0,1,0-.688-1.187Z" transform="translate(-19.775 -5.422)"/><path d="M.842,51.678c-.021.116-.04.233-.059.349a.686.686,0,0,0,.569.786.672.672,0,0,0,.109.009.686.686,0,0,0,.676-.578q.026-.164.055-.327a.686.686,0,0,0-1.351-.24Z" transform="translate(-0.509 -33.586)"/><path d="M2.976,42.859q-.056.168-.109.337a.686.686,0,0,0,1.308.412q.05-.16.1-.319a.686.686,0,0,0-1.3-.429Z" transform="translate(-1.863 -27.853)"/><path d="M.008,60.721Q0,60.9,0,61.075a.686.686,0,0,0,.676.7h.01a.686.686,0,0,0,.686-.676q0-.166.007-.332a.686.686,0,0,0-.664-.707.672.672,0,0,0-.707.665Z" transform="translate(0 -39.462)"/><path d="M65.185,0a.686.686,0,1,0-.056,1.371c.111,0,.222.01.333.016H65.5A.686.686,0,0,0,65.538.017Z" transform="translate(-42.364 0.001)"/><path d="M74.22,1.021a.686.686,0,0,0-.253,1.349l.327.064a.686.686,0,1,0,.273-1.345Z" transform="translate(-48.236 -0.663)"/><path d="M38.856,4.373l-.325.133a.686.686,0,0,0,.529,1.266c.1-.043.2-.084.307-.126a.686.686,0,1,0-.511-1.274Z" transform="translate(-25.041 -2.841)"/><path d="M82.565,4.644q.156.054.311.11a.686.686,0,1,0,.47-1.289q-.167-.061-.336-.119a.686.686,0,0,0-.446,1.3Z" transform="translate(-53.949 -2.174)"/><path d="M47.492,1.635l-.343.084a.686.686,0,1,0,.338,1.33c.107-.027.215-.054.323-.079a.686.686,0,0,0-.317-1.335Z" transform="translate(-30.642 -1.062)"/><path d="M56.1.221a.686.686,0,0,0,.07,1.368.64.64,0,0,0,.071,0l.331-.031a.686.686,0,1,0-.12-1.367Z" transform="translate(-36.459 -0.121)"/><path d="M62.65,123.994h-.335a.686.686,0,1,0-.007,1.372h.358a.686.686,0,1,0-.017-1.372Z" transform="translate(-40.495 -81.477)"/><path d="M45.108,121.453l-.318-.094a.686.686,0,1,0-.4,1.313q.169.052.34.1a.686.686,0,0,0,.377-1.319Z" transform="translate(-28.85 -79.726)"/><path d="M53.79,123.364l-.327-.047a.686.686,0,0,0-.205,1.357q.175.027.352.05a.7.7,0,0,0,.091.006.686.686,0,0,0,.09-1.366Z" transform="translate(-34.612 -81.027)"/><path d="M36.791,118.293c-.1-.046-.2-.092-.3-.14a.686.686,0,1,0-.586,1.241q.16.076.322.149a.686.686,0,1,0,.565-1.25Z" transform="translate(-23.334 -77.596)"/><path d="M80.209,121.241c-.105.033-.211.065-.318.1a.686.686,0,0,0,.385,1.317l.339-.1a.686.686,0,1,0-.407-1.31Z" transform="translate(-52.172 -79.647)"/><path d="M71.527,123.256q-.163.026-.327.048a.686.686,0,0,0,.093,1.366.7.7,0,0,0,.1-.006q.176-.025.351-.052a.686.686,0,0,0-.213-1.355Z" transform="translate(-46.398 -80.986)"/><path d="M3.485,78.711q-.045-.16-.088-.32a.686.686,0,1,0-1.326.352q.045.171.093.341a.686.686,0,0,0,.66.5.679.679,0,0,0,.186-.026A.686.686,0,0,0,3.485,78.711Z" transform="translate(-1.346 -51.176)"/><path d="M29.025,113.956l-.279-.183a.686.686,0,0,0-.759,1.143l.3.193a.686.686,0,0,0,.742-1.154Z" transform="translate(-18.189 -74.686)"/><path d="M6.423,87.1q-.067-.15-.132-.3a.686.686,0,0,0-1.261.54c.046.109.094.216.142.324A.686.686,0,1,0,6.423,87.1Z" transform="translate(-3.269 -56.764)"/><path d="M10.372,94.693a.686.686,0,1,0-1.17.716q.092.151.188.3a.686.686,0,1,0,1.157-.736Q10.458,94.834,10.372,94.693Z" transform="translate(-5.98 -62.008)"/><path d="M12.091,27.436a.686.686,0,1,0-1.124-.787q-.1.145-.2.291a.686.686,0,1,0,1.135.77Q12,27.573,12.091,27.436Z" transform="translate(-6.997 -17.319)"/><path d="M15.552,101.917a.686.686,0,1,0-1.055.878q.114.136.229.271a.686.686,0,0,0,1.039-.9Q15.658,102.045,15.552,101.917Z" transform="translate(-9.422 -66.808)"/><path d="M21.72,108.322a.686.686,0,1,0-.917,1.02q.132.118.265.234a.686.686,0,0,0,.9-1.035Q21.843,108.433,21.72,108.322Z" transform="translate(-13.52 -71.063)"/><path d="M89.575,115.9l-2.708-.32a.686.686,0,0,0-.161,1.363l1.527.181-.92,1.232a.686.686,0,0,0,1.1.821L90.044,117a.686.686,0,0,0-.469-1.092Z" transform="translate(-56.577 -75.947)"/><path d="M52.848,52.167,32.3,36.911l2.421-3.237c.209.127,17.357,10.362,17.371,10.373a.7.7,0,0,0,.943-.24.687.687,0,0,0-.24-.94l-17.251-10.3,1.533-2.047a.691.691,0,0,0,.134-.394.678.678,0,0,0-.106-.394l-2.832-4.454c2.081-5.709,10.115-8.291,10.2-8.319a.678.678,0,0,0,.48-.672v-.017a.684.684,0,0,0-.518-.645c-10.283-2.609-15.05,3.779-15.389,4.259L19.67,32.135a.712.712,0,0,0-.045.772l1.855,3.151-.71.933L17.52,35.745a.687.687,0,0,0-.789.226l-2.2,2.877a2.273,2.273,0,0,0-.453,1.708,2.349,2.349,0,0,0,.11.439,2.213,2.213,0,0,0,.775,1.049l6.992,5.178a2.249,2.249,0,0,0,1.348.442,2.334,2.334,0,0,0,1.855-.916l2.037-2.664a.681.681,0,0,0,.117-.6.619.619,0,0,0-.086-.2l-1.78-2.774.967-1.269,2.928.868a.68.68,0,0,0,.744-.247l1.389-1.858c.168.123,20.543,15.245,20.56,15.259a.7.7,0,0,0,.96-.144A.689.689,0,0,0,52.848,52.167ZM29.35,26.01a.682.682,0,0,1-.95.189l-1.625-1.084.833-1.09,1.553,1.036a.681.681,0,0,1,.189.95Z" transform="translate(-9.236 -9.857)"/></g></g></svg>