<svg xmlns="http://www.w3.org/2000/svg" width="72" height="72" viewBox="0 0 72 72"><defs><style>.a,.b{fill:#fff;}.a{stroke:#bfd700;}.b{stroke:#0b73b9;}.c{stroke:none;}.d{fill:none;}</style></defs><g transform="translate(-684.001 -2189)"><g transform="translate(683.895 2189.085)"><g class="a" transform="translate(0.106 -0.085)"><circle class="c" cx="36" cy="36" r="36"/><circle class="d" cx="36" cy="36" r="35.5"/></g><g class="b" transform="translate(2.106 1.915)"><ellipse class="c" cx="33.5" cy="34" rx="33.5" ry="34"/><ellipse class="d" cx="33.5" cy="34" rx="33" ry="33.5"/></g></g><g transform="translate(700.507 2206.225)"><path d="M40.231,9.27H29.555V8.2a3.206,3.206,0,0,0-3.2-3.2h-4.27a3.206,3.206,0,0,0-3.2,3.2V9.27H8.2a3.206,3.206,0,0,0-3.2,3.2V35.96a3.206,3.206,0,0,0,3.2,3.2H18.879v1.068a3.206,3.206,0,0,0,3.2,3.2h4.27a3.206,3.206,0,0,0,3.2-3.2V39.163H40.231a3.206,3.206,0,0,0,3.2-3.2V12.473A3.206,3.206,0,0,0,40.231,9.27ZM26.352,41.3h-4.27a1.069,1.069,0,0,1-1.068-1.068V39.163H27.42v1.068A1.069,1.069,0,0,1,26.352,41.3ZM22.082,7.135h4.27A1.069,1.069,0,0,1,27.42,8.2V9.27H21.014V8.2A1.069,1.069,0,0,1,22.082,7.135ZM27.42,38.1H21.014V32.758H27.42Zm0-11.744V31.69H21.014V26.352Zm-6.406-1.068V23.149H27.42v2.135Zm0-3.2V16.744H27.42v5.338Zm6.406-6.406H21.014V10.338H27.42ZM8.2,37.028A1.069,1.069,0,0,1,7.135,35.96V12.473A1.069,1.069,0,0,1,8.2,11.406H18.879V37.028ZM41.3,35.96a1.069,1.069,0,0,1-1.068,1.068H29.555V11.406H40.231A1.069,1.069,0,0,1,41.3,12.473Z" transform="translate(-5 -5)"/><path d="M24.635,29.27A2.135,2.135,0,1,0,22.5,27.135,2.138,2.138,0,0,0,24.635,29.27Zm0-3.2a1.068,1.068,0,1,1-1.068,1.068A1.069,1.069,0,0,1,24.635,26.068Z" transform="translate(-15.027 -16.459)"/><path d="M69.635,29.27A2.135,2.135,0,1,0,67.5,27.135,2.138,2.138,0,0,0,69.635,29.27Zm0-3.2a1.068,1.068,0,1,1-1.068,1.068A1.069,1.069,0,0,1,69.635,26.068Z" transform="translate(-40.81 -16.459)"/><path d="M77.135,45a2.135,2.135,0,1,0,2.135,2.135A2.138,2.138,0,0,0,77.135,45Zm0,3.2A1.068,1.068,0,1,1,78.2,47.135,1.069,1.069,0,0,1,77.135,48.2Z" transform="translate(-45.107 -27.918)"/><path d="M69.635,65a2.135,2.135,0,1,0,2.135,2.135A2.138,2.138,0,0,0,69.635,65Zm0,3.2A1.068,1.068,0,1,1,70.7,67.135,1.069,1.069,0,0,1,69.635,68.2Z" transform="translate(-40.81 -39.378)"/><path d="M19.27,47.135a2.135,2.135,0,1,0-2.135,2.135A2.138,2.138,0,0,0,19.27,47.135ZM17.135,48.2A1.068,1.068,0,1,1,18.2,47.135,1.069,1.069,0,0,1,17.135,48.2Z" transform="translate(-10.73 -27.918)"/><path d="M24.635,65a2.135,2.135,0,1,0,2.135,2.135A2.138,2.138,0,0,0,24.635,65Zm0,3.2A1.068,1.068,0,1,1,25.7,67.135,1.069,1.069,0,0,1,24.635,68.2Z" transform="translate(-15.027 -39.378)"/></g></g></svg>