<svg xmlns="http://www.w3.org/2000/svg" viewBox="0 0 19 19" width="19" height="19">
	<style>
		tspan { white-space:pre }
		.shp0 { fill: #484848 } 
	</style>
	<path id="Layer" fill-rule="evenodd" class="shp0" d="M9.69 18.8C8.49 18.8 7.3 18.56 6.19 18.1C5.08 17.65 4.07 16.97 3.23 16.12C2.38 15.27 1.7 14.27 1.24 13.16C0.79 12.05 0.55 10.86 0.55 9.66C0.55 5.96 2.78 2.63 6.19 1.22C9.61 -0.2 13.54 0.59 16.15 3.2C18.77 5.82 19.55 9.75 18.13 13.16C16.72 16.58 13.38 18.8 9.69 18.8ZM8.62 13.51C8.54 13.59 8.47 13.69 8.42 13.8C8.38 13.9 8.35 14.02 8.35 14.14C8.35 14.26 8.37 14.37 8.41 14.48C8.46 14.59 8.53 14.69 8.61 14.78L9.01 15.18C9.1 15.26 9.19 15.32 9.3 15.37C9.41 15.41 9.52 15.44 9.64 15.44C9.75 15.44 9.87 15.41 9.98 15.37C10.08 15.32 10.18 15.26 10.26 15.18L15.15 10.29C15.24 10.2 15.3 10.11 15.35 10C15.39 9.89 15.41 9.78 15.41 9.66C15.41 9.55 15.39 9.43 15.35 9.32C15.3 9.22 15.24 9.12 15.15 9.04L10.26 4.15C10.18 4.07 10.08 4 9.98 3.96C9.87 3.91 9.75 3.89 9.64 3.89C9.52 3.89 9.41 3.91 9.3 3.96C9.19 4 9.1 4.07 9.01 4.15L8.61 4.55C8.53 4.63 8.46 4.73 8.42 4.84C8.37 4.95 8.35 5.07 8.35 5.19C8.35 5.3 8.38 5.42 8.42 5.53C8.47 5.64 8.54 5.73 8.62 5.81L11.4 8.49L4.68 8.49C4.56 8.49 4.44 8.51 4.34 8.55C4.23 8.6 4.13 8.66 4.05 8.74C3.97 8.83 3.9 8.92 3.86 9.03C3.81 9.14 3.79 9.25 3.79 9.37L3.79 9.96C3.79 10.08 3.82 10.19 3.86 10.3C3.9 10.41 3.97 10.5 4.05 10.58C4.13 10.67 4.23 10.73 4.34 10.77C4.45 10.82 4.56 10.84 4.68 10.84L11.41 10.84L8.62 13.51Z" />
</svg>