<svg xmlns="http://www.w3.org/2000/svg" xmlns:xlink="http://www.w3.org/1999/xlink" width="40" height="40" viewBox="0 0 40 40"><defs><style>.a{fill:#586167;}.b{clip-path:url(#a);}</style><clipPath id="a"><rect class="a" width="40" height="40"/></clipPath></defs><g class="b"><path class="a" d="M32.5,0H7.5A7.508,7.508,0,0,0,0,7.5V8.75H2.5V7.5a5.005,5.005,0,0,1,5-5h25a5.005,5.005,0,0,1,5,5V25a5.005,5.005,0,0,1-5,5H31.25a1.247,1.247,0,0,0-.884.366L25,35.733V33.75H22.5v5a1.25,1.25,0,0,0,2.134.884L31.767,32.5H32.5A7.508,7.508,0,0,0,40,25V7.5A7.508,7.508,0,0,0,32.5,0"/><path class="a" d="M21.25,10h-15A6.257,6.257,0,0,0,0,16.25v10a6.26,6.26,0,0,0,5,6.124V38.75a1.25,1.25,0,0,0,2.134.884L14.267,32.5H21.25a6.257,6.257,0,0,0,6.25-6.25v-10A6.257,6.257,0,0,0,21.25,10M25,26.25A3.755,3.755,0,0,1,21.25,30h-7.5a1.247,1.247,0,0,0-.884.366L7.5,35.733V31.25A1.25,1.25,0,0,0,6.25,30,3.755,3.755,0,0,1,2.5,26.25v-10A3.755,3.755,0,0,1,6.25,12.5h15A3.755,3.755,0,0,1,25,16.25Z"/><rect class="a" width="2.5" height="2.5" transform="translate(12.5 20)"/><rect class="a" width="2.5" height="2.5" transform="translate(18.75 20)"/><rect class="a" width="2.5" height="2.5" transform="translate(6.25 20)"/></g></svg>