<svg xmlns="http://www.w3.org/2000/svg" xmlns:xlink="http://www.w3.org/1999/xlink" width="69.999" height="70" viewBox="0 0 69.999 70">
  <defs>
    <linearGradient id="linear-gradient" x1="0.5" x2="0.5" y2="1" gradientUnits="objectBoundingBox">
      <stop offset="0" stop-color="#abc000"/>
      <stop offset="1" stop-color="#2d68c4"/>
    </linearGradient>
  </defs>
  <g id="Group_21290" data-name="Group 21290" transform="translate(-505.5 -1394.188)">
    <path id="Path_8" data-name="Path 8" d="M90.027,46.731,91.3,44.626a1.094,1.094,0,0,0-1.871-1.134L88.156,45.6a1.094,1.094,0,1,0,1.871,1.134Z" transform="translate(465.626 1374.719)" fill="url(#linear-gradient)"/>
    <path id="Path_9" data-name="Path 9" d="M92.859,61.521a1.094,1.094,0,1,0,1.415-1.669l-1.962-1.665A1.094,1.094,0,1,0,90.9,59.856Z" transform="translate(464.487 1367.939)" fill="url(#linear-gradient)"/>
    <path id="Path_10" data-name="Path 10" d="M98.731,51.283a1.092,1.092,0,0,0-1.268-.885l-4.15.738a1.094,1.094,0,0,0,.19,2.171,1.078,1.078,0,0,0,.193-.017l4.15-.738A1.094,1.094,0,0,0,98.731,51.283Z" transform="translate(463.627 1371.359)" fill="url(#linear-gradient)"/>
    <path id="Path_11" data-name="Path 11" d="M16.891,19.73q-.193.2-.384.413a1.094,1.094,0,1,0,1.614,1.477q.179-.2.361-.388a1.094,1.094,0,0,0-1.591-1.5Z" transform="translate(498.15 1385.403)" fill="#2d68c4"/>
    <path id="Path_12" data-name="Path 12" d="M6.771,36.648a1.094,1.094,0,0,0,1.461-.509c.077-.159.155-.318.235-.476a1.094,1.094,0,1,0-1.954-.984q-.127.252-.25.507A1.1,1.1,0,0,0,6.771,36.648Z" transform="translate(502.712 1378.747)" fill="#2d68c4"/>
    <path id="Path_13" data-name="Path 13" d="M23.588,13.545q-.221.176-.439.354a1.094,1.094,0,0,0,1.385,1.694q.2-.168.412-.332a1.094,1.094,0,0,0-1.359-1.715Z" transform="translate(495.192 1388.157)" fill="#2d68c4"/>
    <path id="Path_14" data-name="Path 14" d="M1.692,71.764a1.094,1.094,0,0,0,.943-1.226q-.034-.262-.064-.525A1.094,1.094,0,1,0,.4,70.259q.032.282.068.562a1.094,1.094,0,0,0,1.083.953,1.079,1.079,0,0,0,.143-.009Z" transform="translate(505.323 1362.903)" fill="#2d68c4"/>
    <path id="Path_15" data-name="Path 15" d="M31.11,8.4q-.244.141-.484.286a1.094,1.094,0,1,0,1.126,1.876q.226-.136.455-.269A1.094,1.094,0,1,0,31.11,8.4Z" transform="translate(491.863 1390.449)" fill="#2d68c4"/>
    <path id="Path_16" data-name="Path 16" d="M.882,52.015c-.033.185-.064.371-.094.557a1.094,1.094,0,0,0,.907,1.253,1.072,1.072,0,0,0,.174.014,1.094,1.094,0,0,0,1.079-.921q.042-.261.088-.521a1.094,1.094,0,0,0-2.154-.383Z" transform="translate(505.149 1371.027)" fill="#2d68c4"/>
    <path id="Path_17" data-name="Path 17" d="M3.059,43.14q-.089.268-.173.537a1.094,1.094,0,1,0,2.087.657q.08-.255.164-.509a1.094,1.094,0,1,0-2.078-.685Z" transform="translate(504.216 1374.98)" fill="#2d68c4"/>
    <path id="Path_18" data-name="Path 18" d="M.013,61.117Q0,61.4,0,61.682a1.094,1.094,0,0,0,1.078,1.11h.016a1.094,1.094,0,0,0,1.094-1.078q0-.265.012-.529a1.094,1.094,0,0,0-1.06-1.127,1.071,1.071,0,0,0-1.127,1.06Z" transform="translate(505.5 1366.976)" fill="#2d68c4"/>
    <path id="Path_19" data-name="Path 19" d="M65.61,0a1.094,1.094,0,0,0-.09,2.186c.177.007.354.015.531.026l.062,0a1.094,1.094,0,0,0,.06-2.187Q65.892.012,65.61,0Z" transform="translate(476.287 1394.188)" fill="#2d68c4"/>
    <path id="Path_20" data-name="Path 20" d="M74.7,1.028a1.094,1.094,0,1,0-.4,2.151q.261.049.521.1a1.094,1.094,0,1,0,.436-2.145Q74.981,1.08,74.7,1.028Z" transform="translate(472.237 1393.73)" fill="#2d68c4"/>
    <path id="Path_21" data-name="Path 21" d="M39.3,4.4q-.261.1-.519.212a1.094,1.094,0,1,0,.843,2.02c.163-.068.326-.135.49-.2A1.094,1.094,0,0,0,39.3,4.4Z" transform="translate(488.232 1392.229)" fill="#2d68c4"/>
    <path id="Path_22" data-name="Path 22" d="M82.841,5.438q.249.086.5.176a1.094,1.094,0,1,0,.749-2.056q-.267-.1-.535-.19a1.094,1.094,0,1,0-.711,2.07Z" transform="translate(468.298 1392.688)" fill="#2d68c4"/>
    <path id="Path_23" data-name="Path 23" d="M48,1.646q-.274.065-.547.134A1.094,1.094,0,0,0,48,3.9c.171-.044.343-.085.515-.127A1.094,1.094,0,1,0,48,1.646Z" transform="translate(484.37 1393.455)" fill="#2d68c4"/>
    <path id="Path_24" data-name="Path 24" d="M56.466.242a1.094,1.094,0,0,0,.111,2.183,1.021,1.021,0,0,0,.114-.006q.263-.027.528-.05a1.094,1.094,0,1,0-.192-2.18Q56.745.214,56.466.242Z" transform="translate(480.358 1394.104)" fill="#2d68c4"/>
    <path id="Path_25" data-name="Path 25" d="M63.259,123.994l-.37,0h-.164a1.094,1.094,0,0,0-.01,2.188h.174l.4,0a1.094,1.094,0,1,0-.027-2.188Z" transform="translate(477.575 1338.003)" fill="#2d68c4"/>
    <path id="Path_26" data-name="Path 26" d="M45.824,121.527c-.17-.049-.339-.1-.507-.15a1.094,1.094,0,1,0-.637,2.093q.27.083.542.16a1.094,1.094,0,0,0,.6-2.1Z" transform="translate(485.605 1339.21)" fill="#2d68c4"/>
    <path id="Path_27" data-name="Path 27" d="M54.453,123.4q-.262-.035-.522-.074a1.094,1.094,0,1,0-.327,2.164q.28.042.561.08a1.124,1.124,0,0,0,.146.01,1.094,1.094,0,0,0,.143-2.179Z" transform="translate(481.632 1338.313)" fill="#2d68c4"/>
    <path id="Path_28" data-name="Path 28" d="M37.552,118.415c-.161-.073-.321-.147-.481-.223a1.094,1.094,0,1,0-.935,1.979q.256.121.514.238a1.094,1.094,0,0,0,.9-1.994Z" transform="translate(489.409 1340.68)" fill="#2d68c4"/>
    <path id="Path_29" data-name="Path 29" d="M80.691,121.259c-.168.052-.337.1-.507.153a1.094,1.094,0,1,0,.615,2.1q.271-.08.54-.164a1.094,1.094,0,1,0-.648-2.09Z" transform="translate(469.523 1339.265)" fill="#2d68c4"/>
    <path id="Path_30" data-name="Path 30" d="M72.074,123.261q-.26.041-.521.077a1.094,1.094,0,0,0,.149,2.178,1.123,1.123,0,0,0,.152-.01q.281-.039.561-.083a1.094,1.094,0,1,0-.34-2.162Z" transform="translate(473.505 1338.342)" fill="#2d68c4"/>
    <path id="Path_31" data-name="Path 31" d="M4.34,79.205q-.072-.255-.14-.511a1.094,1.094,0,1,0-2.114.561q.072.272.149.544a1.094,1.094,0,0,0,1.052.8,1.083,1.083,0,0,0,.3-.042A1.094,1.094,0,0,0,4.34,79.205Z" transform="translate(504.571 1358.898)" fill="#2d68c4"/>
    <path id="Path_32" data-name="Path 32" d="M29.825,114.133q-.224-.144-.445-.291a1.094,1.094,0,0,0-1.211,1.823q.235.155.472.308a1.094,1.094,0,0,0,1.184-1.84Z" transform="translate(492.957 1342.686)" fill="#2d68c4"/>
    <path id="Path_33" data-name="Path 33" d="M7.285,87.53q-.107-.24-.211-.482a1.094,1.094,0,0,0-2.011.861c.074.173.149.345.226.516a1.094,1.094,0,0,0,2-.9Z" transform="translate(503.246 1355.045)" fill="#2d68c4"/>
    <path id="Path_34" data-name="Path 34" d="M11.128,94.888A1.094,1.094,0,0,0,9.262,96.03q.147.241.3.479a1.094,1.094,0,1,0,1.846-1.174Q11.266,95.113,11.128,94.888Z" transform="translate(501.376 1351.429)" fill="#2d68c4"/>
    <path id="Path_35" data-name="Path 35" d="M12.949,28.078a1.094,1.094,0,0,0-1.792-1.255q-.161.231-.32.464a1.094,1.094,0,1,0,1.811,1.229Q12.8,28.3,12.949,28.078Z" transform="translate(500.675 1382.245)" fill="#2d68c4"/>
    <path id="Path_36" data-name="Path 36" d="M16.274,102.064a1.094,1.094,0,1,0-1.682,1.4q.181.217.366.432a1.094,1.094,0,1,0,1.657-1.43Q16.443,102.267,16.274,102.064Z" transform="translate(499.003 1348.118)" fill="#2d68c4"/>
    <path id="Path_37" data-name="Path 37" d="M22.4,108.427a1.094,1.094,0,1,0-1.463,1.627q.21.188.423.374a1.094,1.094,0,0,0,1.436-1.651Q22.6,108.6,22.4,108.427Z" transform="translate(496.177 1345.184)" fill="#2d68c4"/>
    <path id="Path_38" data-name="Path 38" d="M91.642,116.1l-4.318-.511a1.094,1.094,0,1,0-.257,2.173l2.436.288-1.467,1.965a1.094,1.094,0,0,0,1.752,1.31l2.6-3.483a1.094,1.094,0,0,0-.748-1.742Z" transform="translate(466.485 1341.816)" fill="#2d68c4"/>
    <path id="Path_39" data-name="Path 39" d="M75.926,74.276l-32.78-24.33,3.861-5.162c.334.2,27.683,16.527,27.7,16.543a1.12,1.12,0,0,0,1.5-.383,1.1,1.1,0,0,0-.383-1.5L48.319,43.016l2.445-3.265a1.1,1.1,0,0,0,.213-.629,1.082,1.082,0,0,0-.17-.629l-4.517-7.1c3.32-9.105,16.133-13.223,16.264-13.267a1.082,1.082,0,0,0,.766-1.072v-.027A1.09,1.09,0,0,0,62.494,16c-16.4-4.162-24,6.027-24.544,6.792L23.01,42.327a1.135,1.135,0,0,0-.071,1.23L25.9,48.584l-1.132,1.487-5.184-1.985a1.1,1.1,0,0,0-1.258.361l-3.511,4.588a3.625,3.625,0,0,0-.722,2.723,3.746,3.746,0,0,0,.175.7A3.53,3.53,0,0,0,15.5,58.132L26.652,66.39A3.587,3.587,0,0,0,28.8,67.1a3.723,3.723,0,0,0,2.959-1.46l3.248-4.249a1.086,1.086,0,0,0,.186-.952.987.987,0,0,0-.137-.312L32.219,55.7l1.542-2.023,4.67,1.384a1.084,1.084,0,0,0,1.187-.394L41.834,51.7c.268.2,32.763,24.314,32.791,24.336a1.116,1.116,0,0,0,1.531-.23A1.1,1.1,0,0,0,75.926,74.276ZM38.448,32.56a1.088,1.088,0,0,1-1.515.3l-2.592-1.728,1.329-1.739,2.477,1.652a1.087,1.087,0,0,1,.3,1.515Z" transform="translate(499.131 1387.391)" fill="url(#linear-gradient)"/>
  </g>
</svg>
