<svg xmlns="http://www.w3.org/2000/svg" viewBox="0 0 70 70" width="70" height="70">
	<style>
		tspan { white-space:pre }
		.shp0 { fill: #000000 } 
	</style>
	<g id="Layer">
		<path id="Layer" class="shp0" d="M50.15 27.26L51.43 25.16C51.57 24.91 51.61 24.61 51.54 24.34C51.47 24.06 51.3 23.82 51.05 23.67C50.8 23.52 50.51 23.47 50.23 23.54C49.95 23.61 49.71 23.78 49.55 24.02L48.28 26.13C48.13 26.38 48.08 26.68 48.15 26.96C48.21 27.25 48.39 27.49 48.64 27.65C48.89 27.8 49.19 27.84 49.48 27.77C49.76 27.7 50 27.52 50.15 27.27L50.15 27.26Z" />
		<path id="Layer" class="shp0" d="M51.85 35.27C52.07 35.46 52.35 35.55 52.64 35.53C52.93 35.5 53.2 35.37 53.39 35.15C53.58 34.92 53.67 34.64 53.64 34.35C53.62 34.06 53.48 33.79 53.26 33.6L51.3 31.94C51.08 31.74 50.79 31.63 50.49 31.65C50.19 31.67 49.92 31.81 49.72 32.04C49.53 32.27 49.44 32.56 49.47 32.86C49.5 33.15 49.65 33.43 49.89 33.61L51.85 35.27Z" />
		<path id="Layer" class="shp0" d="M56.86 28.45C56.83 28.31 56.78 28.18 56.7 28.06C56.63 27.94 56.53 27.83 56.41 27.75C56.29 27.67 56.16 27.61 56.02 27.58C55.88 27.55 55.73 27.54 55.59 27.57L51.44 28.31C51.17 28.36 50.93 28.5 50.76 28.72C50.6 28.94 50.52 29.21 50.54 29.48C50.57 29.75 50.69 30.01 50.89 30.19C51.09 30.38 51.36 30.48 51.63 30.48C51.65 30.48 51.66 30.48 51.68 30.48C51.69 30.48 51.71 30.48 51.73 30.47C51.74 30.47 51.76 30.47 51.78 30.47C51.79 30.47 51.81 30.46 51.82 30.46L55.97 29.72C56.11 29.7 56.25 29.65 56.37 29.57C56.49 29.49 56.6 29.39 56.68 29.27C56.76 29.15 56.82 29.02 56.85 28.88C56.88 28.74 56.88 28.6 56.86 28.45Z" />
		<path id="Layer" class="shp0" d="M9.54 10.95C9.41 11.08 9.28 11.22 9.16 11.36C8.96 11.57 8.85 11.86 8.86 12.15C8.87 12.44 9 12.72 9.22 12.92C9.43 13.11 9.72 13.22 10.01 13.2C10.3 13.19 10.58 13.05 10.77 12.84C10.89 12.7 11.01 12.57 11.13 12.45C11.32 12.23 11.42 11.96 11.4 11.67C11.39 11.39 11.27 11.12 11.06 10.93C10.85 10.74 10.58 10.63 10.3 10.63C10.01 10.64 9.74 10.75 9.54 10.95L9.54 10.95Z" />
		<path id="Layer" class="shp0" d="M3.98 21.21C4.11 21.27 4.25 21.31 4.4 21.32C4.54 21.32 4.68 21.3 4.82 21.26C4.95 21.21 5.08 21.14 5.19 21.04C5.29 20.94 5.38 20.83 5.44 20.7C5.52 20.54 5.6 20.38 5.68 20.22C5.81 19.96 5.84 19.66 5.75 19.38C5.66 19.1 5.46 18.87 5.2 18.74C4.94 18.61 4.64 18.59 4.36 18.68C4.08 18.77 3.85 18.98 3.72 19.24C3.64 19.41 3.56 19.58 3.47 19.75C3.41 19.88 3.38 20.02 3.37 20.16C3.36 20.3 3.38 20.45 3.43 20.58C3.48 20.72 3.55 20.84 3.64 20.95C3.74 21.06 3.85 21.14 3.98 21.21L3.98 21.21Z" />
		<path id="Layer" class="shp0" d="M13.28 7.51C13.13 7.63 12.99 7.75 12.84 7.87C12.62 8.05 12.47 8.32 12.45 8.61C12.42 8.9 12.5 9.18 12.69 9.41C12.87 9.63 13.14 9.78 13.43 9.8C13.71 9.83 14 9.75 14.23 9.56C14.36 9.45 14.5 9.34 14.64 9.23C14.87 9.05 15.01 8.79 15.05 8.5C15.08 8.21 15 7.92 14.82 7.69C14.64 7.47 14.37 7.32 14.09 7.29C13.8 7.25 13.51 7.34 13.28 7.52L13.28 7.51Z" />
		<path id="Layer" class="shp0" d="M1.51 40.48C1.66 40.46 1.79 40.41 1.92 40.34C2.04 40.27 2.15 40.18 2.24 40.06C2.33 39.95 2.39 39.82 2.43 39.68C2.47 39.54 2.48 39.4 2.46 39.25C2.44 39.08 2.41 38.9 2.39 38.73C2.38 38.43 2.24 38.15 2.01 37.96C1.78 37.76 1.48 37.67 1.18 37.71C0.88 37.74 0.61 37.9 0.43 38.14C0.25 38.38 0.17 38.68 0.22 38.97C0.24 39.16 0.27 39.35 0.29 39.54C0.31 39.67 0.35 39.79 0.41 39.91C0.47 40.03 0.55 40.13 0.65 40.22C0.75 40.3 0.87 40.37 0.99 40.42C1.11 40.47 1.24 40.49 1.37 40.49C1.39 40.49 1.4 40.49 1.41 40.49C1.42 40.49 1.43 40.49 1.45 40.49C1.46 40.49 1.47 40.49 1.48 40.49C1.49 40.48 1.51 40.48 1.52 40.48L1.51 40.48Z" />
		<path id="Layer" class="shp0" d="M17.47 4.66C17.31 4.76 17.15 4.85 16.99 4.95C16.74 5.1 16.56 5.34 16.49 5.62C16.42 5.9 16.46 6.2 16.61 6.45C16.76 6.7 17 6.88 17.29 6.95C17.57 7.02 17.87 6.97 18.12 6.82C18.27 6.73 18.42 6.64 18.57 6.55C18.83 6.41 19.01 6.17 19.09 5.89C19.16 5.61 19.13 5.31 18.98 5.05C18.83 4.8 18.59 4.62 18.31 4.54C18.03 4.47 17.73 4.51 17.47 4.66L17.47 4.66Z" />
		<path id="Layer" class="shp0" d="M0.53 28.85C0.5 29.04 0.47 29.23 0.44 29.41C0.41 29.55 0.42 29.7 0.45 29.84C0.49 29.98 0.55 30.11 0.63 30.23C0.72 30.34 0.82 30.44 0.94 30.52C1.07 30.59 1.2 30.64 1.34 30.66C1.36 30.67 1.37 30.67 1.39 30.67C1.4 30.67 1.42 30.67 1.43 30.68C1.45 30.68 1.46 30.68 1.47 30.68C1.49 30.68 1.5 30.68 1.52 30.68C1.65 30.68 1.77 30.66 1.9 30.61C2.02 30.57 2.13 30.5 2.23 30.42C2.33 30.33 2.41 30.23 2.47 30.12C2.53 30.01 2.58 29.89 2.6 29.76C2.62 29.58 2.65 29.41 2.68 29.24C2.73 28.95 2.66 28.66 2.5 28.43C2.33 28.19 2.08 28.03 1.8 27.98C1.51 27.93 1.22 28 0.99 28.16C0.75 28.32 0.59 28.57 0.53 28.85L0.53 28.85Z" />
		<path id="Layer" class="shp0" d="M1.77 23.93C1.71 24.11 1.66 24.29 1.6 24.47C1.51 24.75 1.54 25.05 1.67 25.31C1.81 25.57 2.04 25.76 2.31 25.85C2.59 25.94 2.89 25.91 3.15 25.77C3.41 25.64 3.6 25.41 3.69 25.13C3.74 24.96 3.8 24.79 3.85 24.62C3.94 24.34 3.92 24.04 3.79 23.78C3.66 23.52 3.43 23.33 3.16 23.23C2.88 23.14 2.58 23.17 2.32 23.3C2.06 23.43 1.86 23.66 1.77 23.93L1.77 23.93Z" />
		<path id="Layer" class="shp0" d="M0.01 33.9C0 34.09 0 34.28 0 34.47C0 34.61 0.02 34.76 0.08 34.89C0.13 35.02 0.21 35.15 0.31 35.25C0.41 35.35 0.53 35.43 0.66 35.49C0.79 35.55 0.93 35.58 1.08 35.58L1.09 35.58C1.24 35.58 1.38 35.55 1.51 35.5C1.64 35.44 1.76 35.37 1.86 35.27C1.96 35.17 2.04 35.05 2.1 34.92C2.16 34.78 2.19 34.64 2.19 34.5C2.19 34.33 2.19 34.15 2.2 33.97C2.2 33.83 2.18 33.69 2.13 33.55C2.08 33.42 2 33.29 1.9 33.19C1.8 33.09 1.69 33 1.56 32.94C1.42 32.88 1.28 32.85 1.14 32.85C1 32.84 0.85 32.86 0.72 32.91C0.58 32.96 0.46 33.04 0.35 33.14C0.24 33.23 0.16 33.35 0.1 33.49C0.04 33.62 0.01 33.76 0.01 33.91L0.01 33.9Z" />
		<path id="Layer" class="shp0" d="M36.4 0C36.11 -0.01 35.83 0.1 35.62 0.29C35.41 0.49 35.28 0.76 35.27 1.05C35.26 1.34 35.36 1.62 35.56 1.83C35.75 2.04 36.02 2.17 36.31 2.19C36.48 2.19 36.66 2.2 36.84 2.21L36.9 2.21C37.19 2.22 37.47 2.11 37.67 1.91C37.88 1.71 38 1.44 38.01 1.15C38.02 0.86 37.91 0.58 37.72 0.37C37.52 0.16 37.25 0.04 36.96 0.03C36.77 0.02 36.58 0.01 36.4 0Z" />
		<path id="Layer" class="shp0" d="M41.44 0.57C41.15 0.52 40.85 0.58 40.61 0.74C40.37 0.9 40.2 1.16 40.15 1.45C40.1 1.73 40.16 2.03 40.33 2.27C40.49 2.51 40.75 2.67 41.04 2.72C41.21 2.76 41.38 2.79 41.56 2.82C41.84 2.88 42.14 2.82 42.38 2.66C42.62 2.5 42.79 2.25 42.85 1.97C42.91 1.68 42.85 1.39 42.69 1.15C42.53 0.9 42.28 0.74 41.99 0.68C41.81 0.64 41.62 0.61 41.44 0.57Z" />
		<path id="Layer" class="shp0" d="M22.03 2.44C21.86 2.51 21.68 2.58 21.51 2.65C21.25 2.77 21.03 2.98 20.92 3.25C20.81 3.52 20.81 3.82 20.92 4.09C21.04 4.35 21.25 4.57 21.52 4.68C21.79 4.79 22.09 4.79 22.36 4.67C22.52 4.61 22.68 4.54 22.85 4.47C23.12 4.37 23.33 4.16 23.44 3.89C23.56 3.62 23.56 3.32 23.45 3.05C23.35 2.78 23.14 2.57 22.87 2.45C22.6 2.34 22.3 2.33 22.03 2.44L22.03 2.44Z" />
		<path id="Layer" class="shp0" d="M45.64 3.94C45.8 4 45.97 4.06 46.14 4.12C46.41 4.22 46.71 4.2 46.98 4.08C47.24 3.96 47.44 3.74 47.54 3.46C47.64 3.19 47.63 2.89 47.51 2.63C47.38 2.36 47.16 2.16 46.89 2.06C46.71 1.99 46.53 1.93 46.35 1.87C46.08 1.78 45.78 1.79 45.52 1.92C45.26 2.05 45.06 2.28 44.96 2.55C44.87 2.82 44.89 3.12 45.01 3.39C45.14 3.65 45.37 3.85 45.64 3.94L45.64 3.94Z" />
		<path id="Layer" class="shp0" d="M26.87 0.91C26.69 0.96 26.5 1 26.32 1.05C26.04 1.12 25.8 1.3 25.65 1.55C25.51 1.8 25.46 2.1 25.54 2.38C25.61 2.66 25.79 2.9 26.04 3.05C26.29 3.2 26.59 3.24 26.87 3.17C27.04 3.12 27.21 3.08 27.38 3.04C27.67 2.97 27.91 2.79 28.06 2.55C28.21 2.3 28.26 2 28.19 1.72C28.12 1.44 27.94 1.19 27.7 1.04C27.45 0.89 27.15 0.85 26.87 0.91L26.87 0.91Z" />
		<path id="Layer" class="shp0" d="M31.32 0.16C31.04 0.19 30.79 0.32 30.6 0.53C30.42 0.75 30.32 1.02 30.34 1.3C30.35 1.58 30.47 1.85 30.68 2.04C30.88 2.24 31.15 2.34 31.44 2.34C31.45 2.34 31.45 2.34 31.46 2.34C31.47 2.34 31.48 2.34 31.49 2.34C31.5 2.34 31.51 2.34 31.52 2.34C31.53 2.34 31.54 2.34 31.55 2.34C31.73 2.32 31.9 2.3 32.08 2.29C32.37 2.26 32.63 2.12 32.82 1.9C33.01 1.68 33.1 1.39 33.07 1.1C33.05 0.81 32.91 0.54 32.68 0.36C32.46 0.17 32.18 0.08 31.89 0.11C31.7 0.12 31.51 0.14 31.32 0.16Z" />
		<path id="Layer" class="shp0" d="M35.33 67.81L34.96 67.81L34.8 67.81C34.51 67.81 34.23 67.92 34.03 68.13C33.82 68.33 33.7 68.61 33.7 68.9C33.7 69.19 33.81 69.47 34.02 69.67C34.22 69.88 34.5 70 34.79 70L34.96 70L35.36 70C35.66 69.99 35.93 69.88 36.13 69.67C36.34 69.46 36.45 69.18 36.45 68.89C36.44 68.6 36.32 68.32 36.12 68.12C35.91 67.92 35.63 67.81 35.34 67.81L35.33 67.81Z" />
		<path id="Layer" class="shp0" d="M25.93 66.55C25.76 66.5 25.59 66.45 25.42 66.4C25.14 66.31 24.84 66.34 24.58 66.47C24.32 66.61 24.13 66.84 24.04 67.12C23.96 67.4 23.99 67.71 24.13 67.96C24.27 68.22 24.5 68.41 24.79 68.49C24.97 68.55 25.15 68.6 25.33 68.65C25.6 68.71 25.89 68.67 26.12 68.52C26.36 68.38 26.54 68.15 26.62 67.89C26.69 67.62 26.66 67.33 26.54 67.08C26.41 66.84 26.19 66.65 25.93 66.55L25.93 66.55Z" />
		<path id="Layer" class="shp0" d="M30.58 67.53C30.41 67.5 30.24 67.48 30.06 67.45C29.78 67.41 29.48 67.48 29.25 67.65C29.02 67.83 28.86 68.08 28.82 68.37C28.77 68.66 28.85 68.95 29.02 69.18C29.19 69.42 29.45 69.57 29.74 69.62C29.92 69.64 30.11 69.67 30.3 69.7C30.31 69.7 30.32 69.7 30.33 69.7C30.35 69.7 30.36 69.7 30.37 69.7C30.38 69.7 30.39 69.7 30.41 69.71C30.42 69.71 30.43 69.71 30.44 69.71C30.72 69.71 30.99 69.6 31.19 69.41C31.4 69.22 31.52 68.96 31.54 68.68C31.56 68.41 31.47 68.13 31.29 67.92C31.11 67.7 30.86 67.56 30.59 67.53L30.58 67.53Z" />
		<path id="Layer" class="shp0" d="M21.46 64.91C21.3 64.83 21.14 64.76 20.98 64.68C20.72 64.56 20.42 64.55 20.14 64.64C19.87 64.74 19.65 64.94 19.52 65.21C19.4 65.47 19.39 65.77 19.48 66.04C19.58 66.32 19.78 66.54 20.05 66.66C20.22 66.74 20.39 66.82 20.56 66.9C20.82 67.01 21.12 67.02 21.39 66.92C21.66 66.81 21.87 66.61 21.99 66.35C22.11 66.09 22.12 65.79 22.02 65.52C21.92 65.25 21.72 65.03 21.46 64.91L21.46 64.91Z" />
		<path id="Layer" class="shp0" d="M44.71 66.34C44.55 66.39 44.38 66.44 44.21 66.49C43.93 66.57 43.69 66.76 43.55 67.02C43.42 67.27 43.38 67.57 43.46 67.85C43.55 68.13 43.73 68.36 43.99 68.5C44.24 68.64 44.54 68.67 44.82 68.59C45 68.54 45.18 68.48 45.36 68.43C45.64 68.34 45.87 68.15 46.01 67.89C46.14 67.63 46.17 67.33 46.08 67.06C46 66.78 45.8 66.55 45.55 66.41C45.29 66.28 44.99 66.25 44.71 66.34L44.71 66.34Z" />
		<path id="Layer" class="shp0" d="M40.08 67.41C39.91 67.44 39.73 67.47 39.56 67.49C39.28 67.53 39.03 67.67 38.86 67.89C38.68 68.1 38.6 68.37 38.61 68.65C38.63 68.93 38.76 69.19 38.96 69.38C39.16 69.57 39.43 69.67 39.71 69.67C39.72 69.67 39.73 69.67 39.75 69.67C39.76 69.67 39.77 69.67 39.78 69.67C39.8 69.67 39.81 69.67 39.82 69.66C39.83 69.66 39.85 69.66 39.86 69.66C40.05 69.63 40.23 69.61 40.42 69.58C40.71 69.53 40.96 69.37 41.13 69.14C41.31 68.91 41.38 68.61 41.33 68.33C41.29 68.04 41.13 67.78 40.89 67.61C40.66 67.44 40.37 67.37 40.08 67.42L40.08 67.41Z" />
		<path id="Layer" class="shp0" d="M3.41 43.92C3.36 43.75 3.32 43.58 3.27 43.4C3.2 43.12 3.02 42.87 2.77 42.72C2.52 42.57 2.21 42.52 1.93 42.6C1.64 42.67 1.4 42.86 1.25 43.12C1.11 43.38 1.07 43.68 1.16 43.97C1.21 44.15 1.26 44.33 1.31 44.51C1.34 44.62 1.39 44.73 1.46 44.83C1.52 44.93 1.6 45.02 1.7 45.09C1.79 45.16 1.9 45.21 2.01 45.25C2.12 45.29 2.24 45.31 2.36 45.31C2.38 45.31 2.41 45.31 2.43 45.31C2.46 45.31 2.49 45.3 2.51 45.3C2.54 45.3 2.56 45.29 2.59 45.29C2.61 45.28 2.63 45.27 2.66 45.27C2.8 45.23 2.93 45.16 3.04 45.07C3.15 44.98 3.25 44.87 3.32 44.75C3.39 44.62 3.43 44.48 3.45 44.34C3.46 44.2 3.45 44.05 3.41 43.92L3.41 43.92Z" />
		<path id="Layer" class="shp0" d="M17.28 62.63C17.13 62.54 16.98 62.44 16.84 62.34C16.6 62.18 16.3 62.12 16.02 62.18C15.73 62.24 15.48 62.41 15.32 62.65C15.16 62.89 15.1 63.18 15.16 63.47C15.22 63.75 15.38 64 15.63 64.16C15.78 64.27 15.94 64.37 16.1 64.47C16.34 64.63 16.64 64.68 16.92 64.62C17.21 64.56 17.45 64.39 17.61 64.14C17.77 63.9 17.82 63.6 17.76 63.32C17.7 63.04 17.53 62.79 17.28 62.63L17.28 62.63Z" />
		<path id="Layer" class="shp0" d="M5.03 48.39C4.96 48.23 4.89 48.07 4.82 47.91C4.7 47.65 4.49 47.44 4.22 47.34C3.95 47.23 3.66 47.24 3.39 47.35C3.13 47.46 2.92 47.67 2.81 47.94C2.7 48.2 2.7 48.5 2.81 48.77C2.88 48.94 2.96 49.11 3.03 49.28C3.16 49.55 3.38 49.75 3.65 49.86C3.92 49.96 4.22 49.95 4.48 49.83C4.75 49.71 4.95 49.49 5.06 49.22C5.16 48.95 5.15 48.65 5.03 48.38L5.03 48.39Z" />
		<path id="Layer" class="shp0" d="M7 52.13C6.85 51.89 6.61 51.71 6.33 51.65C6.05 51.58 5.75 51.63 5.51 51.78C5.26 51.93 5.09 52.17 5.02 52.45C4.95 52.73 4.99 53.02 5.14 53.27C5.24 53.43 5.34 53.59 5.44 53.75C5.59 54 5.84 54.18 6.12 54.24C6.41 54.31 6.71 54.26 6.96 54.1C7.21 53.94 7.38 53.69 7.44 53.41C7.5 53.12 7.45 52.82 7.28 52.58C7.19 52.43 7.1 52.28 7 52.13Z" />
		<path id="Layer" class="shp0" d="M8.12 16.14C8.29 15.9 8.35 15.61 8.29 15.32C8.24 15.04 8.08 14.79 7.85 14.63C7.61 14.46 7.32 14.4 7.04 14.44C6.75 14.49 6.5 14.65 6.33 14.88C6.22 15.03 6.12 15.19 6.01 15.34C5.85 15.59 5.79 15.88 5.84 16.17C5.9 16.45 6.06 16.7 6.3 16.86C6.54 17.03 6.84 17.09 7.12 17.03C7.41 16.98 7.66 16.81 7.82 16.57C7.92 16.43 8.02 16.28 8.12 16.14Z" />
		<path id="Layer" class="shp0" d="M9.78 55.99C9.59 55.77 9.32 55.63 9.04 55.61C8.75 55.58 8.46 55.67 8.24 55.85C8.01 56.04 7.87 56.31 7.85 56.6C7.82 56.88 7.91 57.17 8.1 57.39C8.22 57.54 8.34 57.68 8.46 57.83C8.65 58.05 8.92 58.18 9.21 58.2C9.5 58.22 9.78 58.13 10 57.94C10.22 57.75 10.36 57.48 10.38 57.19C10.4 56.9 10.31 56.62 10.12 56.4C10 56.26 9.89 56.13 9.78 55.99Z" />
		<path id="Layer" class="shp0" d="M13.08 59.42C12.86 59.23 12.58 59.13 12.29 59.15C12 59.16 11.73 59.29 11.53 59.51C11.34 59.72 11.24 60.01 11.25 60.3C11.27 60.59 11.4 60.86 11.61 61.05C11.75 61.18 11.89 61.3 12.04 61.42C12.26 61.62 12.54 61.71 12.83 61.69C13.12 61.67 13.39 61.54 13.58 61.32C13.77 61.1 13.87 60.81 13.85 60.52C13.83 60.23 13.69 59.96 13.47 59.77C13.34 59.66 13.21 59.54 13.08 59.42Z" />
		<path id="Layer" class="shp0" d="M52.63 63.73L48.31 63.22C48.02 63.18 47.73 63.27 47.5 63.45C47.28 63.63 47.13 63.89 47.1 64.18C47.06 64.46 47.14 64.75 47.32 64.98C47.5 65.21 47.76 65.36 48.05 65.39L50.49 65.68L49.02 67.64C48.85 67.88 48.79 68.17 48.83 68.45C48.87 68.73 49.03 68.99 49.26 69.16C49.48 69.33 49.77 69.4 50.06 69.37C50.34 69.33 50.6 69.18 50.77 68.95L53.37 65.47C53.49 65.32 53.56 65.14 53.58 64.94C53.61 64.75 53.58 64.56 53.5 64.38C53.43 64.21 53.31 64.05 53.15 63.94C53 63.82 52.82 63.75 52.63 63.73L52.63 63.73Z" />
		<path id="Layer" fill-rule="evenodd" class="shp0" d="M69.56 67.48C69.67 67.57 69.77 67.67 69.84 67.8C69.92 67.92 69.97 68.06 69.99 68.2C70.01 68.34 70 68.48 69.97 68.62C69.93 68.76 69.87 68.89 69.79 69.01C69.7 69.12 69.59 69.22 69.47 69.29C69.35 69.36 69.21 69.41 69.07 69.43C68.93 69.45 68.78 69.45 68.64 69.42C68.5 69.38 68.37 69.32 68.26 69.24C68.23 69.22 35.73 45.1 35.46 44.9L33.25 47.87C33.18 47.96 33.1 48.04 33.01 48.1C32.92 48.17 32.82 48.22 32.72 48.26C32.61 48.29 32.5 48.31 32.39 48.31C32.28 48.31 32.17 48.3 32.06 48.26L27.39 46.88L25.85 48.9L28.69 53.33C28.7 53.35 28.72 53.38 28.73 53.4C28.74 53.43 28.76 53.45 28.77 53.48C28.78 53.51 28.79 53.53 28.8 53.56C28.81 53.59 28.82 53.62 28.82 53.64C28.85 53.72 28.86 53.81 28.86 53.89C28.87 53.97 28.86 54.06 28.84 54.14C28.83 54.22 28.8 54.3 28.77 54.38C28.73 54.46 28.69 54.53 28.64 54.59L25.39 58.84C25.22 59.07 25.02 59.28 24.8 59.46C24.58 59.64 24.34 59.79 24.08 59.92C23.83 60.05 23.56 60.14 23.28 60.21C23 60.27 22.72 60.3 22.43 60.3C22.24 60.3 22.05 60.29 21.86 60.26C21.67 60.23 21.48 60.18 21.3 60.12C21.12 60.06 20.94 59.99 20.77 59.9C20.6 59.81 20.44 59.71 20.28 59.59L9.13 51.34C8.99 51.23 8.86 51.12 8.73 50.99C8.61 50.87 8.49 50.73 8.39 50.59C8.28 50.45 8.19 50.3 8.11 50.15C8.03 49.99 7.96 49.83 7.9 49.66C7.88 49.61 7.86 49.55 7.84 49.49C7.83 49.43 7.81 49.37 7.79 49.32C7.78 49.26 7.77 49.2 7.75 49.14C7.74 49.08 7.73 49.02 7.72 48.96C7.69 48.72 7.68 48.48 7.7 48.24C7.71 48 7.75 47.76 7.81 47.53C7.87 47.29 7.96 47.07 8.06 46.85C8.17 46.64 8.3 46.43 8.45 46.24L11.96 41.65C12.03 41.56 12.11 41.48 12.21 41.41C12.31 41.35 12.41 41.3 12.53 41.26C12.64 41.23 12.76 41.22 12.87 41.22C12.99 41.23 13.11 41.25 13.21 41.29L18.4 43.27L19.53 41.79L16.57 36.76C16.52 36.67 16.48 36.56 16.45 36.46C16.43 36.35 16.42 36.24 16.42 36.14C16.43 36.03 16.45 35.92 16.49 35.82C16.53 35.72 16.58 35.62 16.64 35.53L31.58 16C32.12 15.23 39.72 5.04 56.12 9.2C56.24 9.23 56.35 9.28 56.45 9.34C56.55 9.41 56.64 9.49 56.71 9.58C56.78 9.67 56.84 9.77 56.88 9.89C56.93 10 56.95 10.11 56.95 10.23L56.95 10.26C56.96 10.38 56.94 10.49 56.91 10.61C56.87 10.72 56.82 10.83 56.75 10.92C56.68 11.02 56.6 11.1 56.5 11.17C56.4 11.24 56.3 11.3 56.18 11.33C56.05 11.37 43.24 15.49 39.92 24.6L44.44 31.7C44.47 31.74 44.49 31.79 44.52 31.84C44.54 31.89 44.56 31.95 44.57 32C44.59 32.05 44.6 32.11 44.6 32.16C44.61 32.22 44.61 32.27 44.61 32.33C44.61 32.38 44.6 32.44 44.59 32.49C44.58 32.55 44.57 32.6 44.55 32.66C44.53 32.71 44.51 32.76 44.48 32.81C44.46 32.86 44.43 32.91 44.39 32.95L41.95 36.22L69.45 52.65C69.58 52.72 69.69 52.82 69.77 52.93C69.86 53.05 69.92 53.18 69.96 53.32C69.99 53.46 70 53.6 69.98 53.75C69.96 53.89 69.91 54.02 69.84 54.15C69.76 54.27 69.66 54.37 69.55 54.46C69.43 54.54 69.3 54.61 69.16 54.64C69.03 54.68 68.88 54.68 68.74 54.67C68.6 54.65 68.46 54.6 68.34 54.53C68.32 54.51 40.97 38.19 40.64 37.99L36.78 43.15L69.56 67.48ZM32.08 25.76C32.16 25.65 32.21 25.51 32.24 25.37C32.27 25.23 32.27 25.08 32.24 24.94C32.22 24.8 32.16 24.67 32.08 24.55C32 24.43 31.9 24.33 31.78 24.25L29.3 22.6L27.97 24.34L30.56 26.06C30.68 26.14 30.82 26.2 30.96 26.23C31.1 26.26 31.24 26.26 31.38 26.23C31.52 26.2 31.66 26.15 31.78 26.07C31.9 25.99 32 25.88 32.08 25.76L32.08 25.76Z" />
	</g>
</svg>