<svg xmlns="http://www.w3.org/2000/svg" xmlns:xlink="http://www.w3.org/1999/xlink" width="40" height="40" viewBox="0 0 40 40"><defs><style>.a{fill:#586167;}.b{clip-path:url(#a);}</style><clipPath id="a"><rect class="a" width="40" height="40"/></clipPath></defs><g class="b"><path class="a" d="M31.629,24.779a3.943,3.943,0,0,0-2.858-1.309,4.077,4.077,0,0,0-2.891,1.3L23.209,27.43c-.22-.118-.44-.228-.651-.338-.3-.152-.592-.3-.837-.447a29.026,29.026,0,0,1-6.958-6.332,17.1,17.1,0,0,1-2.283-3.6c.693-.633,1.336-1.292,1.961-1.925.237-.236.473-.481.71-.718a3.87,3.87,0,0,0,0-5.842l-2.308-2.3c-.262-.262-.533-.532-.786-.8-.507-.523-1.04-1.064-1.589-1.57A4,4,0,0,0,7.635,2.314,4.144,4.144,0,0,0,4.761,3.555l-.017.017-2.875,2.9A6.173,6.173,0,0,0,.035,10.393a14.78,14.78,0,0,0,1.082,6.264A36.34,36.34,0,0,0,7.585,27.43,39.78,39.78,0,0,0,20.833,37.788a20.665,20.665,0,0,0,7.44,2.195c.178.008.364.017.533.017a6.375,6.375,0,0,0,4.878-2.094c.008-.017.025-.025.034-.042a19.188,19.188,0,0,1,1.48-1.528c.364-.346.736-.709,1.1-1.089a4.209,4.209,0,0,0,1.277-2.921,4.054,4.054,0,0,0-1.3-2.9Zm3.027,8.89c-.008,0-.008.009,0,0-.33.355-.668.675-1.031,1.03a22.212,22.212,0,0,0-1.632,1.688,4.079,4.079,0,0,1-3.179,1.342c-.127,0-.262,0-.389-.009a18.357,18.357,0,0,1-6.595-1.975A37.548,37.548,0,0,1,9.352,25.986,34.264,34.264,0,0,1,3.264,15.864a12.039,12.039,0,0,1-.947-5.285A3.873,3.873,0,0,1,3.484,8.071L6.367,5.193a1.923,1.923,0,0,1,1.285-.6,1.809,1.809,0,0,1,1.234.591l.025.025c.516.481,1.006.979,1.522,1.511.262.27.533.54.8.819l2.308,2.3a1.61,1.61,0,0,1,0,2.617c-.245.245-.482.49-.727.726-.71.726-1.387,1.4-2.122,2.06-.017.017-.034.025-.042.042a1.72,1.72,0,0,0-.44,1.916l.025.076a18.5,18.5,0,0,0,2.731,4.449l.008.008a31.015,31.015,0,0,0,7.508,6.821,11.527,11.527,0,0,0,1.04.566c.3.152.592.3.837.447.034.017.068.042.1.059a1.835,1.835,0,0,0,.837.211,1.809,1.809,0,0,0,1.285-.582l2.892-2.887a1.913,1.913,0,0,1,1.277-.633,1.723,1.723,0,0,1,1.218.616l.017.017,4.658,4.652a1.668,1.668,0,0,1,.008,2.642"/><path class="a" d="M21.619,9.515a10.873,10.873,0,0,1,8.86,8.848,1.134,1.134,0,0,0,1.124.946,1.51,1.51,0,0,0,.194-.017,1.141,1.141,0,0,0,.938-1.317,13.147,13.147,0,0,0-10.72-10.7A1.147,1.147,0,0,0,20.7,8.2a1.128,1.128,0,0,0,.921,1.317"/><path class="a" d="M39.983,17.645A21.649,21.649,0,0,0,22.329.017a1.138,1.138,0,1,0-.372,2.246A19.337,19.337,0,0,1,37.734,18.016a1.134,1.134,0,0,0,1.124.946,1.512,1.512,0,0,0,.194-.017,1.119,1.119,0,0,0,.93-1.3"/></g></svg>