<svg xmlns="http://www.w3.org/2000/svg" width="18.554" height="17.067" viewBox="0 0 18.554 17.067"><defs><style>.a{fill:#009a00;}</style></defs><g transform="translate(-2.478 -9.092)"><path class="a" d="M22.442,10.986l-1.42,1.42a8.475,8.475,0,1,0,1.122,1.912l1.783-1.782a1.077,1.077,0,1,0-1.484-1.55Zm.147,6.639a8.324,8.324,0,1,1-1.725-5.061L14.226,19.2l-3.975-3.922A1.078,1.078,0,1,0,8.734,16.8L13.378,21.4a1.2,1.2,0,0,0,1.685,0l6.91-6.91A8.265,8.265,0,0,1,22.589,17.625Z" transform="translate(-3.266)"/></g></svg>