<svg xmlns="http://www.w3.org/2000/svg" width="35.145" height="22.365" viewBox="0 0 35.145 22.365"><path d="M35.151,20H7.994A4,4,0,0,0,4,23.994V38.371a4,4,0,0,0,3.994,3.994H35.151a4,4,0,0,0,3.994-3.994V23.994A4,4,0,0,0,35.151,20Zm2.4,18.371a2.4,2.4,0,0,1-2.4,2.4H11.987v-.8a.8.8,0,0,0-1.6,0v.8h-2.4a2.4,2.4,0,0,1-2.4-2.4V23.994a2.4,2.4,0,0,1,2.4-2.4h2.4v.8a.8.8,0,0,0,1.6,0v-.8H35.151a2.4,2.4,0,0,1,2.4,2.4Z" transform="translate(-4 -20)"/><path d="M20.8,32a.8.8,0,0,0-.8.8v1.6a.8.8,0,0,0,1.6,0V32.8a.8.8,0,0,0-.8-.8Z" transform="translate(-13.61 -27.208)"/><path d="M20.8,44a.8.8,0,0,0-.8.8v1.6a.8.8,0,1,0,1.6,0V44.8a.8.8,0,0,0-.8-.8Z" transform="translate(-13.61 -34.415)"/><path d="M20.8,56a.8.8,0,0,0-.8.8v1.6a.8.8,0,0,0,1.6,0V56.8a.8.8,0,0,0-.8-.8Z" transform="translate(-13.61 -41.623)"/><path d="M46.4,38.792A2.4,2.4,0,1,0,44,36.4,2.4,2.4,0,0,0,46.4,38.792Zm0-3.195a.8.8,0,1,1-.8.8A.8.8,0,0,1,46.4,35.6Z" transform="translate(-28.025 -28.409)"/><path d="M53.819,34.234l-9.585,9.585a.8.8,0,1,0,1.13,1.13l9.585-9.585a.8.8,0,1,0-1.13-1.13Z" transform="translate(-28.025 -28.409)"/><path d="M62.4,50a2.4,2.4,0,1,0,2.4,2.4A2.4,2.4,0,0,0,62.4,50Zm0,3.195a.8.8,0,1,1,.8-.8A.8.8,0,0,1,62.4,53.195Z" transform="translate(-37.635 -38.019)"/></svg>