<svg xmlns="http://www.w3.org/2000/svg" xmlns:xlink="http://www.w3.org/1999/xlink" width="40" height="40" viewBox="0 0 40 40"><defs><style>.a{fill:none;}.b{fill:#586167;}.c{clip-path:url(#a);}</style><clipPath id="a"><rect class="a" width="40" height="40"/></clipPath></defs><g transform="translate(-638 -830)"><g transform="translate(638 830)"><g class="c"><path d="M32.5,0H7.5A7.508,7.508,0,0,0,0,7.5V8.75H2.5V7.5a5.005,5.005,0,0,1,5-5h25a5.005,5.005,0,0,1,5,5V25a5.005,5.005,0,0,1-5,5H31.25a1.247,1.247,0,0,0-.884.366L25,35.733V33.75H22.5v5a1.25,1.25,0,0,0,2.134.884L31.767,32.5H32.5A7.508,7.508,0,0,0,40,25V7.5A7.508,7.508,0,0,0,32.5,0"/><path d="M21.25,10h-15A6.257,6.257,0,0,0,0,16.25v10a6.26,6.26,0,0,0,5,6.124V38.75a1.25,1.25,0,0,0,2.134.884L14.267,32.5H21.25a6.257,6.257,0,0,0,6.25-6.25v-10A6.257,6.257,0,0,0,21.25,10M25,26.25A3.755,3.755,0,0,1,21.25,30h-7.5a1.247,1.247,0,0,0-.884.366L7.5,35.733V31.25A1.25,1.25,0,0,0,6.25,30,3.755,3.755,0,0,1,2.5,26.25v-10A3.755,3.755,0,0,1,6.25,12.5h15A3.755,3.755,0,0,1,25,16.25Z"/><rect width="2.5" height="2.5" transform="translate(12.5 20)"/><rect width="2.5" height="2.5" transform="translate(18.75 20)"/><rect width="2.5" height="2.5" transform="translate(6.25 20)"/></g></g><path class="b" d="M661.271,869.9a1.252,1.252,0,0,1-.771-1.155v-5H663v1.983l5.366-5.367a1.248,1.248,0,0,1,.884-.366h1.25a5,5,0,0,0,5-5V837.5a5,5,0,0,0-5-5h-25a5,5,0,0,0-5,5v1.25H638V837.5a7.507,7.507,0,0,1,7.5-7.5h25a7.507,7.507,0,0,1,7.5,7.5V855a7.507,7.507,0,0,1-7.5,7.5h-.733l-7.133,7.133a1.253,1.253,0,0,1-1.363.272Zm-17.5,0A1.25,1.25,0,0,1,643,868.75v-6.377a6.26,6.26,0,0,1-5-6.124v-10A6.257,6.257,0,0,1,644.25,840h15a6.258,6.258,0,0,1,6.25,6.251v10a6.257,6.257,0,0,1-6.25,6.25h-6.982l-7.134,7.133a1.251,1.251,0,0,1-1.362.272ZM640.5,846.25v10A3.754,3.754,0,0,0,644.25,860a1.251,1.251,0,0,1,1.25,1.25v4.483l5.367-5.367a1.248,1.248,0,0,1,.884-.366h7.5A3.755,3.755,0,0,0,663,856.25v-10a3.755,3.755,0,0,0-3.75-3.75h-15A3.754,3.754,0,0,0,640.5,846.25Zm16.25,6.25V850h2.5v2.5Zm-6.25,0V850H653v2.5Zm-6.251,0V850h2.5v2.5Z"/></g></svg>