<svg xmlns="http://www.w3.org/2000/svg" xmlns:xlink="http://www.w3.org/1999/xlink" width="40" height="40" viewBox="0 0 40 40"><defs><style>.a{fill:none;}.b{fill:#586167;}.c{clip-path:url(#a);}</style><clipPath id="a"><rect class="a" width="40" height="40"/></clipPath></defs><g transform="translate(-353 -830)"><g transform="translate(353 830)"><g class="c"><path d="M31.629,24.779a3.943,3.943,0,0,0-2.858-1.309,4.077,4.077,0,0,0-2.891,1.3L23.209,27.43c-.22-.118-.44-.228-.651-.338-.3-.152-.592-.3-.837-.447a29.026,29.026,0,0,1-6.958-6.332,17.1,17.1,0,0,1-2.283-3.6c.693-.633,1.336-1.292,1.961-1.925.237-.236.473-.481.71-.718a3.87,3.87,0,0,0,0-5.842l-2.308-2.3c-.262-.262-.533-.532-.786-.8-.507-.523-1.04-1.064-1.589-1.57A4,4,0,0,0,7.635,2.314,4.144,4.144,0,0,0,4.761,3.555l-.017.017-2.875,2.9A6.173,6.173,0,0,0,.035,10.393a14.78,14.78,0,0,0,1.082,6.264A36.34,36.34,0,0,0,7.585,27.43,39.78,39.78,0,0,0,20.833,37.788a20.665,20.665,0,0,0,7.44,2.195c.178.008.364.017.533.017a6.375,6.375,0,0,0,4.878-2.094c.008-.017.025-.025.034-.042a19.188,19.188,0,0,1,1.48-1.528c.364-.346.736-.709,1.1-1.089a4.209,4.209,0,0,0,1.277-2.921,4.054,4.054,0,0,0-1.3-2.9Zm3.027,8.89c-.008,0-.008.009,0,0-.33.355-.668.675-1.031,1.03a22.212,22.212,0,0,0-1.632,1.688,4.079,4.079,0,0,1-3.179,1.342c-.127,0-.262,0-.389-.009a18.357,18.357,0,0,1-6.595-1.975A37.548,37.548,0,0,1,9.352,25.986,34.264,34.264,0,0,1,3.264,15.864a12.039,12.039,0,0,1-.947-5.285A3.873,3.873,0,0,1,3.484,8.071L6.367,5.193a1.923,1.923,0,0,1,1.285-.6,1.809,1.809,0,0,1,1.234.591l.025.025c.516.481,1.006.979,1.522,1.511.262.27.533.54.8.819l2.308,2.3a1.61,1.61,0,0,1,0,2.617c-.245.245-.482.49-.727.726-.71.726-1.387,1.4-2.122,2.06-.017.017-.034.025-.042.042a1.72,1.72,0,0,0-.44,1.916l.025.076a18.5,18.5,0,0,0,2.731,4.449l.008.008a31.015,31.015,0,0,0,7.508,6.821,11.527,11.527,0,0,0,1.04.566c.3.152.592.3.837.447.034.017.068.042.1.059a1.835,1.835,0,0,0,.837.211,1.809,1.809,0,0,0,1.285-.582l2.892-2.887a1.913,1.913,0,0,1,1.277-.633,1.723,1.723,0,0,1,1.218.616l.017.017,4.658,4.652a1.668,1.668,0,0,1,.008,2.642"/><path d="M21.619,9.515a10.873,10.873,0,0,1,8.86,8.848,1.134,1.134,0,0,0,1.124.946,1.51,1.51,0,0,0,.194-.017,1.141,1.141,0,0,0,.938-1.317,13.147,13.147,0,0,0-10.72-10.7A1.147,1.147,0,0,0,20.7,8.2a1.128,1.128,0,0,0,.921,1.317"/><path d="M39.983,17.645A21.649,21.649,0,0,0,22.329.017a1.138,1.138,0,1,0-.372,2.246A19.337,19.337,0,0,1,37.734,18.016a1.134,1.134,0,0,0,1.124.946,1.512,1.512,0,0,0,.194-.017,1.119,1.119,0,0,0,.93-1.3"/></g></g><path class="b" d="M381.272,869.983a20.677,20.677,0,0,1-7.439-2.2,39.789,39.789,0,0,1-13.249-10.359,36.346,36.346,0,0,1-6.467-10.772,14.774,14.774,0,0,1-1.082-6.264,6.173,6.173,0,0,1,1.834-3.926l2.875-2.9.017-.016a4.142,4.142,0,0,1,2.875-1.241,4,4,0,0,1,2.832,1.241c.549.506,1.082,1.047,1.589,1.57.254.271.524.541.786.8l2.309,2.3a3.87,3.87,0,0,1,0,5.843c-.237.236-.473.481-.71.717-.626.633-1.268,1.292-1.961,1.925a17.135,17.135,0,0,0,2.282,3.6,29.058,29.058,0,0,0,6.958,6.332c.246.152.533.3.837.447.212.11.431.22.652.338l2.671-2.66a4.078,4.078,0,0,1,2.892-1.3,3.94,3.94,0,0,1,2.857,1.309l4.641,4.651a4.056,4.056,0,0,1,1.3,2.9,4.207,4.207,0,0,1-1.277,2.92c-.364.38-.735.743-1.1,1.089a19.379,19.379,0,0,0-1.48,1.528c-.008.017-.025.025-.033.042A6.376,6.376,0,0,1,381.805,870C381.636,870,381.451,869.991,381.272,869.983Zm-21.905-34.791-2.884,2.879a3.878,3.878,0,0,0-1.166,2.507,12.032,12.032,0,0,0,.947,5.285,34.262,34.262,0,0,0,6.088,10.122,37.533,37.533,0,0,0,12.478,9.76,18.371,18.371,0,0,0,6.6,1.976c.126.008.262.008.389.008a4.079,4.079,0,0,0,3.179-1.342,21.933,21.933,0,0,1,1.632-1.688c.364-.355.7-.676,1.031-1.031a1.668,1.668,0,0,0-.008-2.642l-4.659-4.651-.016-.017a1.725,1.725,0,0,0-1.218-.617,1.912,1.912,0,0,0-1.276.634l-2.892,2.887a1.728,1.728,0,0,1-2.122.371c-.034-.016-.068-.041-.1-.059-.245-.152-.533-.3-.837-.447a11.565,11.565,0,0,1-1.039-.566,31.012,31.012,0,0,1-7.508-6.821l-.009-.008a18.514,18.514,0,0,1-2.731-4.45l-.025-.076a1.722,1.722,0,0,1,.439-1.917c.009-.016.026-.025.042-.042.736-.658,1.412-1.334,2.122-2.059.246-.237.482-.482.727-.726a1.61,1.61,0,0,0,0-2.617l-2.308-2.3c-.271-.278-.542-.549-.8-.819-.516-.532-1.006-1.03-1.522-1.511l-.025-.025a1.811,1.811,0,0,0-1.234-.59A1.922,1.922,0,0,0,359.367,835.192Zm28.289,28.476-.005,0S387.651,863.668,387.656,863.668Zm-4.177-15.305a10.872,10.872,0,0,0-8.861-8.848,1.126,1.126,0,0,1-.921-1.317,1.146,1.146,0,0,1,1.319-.929,13.147,13.147,0,0,1,10.72,10.7,1.141,1.141,0,0,1-.938,1.318,1.569,1.569,0,0,1-.194.016A1.134,1.134,0,0,1,383.479,848.363Zm7.254-.347a19.339,19.339,0,0,0-15.776-15.754,1.139,1.139,0,0,1,.15-2.263h.05a1.115,1.115,0,0,1,.171.017,21.648,21.648,0,0,1,17.654,17.627,1.111,1.111,0,0,1,.017.171v.046a1.118,1.118,0,0,1-.947,1.084,1.571,1.571,0,0,1-.194.017A1.135,1.135,0,0,1,390.733,848.016Z"/></g></svg>