<svg xmlns="http://www.w3.org/2000/svg" width="15.107" height="18.129" viewBox="0 0 15.107 18.129"><path d="M21.378,33.309a.379.379,0,0,0,.378-.378V25.378a.378.378,0,1,0-.755,0v7.554A.379.379,0,0,0,21.378,33.309Z" transform="translate(-16.845 -17.824)"/><path d="M29.378,33.309a.379.379,0,0,0,.378-.378V25.378a.378.378,0,1,0-.755,0v7.554A.379.379,0,0,0,29.378,33.309Z" transform="translate(-21.824 -17.824)"/><path d="M37.378,33.309a.379.379,0,0,0,.378-.378V25.378a.378.378,0,1,0-.755,0v7.554A.379.379,0,0,0,37.378,33.309Z" transform="translate(-26.802 -17.824)"/><path d="M13.021,24.129h9.064a1.889,1.889,0,0,0,1.888-1.888V11.288a1.136,1.136,0,0,0,1.133-1.133V9.021a1.136,1.136,0,0,0-1.133-1.133H20.2V6.378A.379.379,0,0,0,19.82,6H15.288a.379.379,0,0,0-.378.378V7.888H11.133A1.136,1.136,0,0,0,10,9.021v1.133a1.136,1.136,0,0,0,1.133,1.133V22.24A1.889,1.889,0,0,0,13.021,24.129ZM15.665,6.755h3.777V7.888H15.665Zm-4.91,3.4V9.021a.379.379,0,0,1,.378-.378H23.974a.379.379,0,0,1,.378.378v1.133a.379.379,0,0,1-.378.378H11.133A.379.379,0,0,1,10.755,10.155Zm12.464,1.133V22.24a1.136,1.136,0,0,1-1.133,1.133H13.021a1.136,1.136,0,0,1-1.133-1.133V11.288Z" transform="translate(-10 -6)"/></svg>