<svg xmlns="http://www.w3.org/2000/svg" width="93.659" height="93.657" viewBox="0 0 93.659 93.657"><defs><style>.a{fill:#6b26c8;}</style></defs><path class="a" d="M812.774,159.273a3,3,0,0,1,4.328.525l2.606,3.525,3.929-1.9a3,3,0,0,1,4.073,1.544l1.7,4.06,4.272-.9a3,3,0,0,1,3.581,2.471l.685,4.363,4.371.159a3,3,0,0,1,2.881,3.25l-.372,4.413L849.041,182a3,3,0,0,1,2.016,3.839l-1.412,4.2,3.817,2.2a3,3,0,0,1,1.037,4.205l-2.371,3.742,3.19,3.06a3,3,0,0,1,0,4.33l-3.19,3.06,2.371,3.742a3,3,0,0,1-1.037,4.206l-3.817,2.2,1.412,4.2a3,3,0,0,1-2.016,3.839l-4.218,1.211.372,4.413a3,3,0,0,1-2.881,3.25l-4.371.159-.685,4.363a3,3,0,0,1-3.581,2.47l-4.272-.9-1.7,4.06a3,3,0,0,1-4.073,1.544l-3.929-1.9-2.606,3.525a3,3,0,0,1-4.328.525l-3.364-2.791-3.364,2.791a3,3,0,0,1-4.328-.525l-2.606-3.525-3.929,1.9a3,3,0,0,1-4.073-1.544l-1.7-4.06-4.272.9a3,3,0,0,1-3.581-2.47l-.685-4.363-4.371-.159a3,3,0,0,1-2.881-3.25l.372-4.413-4.218-1.211a3,3,0,0,1-2.016-3.839l1.412-4.2-3.817-2.2a3,3,0,0,1-1.037-4.206l2.371-3.742-3.19-3.06a3,3,0,0,1,0-4.33l3.19-3.06-2.371-3.742a3,3,0,0,1,1.037-4.205l3.817-2.2-1.412-4.2A3,3,0,0,1,769.779,182L774,180.787l-.372-4.413a3,3,0,0,1,2.881-3.25l4.371-.159.685-4.363a3,3,0,0,1,3.581-2.471l4.272.9,1.7-4.06a3,3,0,0,1,4.073-1.544l3.929,1.9,2.606-3.525a3,3,0,0,1,4.328-.525l3.364,2.791Z" transform="translate(-762.581 -158.582)"/></svg>