<svg xmlns="http://www.w3.org/2000/svg" width="13.378" height="13.412" viewBox="0 0 13.378 13.412"><g transform="translate(-3.012 -10.437)"><g transform="translate(3.012 10.437)"><rect width="4.698" height="8.891" transform="translate(5.225 11.495) rotate(-135)"/><path d="M67.5,13.11l-2.453-2.488A.6.6,0,0,0,64.2,10.6l-.017.017L63.1,11.7l3.323,3.341L67.5,13.963A.589.589,0,0,0,67.5,13.11Z" transform="translate(-54.307 -10.437)"/><path d="M12.6,65.289a.6.6,0,0,0,.348.783.624.624,0,0,0,.435,0l3.689-1.392-3.1-3.08Z" transform="translate(-12.562 -52.698)"/></g></g></svg>