<svg xmlns="http://www.w3.org/2000/svg" width="40.4" height="40.44" viewBox="0 0 40.4 40.44"><defs><style>.a{fill:#2470d7;}.b{fill:#fff;}</style></defs><g transform="translate(-1130.13 -4695.328)"><ellipse class="a" cx="20.2" cy="20.22" rx="20.2" ry="20.22" transform="translate(1130.13 4695.328)"/><g transform="translate(0 -164.611)"><g transform="translate(1140.876 4874)"><path d="M10.664,2.657h1.461V.113A18.862,18.862,0,0,0,10,0C7.891,0,6.448,1.325,6.448,3.759V6H4.124V8.844H6.448V16H9.3V8.845h2.23L11.881,6H9.3V4.041c0-.822.222-1.385,1.367-1.385Z"/></g><path class="b" d="M1147.324,4890v-7.156H1145V4880h2.323v-2.241c0-2.434,1.443-3.759,3.548-3.759a18.787,18.787,0,0,1,2.128.113v2.544h-1.46c-1.145,0-1.366.562-1.367,1.384V4880h2.585l-.354,2.843h-2.23V4890Z"/></g></g></svg>