<svg xmlns="http://www.w3.org/2000/svg" width="27.828" height="25.84" viewBox="0 0 27.828 25.84"><g transform="translate(-2 -4)"><g transform="translate(2 4)"><path d="M28.834,27.852H26.846V13.938a2.982,2.982,0,0,0-1.988-2.8V27.852H22.871V6.982A2.99,2.99,0,0,0,19.889,4H11.938A2.99,2.99,0,0,0,8.957,6.982V27.852H6.969V11.136a2.982,2.982,0,0,0-1.988,2.8V27.852H2.994a.994.994,0,1,0,0,1.988h25.84a.994.994,0,1,0,0-1.988ZM14.92,25.864H12.932V23.877H14.92Zm0-3.975H12.932V19.9H14.92Zm0-3.975H12.932V15.926H14.92Zm0-3.975H12.932V11.951H14.92Zm0-3.975H12.932V7.975H14.92Zm3.975,15.9H16.908V23.877H18.9Zm0-3.975H16.908V19.9H18.9Zm0-3.975H16.908V15.926H18.9Zm0-3.975H16.908V11.951H18.9Zm0-3.975H16.908V7.975H18.9Z" transform="translate(-2 -4)"/></g></g></svg>