<svg xmlns="http://www.w3.org/2000/svg" xmlns:xlink="http://www.w3.org/1999/xlink" width="60.121" height="61.141" viewBox="0 0 60.121 61.141"><defs><style>.a{fill:#e6e2eb;stroke:#3172b4;stroke-width:3px;}.b{fill:url(#a);}</style><linearGradient id="a" y1="0.178" x2="1" y2="0.822" gradientUnits="objectBoundingBox"><stop offset="0" stop-color="#bed42e"/><stop offset="1" stop-color="#2d68c4"/></linearGradient></defs><g transform="translate(-839.94 -820.03)"><line class="a" x1="58" y2="57.96" transform="translate(841 822.15)"/><path class="b" d="M37.521,19.05l-1.873-1.524-.872,2.257c-.017.043-1.692,4.292-4.266,3.518a1.824,1.824,0,0,1-1.2-1.041c-.639-1.373-.367-3.857.692-6.33,1.465-3.419.824-7-1.856-10.361A18.839,18.839,0,0,0,23.9,1.716L21.157,0l.061,3.242c0,.058.06,5.818-4.193,7.931A9.975,9.975,0,0,0,11.773,17.2a9.272,9.272,0,0,0,.842,7.275,2.813,2.813,0,0,1,.467,2.268,2.731,2.731,0,0,1-1.548,1.426C8.494,29.394,6.5,25.306,6.423,25.137L5.036,22.168l-1.7,2.8A23.078,23.078,0,0,0,22.724,60q.137,0,.276,0h0A23.077,23.077,0,0,0,37.521,19.05M15.807,49.269v-.022a13.3,13.3,0,0,1,.792-4.479l4.323,1.267.044-2.3A8.545,8.545,0,0,1,24.6,36.879a15.887,15.887,0,0,0,1.914,4.786c1,1.631,1.941,3.015,2.812,4.265a5.946,5.946,0,0,1,.871,3.333v.008A7.2,7.2,0,0,1,23,56.482h0a7.212,7.212,0,0,1-7.192-7.213m16.847,4.642A10.712,10.712,0,0,0,33.7,49.275a9.377,9.377,0,0,0-1.5-5.359c-.971-1.394-1.8-2.624-2.7-4.089a13.741,13.741,0,0,1-1.835-5.894l-.231-2.278-2.135.811a13.21,13.21,0,0,0-3.863,2.478A11.864,11.864,0,0,0,17.7,41.426l-3.136-.919-.619,1.416A17.928,17.928,0,0,0,12.3,49.28a10.689,10.689,0,0,0,1.057,4.637,19.585,19.585,0,0,1-8.3-24.62c.156.173.322.345.5.515a6.548,6.548,0,0,0,7.289,1.622A6.06,6.06,0,0,0,16.4,27.892a6.116,6.116,0,0,0-.745-5.177,5.655,5.655,0,0,1-.522-4.5,6.5,6.5,0,0,1,3.452-3.893,11.2,11.2,0,0,0,5.729-7.768,13.661,13.661,0,0,1,1.145,1.275c1.8,2.292,2.247,4.549,1.321,6.71-1.481,3.456-1.723,6.9-.648,9.207A5.317,5.317,0,0,0,29.5,26.671c2.407.724,4.761-.119,6.629-2.374a11.468,11.468,0,0,0,.775-1.058,19.574,19.574,0,0,1-4.253,30.672" transform="translate(847 820.03)"/></g></svg>