<svg xmlns="http://www.w3.org/2000/svg" xmlns:xlink="http://www.w3.org/1999/xlink" width="53" height="60" viewBox="0 0 53 60"><defs><style>.a{fill:url(#a);}</style><linearGradient id="a" y1="0.129" x2="1" y2="0.871" gradientUnits="objectBoundingBox"><stop offset="0" stop-color="#bed42e"/><stop offset="1" stop-color="#2d68c4"/></linearGradient></defs><g transform="translate(-244 -820.03)"><path class="a" d="M26.5,0,0,7.584V20.8A42.257,42.257,0,0,0,25.8,59.7l.7.3.7-.3A42.257,42.257,0,0,0,53,20.8V7.584ZM49.467,20.8A38.791,38.791,0,0,1,26.5,56.2,38.791,38.791,0,0,1,3.533,20.8V10.231L26.5,3.658l22.967,6.572Z" transform="translate(244 820.03)"/><path class="a" d="M26.5,7.36,7.067,12.885V20.8A35.25,35.25,0,0,0,25.66,51.869l.841.452.841-.452A35.25,35.25,0,0,0,45.934,20.8V12.885ZM24.733,47.21A31.723,31.723,0,0,1,10.6,20.8V15.537l14.133-4.018ZM42.4,20.8A31.723,31.723,0,0,1,28.267,47.21V11.519L42.4,15.537Z" transform="translate(244 820.03)"/></g></svg>