<svg xmlns="http://www.w3.org/2000/svg" width="26.727" height="25.839" viewBox="0 0 26.727 25.839"><g transform="translate(-2.481 -4.125)"><path d="M28.726,15.114,16.8,4.484a1.454,1.454,0,0,0-1.912,0L2.964,15.114a1.433,1.433,0,0,0,.956,2.5h.562V28.642a1.26,1.26,0,0,0,1.266,1.266H8.139a.636.636,0,0,0,.647-.647V22.089a.493.493,0,0,1,.478-.478H13.82a.493.493,0,0,1,.478.478v7.228a.636.636,0,0,0,.647.647H25.914A1.26,1.26,0,0,0,27.179,28.7V17.646h.562A1.452,1.452,0,0,0,28.726,15.114Zm-5.822,9.7a.493.493,0,0,1-.478.478H18.151a.493.493,0,0,1-.478-.478V22.089a.493.493,0,0,1,.478-.478H22.4a.493.493,0,0,1,.478.478v2.728Z"/></g></svg>