<svg xmlns="http://www.w3.org/2000/svg" xmlns:xlink="http://www.w3.org/1999/xlink" width="40.4" height="40.44" viewBox="0 0 40.4 40.44"><defs><style>.a{fill:none;}.b{fill:#fff;}.c{fill:url(#a);}.d{clip-path:url(#b);}</style><linearGradient id="a" x1="1" x2="0" y2="1" gradientUnits="objectBoundingBox"><stop offset="0" stop-color="#bb00af"/><stop offset="1" stop-color="#f2000a"/></linearGradient><clipPath id="b"><rect class="a" width="16" height="16" transform="translate(0 0)"/></clipPath></defs><g transform="translate(-1269.88 -4695.328)"><ellipse class="c" cx="20.2" cy="20.22" rx="20.2" ry="20.22" transform="translate(1269.88 4695.328)"/><g transform="translate(0 -164.611)"><g class="d" transform="translate(1282 4872)"><path d="M8,3.892A4.105,4.105,0,1,0,12.108,8,4.1,4.1,0,0,0,8,3.892Zm0,6.77A2.665,2.665,0,1,1,10.667,8,2.664,2.664,0,0,1,8,10.662Z"/><path d="M11.3.051c-1.472-.069-5.118-.065-6.591,0A4.781,4.781,0,0,0,1.35,1.345C-.189,2.883.008,4.957.008,8c0,3.112-.173,5.137,1.342,6.653C2.895,16.194,5,15.992,8,15.992c3.083,0,4.147,0,5.237-.42,1.482-.575,2.6-1.9,2.71-4.279.069-1.473.065-5.118,0-6.591C15.817,1.893,14.31.189,11.3.051Zm2.33,13.582c-1.009,1.009-2.408.919-5.645.919-3.333,0-4.67.049-5.645-.929-1.123-1.118-.92-2.913-.92-5.635,0-3.683-.378-6.336,3.319-6.525.849-.03,1.1-.04,3.237-.04l.03.02c3.553,0,6.34-.372,6.507,3.324.038.843.047,1.1.047,3.231,0,3.295.062,4.639-.929,5.635Z"/><ellipse cx="0.959" cy="0.959" rx="0.959" ry="0.959" transform="translate(11.311 2.771)"/></g><path class="b" d="M1287.96,4888c-1.954-.014-3.442-.183-4.61-1.35-1.515-1.516-1.342-3.542-1.342-6.654,0-.582-.007-1.128-.007-1.643v-.194c0-2.074.142-3.609,1.349-4.816a4.784,4.784,0,0,1,3.358-1.294c1.473-.065,5.12-.069,6.591,0,3.012.139,4.519,1.843,4.652,4.652.064,1.472.069,5.118,0,6.591-.11,2.378-1.229,3.7-2.71,4.279-1.092.422-2.155.419-5.238.419-.5,0-.979.006-1.433.009Zm7.668-2.368c.992-1,.93-2.341.93-5.636,0-2.136-.009-2.388-.047-3.231-.167-3.7-2.954-3.325-6.508-3.325l-.029-.021c-2.137,0-2.387.011-3.237.041-3.7.189-3.318,2.842-3.318,6.526,0,2.722-.2,4.517.92,5.636.975.978,2.311.929,5.644.929C1293.221,4886.551,1294.62,4886.641,1295.628,4885.632ZM1285.9,4880A4.106,4.106,0,1,1,1290,4884.1,4.106,4.106,0,0,1,1285.9,4880Zm1.441,0a2.665,2.665,0,1,0,2.664-2.665A2.664,2.664,0,0,0,1287.338,4880Zm5.973-4.267a.959.959,0,1,1,.959.959A.96.96,0,0,1,1293.311,4875.73Z"/></g></g></svg>