<svg xmlns="http://www.w3.org/2000/svg" xmlns:xlink="http://www.w3.org/1999/xlink" width="43.598" height="43.597" viewBox="0 0 43.598 43.597"><defs><style>.a{fill:#fff;}.b{filter:url(#a);}</style><filter id="a" x="0" y="0" width="43.598" height="43.597" filterUnits="userSpaceOnUse"><feOffset dy="3" input="SourceAlpha"/><feGaussianBlur stdDeviation="3" result="b"/><feFlood flood-opacity="0.161"/><feComposite operator="in" in2="b"/><feComposite in="SourceGraphic"/></filter></defs><g transform="translate(9 6)"><g class="b" transform="matrix(1, 0, 0, 1, -9, -6)"><rect class="a" width="25.598" height="25.598" rx="3" transform="translate(34.6 6) rotate(90)"/></g><path d="M10.1,96.326h2.512V104.3H10.1Zm1.234-3.957a.593.593,0,1,1,0-.009" transform="translate(-2.669 -85.908)"/><path d="M14.73,96.861h2.381v1.086h0a2.626,2.626,0,0,1,2.346-1.287c2.5,0,2.968,1.655,2.968,3.8v4.377H19.983v-3.869c0-.875,0-2.11-1.287-2.11s-1.488,1.007-1.488,2.04v3.939H14.73Z" transform="translate(-3.271 -86.444)"/></g></svg>