<svg xmlns="http://www.w3.org/2000/svg" width="14.84" height="15.6" viewBox="0 0 14.84 15.6"><g transform="translate(0 0)"><g transform="translate(0 0)"><g transform="translate(0 3.669)"><path d="M45.379,259.067l-.69-.365-1.663-.878-2.006-1.059-1.738-.918c-.28-.147-.557-.305-.84-.444a.069.069,0,0,1-.011-.006c.078.135.155.271.233.405v-6.432c0-.3.008-.593,0-.889v-.013l-.706.405.69.365q.831.439,1.663.879,1,.53,2.006,1.059l1.738.918c.28.149.557.305.84.444a.07.07,0,0,1,.011.006c-.078-.135-.155-.271-.233-.405v6.425c0,.3-.006.593,0,.889v.013a.469.469,0,0,0,.939,0v-6.425c0-.3.006-.593,0-.889v-.013a.466.466,0,0,0-.233-.405l-.69-.365q-.831-.439-1.663-.879-1-.53-2.006-1.059l-1.738-.918c-.28-.149-.559-.3-.84-.444a.069.069,0,0,1-.011-.006.474.474,0,0,0-.706.405V254.9c0,.3-.006.593,0,.889v.013a.466.466,0,0,0,.233.405l.69.365,1.663.878,2.006,1.059,1.738.918c.28.149.559.3.84.444a.066.066,0,0,1,.011.006.469.469,0,0,0,.472-.81Z" transform="translate(-37.722 -248.007)"/></g><g transform="translate(6.948 3.675)"><path d="M489.006,255.793l-.69.365-1.663.878-2.006,1.059-1.738.918c-.28.147-.565.289-.84.444l-.011.006.706.405v-6.425c0-.3.008-.593,0-.889v-.013c-.078.135-.155.271-.233.405l.69-.365q.831-.439,1.663-.879,1-.53,2.006-1.059l1.738-.918c.28-.149.565-.289.84-.444l.011-.006-.706-.405V255.3c0,.3-.006.593,0,.889v.013a.469.469,0,0,0,.939,0v-6.432c0-.3.006-.593,0-.889v-.013a.474.474,0,0,0-.706-.405l-.69.365q-.831.439-1.663.879-1,.53-2.006,1.059l-1.738.918c-.28.149-.565.289-.84.444l-.011.006a.47.47,0,0,0-.233.405v6.425c0,.3-.006.593,0,.889v.013a.474.474,0,0,0,.706.405l.69-.365,1.663-.878,2.006-1.059,1.738-.918c.28-.147.565-.289.84-.444l.011-.006a.469.469,0,1,0-.472-.81Z" transform="translate(-481.822 -248.407)"/></g><g transform="translate(0.006)"><path d="M52.2,17.216l-.69.365q-.831.439-1.663.879-1,.53-2.006,1.059l-1.738.918c-.28.149-.565.289-.84.444l-.011.006h.474l-.69-.365q-.831-.439-1.663-.879-1-.53-2.006-1.059l-1.738-.918c-.28-.149-.557-.3-.84-.444a.068.068,0,0,1-.011-.006v.81l.69-.365,1.663-.878,2.006-1.059,1.738-.918c.28-.149.565-.289.84-.444l.011-.006h-.474l.69.365,1.663.878,2.006,1.059,1.738.918c.28.149.559.3.84.444a.068.068,0,0,1,.011.006.469.469,0,1,0,.472-.81l-.7-.369-1.668-.881L48.3,14.9l-1.733-.915c-.277-.145-.549-.3-.829-.438a.515.515,0,0,0-.493,0c-.031.016-.061.033-.091.048-.144.077-.288.152-.43.228l-1.566.828-2.009,1.061-1.807.954-.989.523a.421.421,0,0,0-.045.025.473.473,0,0,0,0,.81l.7.369,1.668.881,2.012,1.064,1.733.915c.277.145.549.3.829.438a.515.515,0,0,0,.493,0c.031-.016.061-.033.091-.048.144-.077.288-.152.43-.228l1.566-.828,2.009-1.061,1.807-.956.989-.523a.421.421,0,0,0,.045-.025.473.473,0,0,0,.169-.641A.48.48,0,0,0,52.2,17.216Z" transform="translate(-38.075 -13.487)"/></g><g transform="translate(3.478 1.837)"><path d="M260.737,135.441l.69-.365q.831-.439,1.663-.879,1-.53,2.006-1.059l1.738-.918c.28-.149.565-.289.84-.444l.011-.006a.473.473,0,0,0,.169-.641.481.481,0,0,0-.641-.169l-.69.365q-.831.439-1.663.879-1,.53-2.006,1.059l-1.738.918c-.28.149-.565.289-.84.444l-.011.006a.473.473,0,0,0-.169.641.48.48,0,0,0,.641.169Z" transform="translate(-260.032 -130.899)"/></g></g></g></svg>