<svg xmlns="http://www.w3.org/2000/svg" width="11.412" height="15.277" viewBox="0 0 11.412 15.277"><defs><style>.a{fill:#cddf38;}</style></defs><path class="a" d="M21.66,15.783a.717.717,0,0,1-.717-.717V11H14.991a.711.711,0,0,0-.711.717v13.82a.711.711,0,0,0,.711.74H24.98a.711.711,0,0,0,.711-.717V15.783Zm1.557,5.576L20.349,24.2a.517.517,0,0,1-.717,0l-2.867-2.844a.476.476,0,0,1,.335-.817h1.939v-2.35a.476.476,0,0,1,.476-.476h.952a.476.476,0,0,1,.476.476v2.35h1.939a.476.476,0,0,1,.335.817Z" transform="translate(-14.279 -11)"/><path class="a" d="M30.825,14.154l-2.938-2.938a.734.734,0,0,0-.505-.206H27.2v3.808h3.808v-.182A.711.711,0,0,0,30.825,14.154Z" transform="translate(-19.608 -11.004)"/></svg>