<svg xmlns="http://www.w3.org/2000/svg" width="25.057" height="23.539" viewBox="0 0 25.057 23.539"><defs><style>.a{stroke:#000;fill-rule:evenodd;}</style></defs><g transform="translate(-896.782 -397.455)"><g transform="translate(897.282 397.955)"><g transform="translate(0 0)"><g transform="translate(0 0)"><g transform="translate(0)"><g transform="translate(0 0)"><g transform="translate(0 0)"><path class="a" d="M11.718,23.177a.6.6,0,0,0,.82,0c.492-.515,1.176-1.192,1.968-2,3.827-3.793,9.65-9.509,9.65-13.627A6.8,6.8,0,0,0,17.35.8c-2.023,0-3.975,1.779-5.221,3.711C10.777,2.41,8.93.8,6.907.8A6.8,6.8,0,0,0,.1,7.546c0,4.118,5.8,9.834,9.65,13.627C10.543,21.958,11.253,22.635,11.718,23.177ZM11.664,5.731a.565.565,0,0,0,.929,0c1.066-1.6,2.843-3.847,4.757-3.847a5.7,5.7,0,0,1,5.713,5.662c0,3.657-5.823,9.428-9.322,12.868-.6.6-1.176,1.138-1.613,1.6-.437-.461-1.012-1-1.613-1.6C7.016,16.973,1.193,11.2,1.193,7.546A5.7,5.7,0,0,1,6.907,1.884C8.82,1.884,10.6,4.132,11.664,5.731Z" transform="translate(-0.1 -0.8)"/></g></g></g></g></g></g></g></svg>