<svg xmlns="http://www.w3.org/2000/svg" width="39.81" height="41.704" viewBox="0 0 39.81 41.704"><path d="M37.132,6A10.672,10.672,0,0,0,26.454,16.634s0,.01,0,.015c.053,3.078,1.695,5.947,3.7,8.59s4.432,5.08,6.25,7.2a.948.948,0,0,0,1.437,0c1.818-2.117,4.253-4.555,6.265-7.2s3.649-5.511,3.7-8.59q0-.007,0-.015A10.671,10.671,0,0,0,37.132,6Zm0,1.9a8.749,8.749,0,0,1,8.782,8.723s0,.01,0,.015c-.047,2.4-1.416,4.951-3.318,7.45-1.684,2.212-3.7,4.338-5.465,6.324-1.761-1.988-3.783-4.11-5.465-6.324-1.9-2.5-3.271-5.046-3.318-7.45v-.015A8.747,8.747,0,0,1,37.132,7.9Zm0,6.013a2.74,2.74,0,1,0,2.755,2.74A2.736,2.736,0,0,0,37.132,13.909Zm-17.21.044a.948.948,0,0,0-.281.044L8.666,17.389a.948.948,0,0,0-.666.9V46.758a.948.948,0,0,0,1.229.9l10.693-3.3,10.693,3.3a.948.948,0,0,0,.563,0L42.153,44.27a.948.948,0,0,0,.666-.9V33.251a.948.948,0,1,0-1.9,0V42.67l-9.079,2.784V29.667a.948.948,0,1,0-1.9,0V45.455L20.87,42.67V19a.948.948,0,1,0-1.9,0V42.67L9.9,45.455V18.989l10.027-3.1,3.643,1.126a.948.948,0,1,0,.563-1.807L20.2,14A.948.948,0,0,0,19.922,13.953Z" transform="translate(-8 -6)"/></svg>