<svg xmlns="http://www.w3.org/2000/svg" width="37.44" height="37.437" viewBox="0 0 37.44 37.437"><g transform="translate(-1159.03 -657.225)"><path d="M39.99,5H7.442A2.444,2.444,0,0,0,5,7.441v5.967c0,.005,0,.009,0,.014s0,.009,0,.014V40a2.443,2.443,0,0,0,2.441,2.441H39.99A2.447,2.447,0,0,0,42.438,40V7.441A2.448,2.448,0,0,0,39.99,5ZM7.442,6.5H39.99a.948.948,0,0,1,.951.944v5.233H6.5V7.441A.945.945,0,0,1,7.442,6.5ZM39.99,40.939H7.442A.945.945,0,0,1,6.5,40V14.172H40.94V40A.948.948,0,0,1,39.99,40.939Z" transform="translate(1154.032 652.225)"/><path d="M11.122,11.944a.748.748,0,0,0,.749-.749v-.967a.749.749,0,1,0-1.5,0V11.2A.748.748,0,0,0,11.122,11.944Z" transform="translate(1152.682 651.099)"/><path d="M14.767,11.944a.748.748,0,0,0,.749-.749v-.967a.749.749,0,1,0-1.5,0V11.2A.748.748,0,0,0,14.767,11.944Z" transform="translate(1151.766 651.099)"/><path d="M18.413,11.944a.748.748,0,0,0,.749-.749v-.967a.749.749,0,1,0-1.5,0V11.2A.748.748,0,0,0,18.413,11.944Z" transform="translate(1150.85 651.099)"/><path d="M30.747,11.622h13.2a.749.749,0,1,0,0-1.5h-13.2a.749.749,0,0,0,0,1.5Z" transform="translate(1147.75 650.937)"/><path d="M25.964,32.292a7.932,7.932,0,0,1,7.319,4.851.749.749,0,1,0,1.379-.583,9.422,9.422,0,0,0-5.611-5.243,5.4,5.4,0,1,0-6.169,0,9.449,9.449,0,0,0-6.359,8.914.748.748,0,0,0,.749.749H30.309a.749.749,0,1,0,0-1.5H18.056A7.953,7.953,0,0,1,25.964,32.292Zm-3.907-5.4a3.907,3.907,0,1,1,3.907,3.907A3.912,3.912,0,0,1,22.056,26.887Z" transform="translate(1151.136 648.084)"/><path d="M40.826,44.506,39.5,45.835l-.22-.22a.749.749,0,0,0-1.059,1.059l.749.749a.748.748,0,0,0,1.059,0l1.858-1.858a.749.749,0,0,0-1.059-1.059Z" transform="translate(1145.74 642.354)"/></g></svg>